<?xml version="1.0" encoding="UTF-8" standalone="no"?>
<svg
   xmlns:dc="http://purl.org/dc/elements/1.1/"
   xmlns:cc="http://creativecommons.org/ns#"
   xmlns:rdf="http://www.w3.org/1999/02/22-rdf-syntax-ns#"
   xmlns:svg="http://www.w3.org/2000/svg"
   xmlns="http://www.w3.org/2000/svg"
   xmlns:sodipodi="http://sodipodi.sourceforge.net/DTD/sodipodi-0.dtd"
   xmlns:inkscape="http://www.inkscape.org/namespaces/inkscape"
   width="967.92389"
   height="856.25775"
   viewBox="0 0 967.92389 856.25775"
   version="1.1"
   id="svg99"
   sodipodi:docname="clinical_decision_tool.svg"
   inkscape:version="0.92.3 (2405546, 2018-03-11)">
  <metadata
     id="metadata105">
    <rdf:RDF>
      <cc:Work
         rdf:about="">
        <dc:format>image/svg+xml</dc:format>
        <dc:type
           rdf:resource="http://purl.org/dc/dcmitype/StillImage" />
        <dc:title>Clinical Decision Tool</dc:title>
      </cc:Work>
    </rdf:RDF>
  </metadata>
  <defs
     id="defs103" />
  <sodipodi:namedview
     pagecolor="#ffffff"
     bordercolor="#666666"
     borderopacity="1"
     objecttolerance="10"
     gridtolerance="10"
     guidetolerance="10"
     inkscape:pageopacity="0"
     inkscape:pageshadow="2"
     inkscape:window-width="1920"
     inkscape:window-height="1019"
     id="namedview101"
     showgrid="false"
     fit-margin-top="100"
     fit-margin-left="100"
     fit-margin-right="100"
     fit-margin-bottom="100"
     inkscape:zoom="0.22583732"
     inkscape:cx="-147.88192"
     inkscape:cy="434.14773"
     inkscape:window-x="0"
     inkscape:window-y="0"
     inkscape:window-maximized="1"
     inkscape:current-layer="svg99" />
  <title
     id="title2">Clinical Decision Tool</title>
  <g
     id="red"
     transform="translate(18.317229,-100.39)">
    <path
       d="m 837.58,721.6 a 3.79,3.79 0 0 1 0.74,-0.25 3.08,3.08 0 0 0 0.57,-0.17 l 0.59,-0.28 -0.45,0.2 a 4.93,4.93 0 0 1 1.19,-0.35 l -0.53,0.08 a 6.05,6.05 0 0 1 1.41,0 l -0.55,-0.06 a 5.32,5.32 0 0 1 1.19,0.3 l -0.51,-0.2 0.37,0.17 -1.12,-1.86 v 0.24 l 4.47,-2 a 7.94,7.94 0 0 0 -1.39,-1 c -0.33,-0.15 -0.67,-0.27 -1,-0.41 l -2.09,-0.84 -1.47,5.89 c 0.23,0 0.47,0.05 0.71,0.05 a 6.84,6.84 0 0 0 1.46,-0.24 l 0.66,-0.13 0.33,-0.07 a 3.17,3.17 0 0 0 1.36,-0.82 2.8,2.8 0 0 0 0.76,-2 2.83,2.83 0 0 0 -0.86,-1.93 3.54,3.54 0 0 0 -1.67,-0.84 l -0.73,-0.17 a 7.38,7.38 0 0 0 -1.41,-0.21 c -0.26,0 -0.51,0 -0.77,0 a 3.25,3.25 0 0 0 -2.21,1 3.3,3.3 0 0 0 -0.82,1.83 3,3 0 0 0 0.42,2 3.4,3.4 0 0 0 1.92,1.4 l 2.19,0.59 1.06,0.29 a 7,7 0 0 0 1.77,0.11 2.64,2.64 0 0 0 2.25,-1.37 2.67,2.67 0 0 0 -1.67,-3.84 2.73,2.73 0 0 0 -2.56,0.74 l -0.1,0.1 2.1,-0.61 a 6.78,6.78 0 0 0 -4.11,0 6.58,6.58 0 0 0 -1.8,0.84 3.14,3.14 0 0 0 -1,1.17 7.59,7.59 0 0 0 -0.4,1 1.39,1.39 0 0 0 0.38,1.34 1.35,1.35 0 0 0 1.36,0.32 z"
       style="fill:#ed1c24"
       id="path4"
       inkscape:connector-curvature="0" />
    <path
       d="m 683.91,474.14 a 15.9,15.9 0 0 0 -1.19,3.73 26.18,26.18 0 0 0 -0.07,4.34 q 0.09,3.6 0.15,7.2 0.13,7.08 0.17,14.16 c 0,9.36 0.24,18.72 0.23,28.08 q 0,28.22 -1.52,56.39 -0.82,15.88 -2.07,31.75 c -0.25,3.22 3.22,6.21 6.3,6 3.61,-0.25 5.74,-2.85 6,-6.3 q 2.18,-28.12 2.77,-56.33 0.31,-14 0.26,-28.07 c 0,-9.43 0,-18.9 -0.49,-28.32 q -0.39,-7.95 -0.89,-15.89 c -0.16,-2.56 -0.34,-5.12 -0.52,-7.69 -0.09,-1.32 -0.15,-2.65 -0.29,-4 A 13.3,13.3 0 0 0 691,474 c -1.36,-2.53 -5.93,-2.67 -7.08,0.17 z"
       style="fill:#ed1c24"
       id="path6"
       inkscape:connector-curvature="0" />
    <path
       d="m 627.85,627.8 a 5.8,5.8 0 0 0 1.7,5.39 c 0.69,0.73 1.42,1.44 2.12,2.16 1.36,1.38 2.72,2.77 4.06,4.16 2.76,2.84 5.48,5.71 8.19,8.59 q 8,8.58 15.88,17.34 7.88,8.76 15.39,17.76 3.75,4.45 7.43,9 l 0.44,0.54 c 0,-0.05 -0.59,-0.73 -0.19,-0.23 l 1,1.26 1.89,2.36 q 1.82,2.26 3.62,4.55 4,5.1 8,10.28 2,2.69 4.06,5.38 c 0.65,0.87 1.29,1.75 1.95,2.61 a 6.91,6.91 0 0 0 6.12,3.12 5.1,5.1 0 0 0 4.65,-3.73 6.59,6.59 0 0 0 -0.59,-5.41 26.65,26.65 0 0 0 -1.83,-2.4 q -1.77,-2.31 -3.56,-4.61 -3.65,-4.68 -7.36,-9.31 -7.68,-9.55 -15.61,-18.87 C 675.04,665.83 664.54,654.21 653.6,643.01 q -4.54,-4.65 -9.17,-9.24 -2.4,-2.37 -4.82,-4.72 c -2,-1.89 -4.4,-5.19 -7.4,-4.72 -1.86,0.29 -4.06,1.35 -4.37,3.5 z"
       style="fill:#ed1c24"
       id="path8"
       inkscape:connector-curvature="0" />
    <path
       d="m 718.9,722.54 c -0.77,2.09 0.14,-0.18 0.3,-0.87 a 8.76,8.76 0 0 0 0.21,-2 8.1,8.1 0 0 0 -1.13,-4.16 c -2,-3.27 -6,-4.32 -9.58,-3.41 a 7,7 0 0 0 -4.89,6.77 c 0.2,2.86 2.17,6 5.22,6.52 a 99.38,99.38 0 0 0 13.8,1 l 12.7,0.34 25.15,0.68 50.3,1.36 13.95,0.38 7.22,0.19 3.49,0.1 a 12.32,12.32 0 0 0 6.18,-1.59 c 2.12,-1.05 3.33,-3.78 3.27,-6 a 7,7 0 0 0 -3.56,-5.88 11.6,11.6 0 0 0 -5.52,-1.54 c -1.08,0 -2.16,0 -3.23,-0.07 l -6.23,-0.15 -12.7,-0.3 -24.9,-0.59 -50.05,-1.19 -14.19,-0.34 c -4.69,-0.11 -9.52,-0.44 -14.18,0.1 l 3.79,12.75 a 5.2,5.2 0 0 1 -3.78,0.56 q -2.1,-0.84 -0.33,-0.15 a 3.43,3.43 0 0 0 1,0.37 c 0.64,0.16 0.79,0.38 -0.59,-0.35 l 0.19,0.1 a 3.79,3.79 0 0 1 -1.87,-2.33 5.29,5.29 0 0 0 5.06,3.66 5.43,5.43 0 0 0 4.87,-3.9 z"
       style="fill:#ed1c24"
       id="path10"
       inkscape:connector-curvature="0" />
    <path
       d="m 845,723.4 c 0.14,-0.61 0.28,-1.22 0.44,-1.83 0.53,-2 -2.68,-2.48 -2.85,-0.31 -0.23,3.21 -0.28,6.52 -0.76,9.7 l 4.47,1.12 c 0.22,-1.8 -0.09,-3.56 0.12,-5.36 a 10.87,10.87 0 0 1 1.48,-4.43 l -6.9,-2.72 a 72.68,72.68 0 0 0 -0.42,9 l -0.18,8.22 q -0.18,8.34 -0.35,16.69 c -0.24,11 -0.64,21.92 -0.69,32.89 v 9.47 c 0,3.12 -0.26,6.35 0,9.46 a 5.1,5.1 0 1 0 10,-1.6 c 0,-0.15 -0.41,-1.77 -0.3,-1.06 a 17.69,17.69 0 0 1 -0.09,-1.93 c -0.2,-4.54 -6.95,-5.45 -8,-0.89 -0.15,0.62 -0.26,1.27 -0.45,1.88 0.15,-0.35 0.11,-0.28 -0.1,0.19 l -0.38,0.82 9.46,2.29 c 0.24,-2.79 0,-5.67 0,-8.47 v -8 c 0,-5.48 0.05,-11 -0.08,-16.43 q -0.39,-16.56 -0.67,-33.11 c 0,-3.07 -0.11,-6.14 -0.16,-9.21 a 74.43,74.43 0 0 0 -0.3,-9.45 3.8,3.8 0 0 0 -3.33,-3.6 3.75,3.75 0 0 0 -4,2.78 25,25 0 0 0 -0.67,6.67 c 0.1,2.17 0.4,4.75 1.78,6.49 a 2.42,2.42 0 0 0 2.63,1 2.3,2.3 0 0 0 1.64,-2.26 c -0.53,-3.37 -0.62,-6.87 -0.89,-10.27 l -2.45,1.13 c 0.53,0.4 1,0.83 1.54,1.25 a 0.26,0.26 0 0 0 0.42,-0.12 z"
       style="fill:#ed1c24"
       id="path12"
       inkscape:connector-curvature="0" />
    <path
       d="m 686.22,619.63 c -1.3,-0.86 -2.83,-0.73 -4.32,-0.75 l -3.48,-0.07 -6.47,-0.13 -13.43,-0.25 -13.44,-0.26 c -2.15,0 -4.31,0 -6.46,0 -2.56,0 -5.39,-0.25 -7.87,0.42 -5,1.38 -4.76,9 0.25,10.2 2.49,0.58 5.34,0.19 7.88,0.13 2.16,0 4.31,-0.1 6.46,-0.22 l 13.41,-0.71 13.41,-0.71 6.46,-0.35 3.48,-0.18 c 1.5,-0.08 3,0 4.27,-0.93 a 3.64,3.64 0 0 0 -0.15,-6.19 z"
       style="fill:#ed1c24"
       id="path14"
       inkscape:connector-curvature="0" />
    <path
       d="m 697.37,211.73 c -0.35,17.33 -0.5,34.66 -0.65,52 -0.07,8.67 -0.61,17.34 -0.68,26 l -0.2,26 -0.11,14.75 c 0,4.9 -0.27,9.85 -0.05,14.75 a 4,4 0 0 0 4.05,3.85 4,4 0 0 0 3.86,-4 c 0.21,-4.32 0,-8.67 0,-13 v -13 l -0.08,-26 c 0,-8.67 -0.52,-17.32 -0.56,-26 l -0.1,-26 c 0,-9.84 -0.17,-19.66 -0.32,-29.49 0,-3.33 -5.08,-3.17 -5.15,0.13 z"
       style="fill:#ed1c24"
       id="path16"
       inkscape:connector-curvature="0" />
    <path
       d="m 698.94,344.3 a 10.62,10.62 0 0 0 -5.19,-2.14 42,42 0 0 0 -6.54,-0.55 l -11,-0.48 c -7.31,-0.31 -14.64,-0.31 -22,-0.43 l -44.35,-0.7 -12.48,-0.2 -6,-0.1 c -2.39,0 -4.84,-0.31 -7.13,0.46 a 4.42,4.42 0 0 0 -3.08,4.26 4.59,4.59 0 0 0 3.28,4.1 c 1.95,0.71 4.11,0.54 6.16,0.57 l 6,0.09 11,0.17 22,0.32 c 14.79,0.22 29.61,0.71 44.41,0.66 4.15,0 8.31,-0.11 12.46,-0.16 a 42.34,42.34 0 0 0 6.57,-0.28 c 2.17,-0.36 4.31,-0.71 6,-2.19 a 2.39,2.39 0 0 0 -0.08,-3.37 z"
       style="fill:#ed1c24"
       id="path18"
       inkscape:connector-curvature="0" />
    <path
       d="m 579.1,469.4 0.09,0.29 a 2,2 0 0 0 1.48,1.41 16.62,16.62 0 0 1 2.23,0.31 15.25,15.25 0 0 0 2.82,0.84 c 1.82,0.15 3.65,0.21 5.47,0.33 3.48,0.21 6.95,0.44 10.43,0.68 7,0.49 13.91,0.8 20.86,1.25 6.95,0.45 13.89,1.29 20.85,1.73 6.96,0.44 13.87,0.94 20.81,1.49 q 5.68,0.45 11.39,0.95 l 5.93,0.54 3,0.27 a 9.85,9.85 0 0 0 3.66,-0.33 c 3.65,-1 4.38,-6.58 0.88,-8.29 a 10.49,10.49 0 0 0 -3.79,-1.07 c -0.82,-0.09 -1.65,-0.15 -2.47,-0.22 l -5.44,-0.47 c -3.47,-0.29 -6.93,-0.56 -10.4,-0.82 q -10.39,-0.8 -20.81,-1.42 c -6.93,-0.42 -13.87,-0.47 -20.81,-0.59 -6.94,-0.12 -13.89,-0.44 -20.83,-0.45 -3.81,0 -7.61,0.07 -11.41,0.13 -2,0 -4,0.06 -6,0.1 a 10.25,10.25 0 0 0 -3.21,0.44 11.37,11.37 0 0 1 -2.73,0.52 2.18,2.18 0 0 0 -2,1.57 1.19,1.19 0 0 0 -0.06,0.81 z"
       style="fill:#ed1c24"
       id="path20"
       inkscape:connector-curvature="0" />
    <path
       d="m 580.91,344.41 c -0.49,8.16 -0.94,16.3 -1.14,24.47 -0.2,8.17 -0.18,16.28 -0.07,24.44 l 0.68,48.36 0.19,13.47 c 0,2.32 0.08,4.65 0.12,7 0,2.56 -0.39,5.76 1,8 a 4.1,4.1 0 0 0 7,-0.17 c 1.16,-2.08 0.71,-4.75 0.67,-7.06 -0.04,-2.31 -0.08,-4.32 -0.13,-6.48 l -0.29,-12 -0.58,-24.44 c -0.39,-16.11 -0.43,-32.26 -1.44,-48.35 -0.28,-4.47 -0.44,-9 -0.88,-13.44 l -1.37,-13.93 a 1.8805385,1.8805385 0 0 0 -3.76,0.09 z"
       style="fill:#ed1c24"
       id="path22"
       inkscape:connector-curvature="0" />
  </g>
  <g
     id="white"
     transform="translate(18.317229,-100.39)">
    <path
       d="m 572.54,384 a 61.79,61.79 0 0 0 25.26,-2.83"
       style="fill:none;stroke:#ffffff;stroke-width:8px;stroke-miterlimit:10"
       id="path25"
       inkscape:connector-curvature="0" />
    <path
       d="m 571.65,428.11 a 174.14,174.14 0 0 0 32.6,-3.38"
       style="fill:none;stroke:#ffffff;stroke-width:8px;stroke-miterlimit:10"
       id="path27"
       inkscape:connector-curvature="0" />
    <path
       d="m 647.34,665.7 a 237.66,237.66 0 0 1 22.24,-13.41"
       style="fill:none;stroke:#ffffff;stroke-width:8px;stroke-miterlimit:10"
       id="path29"
       inkscape:connector-curvature="0" />
    <path
       d="m 675.31,698 a 282.53,282.53 0 0 0 28.48,-18.31"
       style="fill:none;stroke:#ffffff;stroke-width:8px;stroke-miterlimit:10"
       id="path31"
       inkscape:connector-curvature="0" />
  </g>
  <g
     id="Layer_50"
     data-name="Layer 50"
     transform="translate(18.317229,-100.39)">
    <path
       d="m 424.45,208.9 c 8.21,0.25 16.4,0.48 24.62,0.54 8.22,0.06 16.41,0.14 24.61,0.26 8.2,0.12 16.41,-0.1 24.6,-0.12 8.19,-0.02 16.4,0 24.6,0 32.64,0.12 65.25,0.06 97.87,0.9 q 13.8,0.36 27.6,0.81 6.78,0.21 13.55,0.46 c 4.69,0.17 9.38,0.64 14.05,1 2.48,0.19 4.79,-2.48 4.63,-4.85 a 4.84,4.84 0 0 0 -4.86,-4.62 c -8.2,0 -16.37,-0.12 -24.57,-0.38 -8.2,-0.26 -16.39,-0.5 -24.58,-0.71 -16.4,-0.42 -32.79,-0.71 -49.19,-1.08 -16.23,-0.37 -32.46,-0.72 -48.7,-0.72 q -24.6,0 -49.19,0.31 c -18.41,0.22 -36.84,1.18 -55.18,2.59 a 2.8008749,2.8008749 0 0 0 0.14,5.6 z"
       id="path34"
       inkscape:connector-curvature="0" />
    <path
       d="m 423.68,209 c -2.08,6.34 -1.78,13.29 -1.74,19.9 0.04,6.61 0,13.48 0.13,20.22 0.17,13.31 0.48,26.62 0.73,39.93 l 0.2,11.48 c 0.07,3.74 -0.09,7.91 1.22,11.46 a 1.89,1.89 0 0 0 3.61,-0.09 c 1.06,-3.21 0.88,-6.91 0.82,-10.26 l -0.18,-10 -0.37,-20.22 q -0.36,-20 -0.93,-39.92 c -0.23,-7.46 0.07,-15.45 -2.55,-22.54 a 0.49,0.49 0 0 0 -0.94,0 z"
       id="path36"
       inkscape:connector-curvature="0" />
    <path
       d="m 674.84,209.51 c -3.08,6 -2.74,13.33 -2.73,19.9 0,6.82 0,13.65 0,20.47 0.13,13.48 0.49,27 0.73,40.43 l 0.21,11.48 c 0.07,3.88 0,8.34 1.94,11.8 a 2.71,2.71 0 0 0 4.65,-0.11 c 1.66,-3.23 1.57,-7.33 1.51,-10.89 l -0.19,-10 -0.37,-20.46 c -0.24,-13.49 -0.56,-26.95 -1,-40.43 -0.13,-3.83 -0.26,-7.65 -0.6,-11.47 a 27.16,27.16 0 0 0 -2.99,-10.75 0.7,0.7 0 0 0 -1.2,0 z"
       id="path38"
       inkscape:connector-curvature="0" />
    <path
       d="m 424.41,315.11 c 32.81,0.46 65.61,0.06 98.42,0.15 32.64,0.09 65.25,0.18 97.88,1 18.41,0.47 36.82,0.91 55.19,2.11 a 3.3,3.3 0 1 0 -0.16,-6.59 c -16.39,-0.19 -32.77,-0.82 -49.16,-1.25 -16.39,-0.43 -32.79,-0.73 -49.18,-1.05 q -48.95,-1 -97.9,-0.36 c -18.4,0.21 -36.82,1 -55.18,2.08 a 2,2 0 0 0 0.09,3.9 z"
       id="path40"
       inkscape:connector-curvature="0" />
    <path
       d="m 431.57,498.81 c 7.67,0.24 15.32,0.46 23,0.51 7.68,0.05 15.32,0.11 23,0.23 7.68,0.12 15.32,-0.09 23,-0.11 7.68,-0.02 15.31,0 23,0 30.62,0.11 61.21,0.07 91.82,0.9 q 13,0.36 26,0.81 l 13,0.47 c 4.32,0.17 8.66,0.63 13,1 2.4,0.2 4.64,-2.4 4.48,-4.7 a 4.68,4.68 0 0 0 -4.7,-4.47 c -7.66,0 -15.28,-0.13 -22.93,-0.39 -7.65,-0.26 -15.3,-0.5 -22.95,-0.71 -15.3,-0.42 -30.61,-0.71 -45.91,-1.08 -15.3,-0.37 -30.62,-0.71 -45.93,-0.71 -15.31,0 -30.61,0.11 -45.92,0.3 -17.3,0.23 -34.63,1.16 -51.87,2.54 a 2.7107794,2.7107794 0 0 0 0.13,5.42 z"
       id="path42"
       inkscape:connector-curvature="0" />
    <path
       d="m 430.84,499 c -2,6.36 -1.74,13.28 -1.7,19.89 0.04,6.61 0,13.48 0.12,20.22 0.16,13.31 0.45,26.62 0.68,39.93 l 0.19,11.48 c 0.07,3.75 -0.09,7.88 1.17,11.44 a 1.83,1.83 0 0 0 3.5,-0.08 c 1,-3.22 0.85,-6.9 0.79,-10.24 l -0.17,-10 -0.34,-20.22 c -0.23,-13.31 -0.5,-26.62 -0.88,-39.93 -0.21,-7.46 0.08,-15.42 -2.45,-22.54 a 0.48,0.48 0 0 0 -0.91,0 z"
       id="path44"
       inkscape:connector-curvature="0" />
    <path
       d="m 666.74,499.54 c -2.8,6.11 -2.52,13.27 -2.52,19.86 0,6.83 -0.05,13.65 0,20.48 0.1,13.47 0.41,27 0.61,40.43 l 0.17,11.48 c 0.06,3.87 0,8.14 1.76,11.68 a 2.47,2.47 0 0 0 4.24,-0.1 c 1.5,-3.28 1.44,-7.21 1.39,-10.76 l -0.15,-10 -0.31,-20.46 c -0.21,-13.48 -0.48,-26.95 -0.89,-40.43 -0.22,-7.34 0.13,-15.49 -3.2,-22.21 a 0.64,0.64 0 0 0 -1.1,0 z"
       id="path46"
       inkscape:connector-curvature="0" />
    <path
       d="m 431.54,605.05 c 30.62,0.42 61.25,0 91.87,0.11 30.62,0.11 61.22,0.18 91.83,1 17.3,0.47 34.61,0.92 51.89,2.11 a 3.191003,3.191003 0 1 0 -0.16,-6.38 c -15.3,-0.21 -30.59,-0.83 -45.88,-1.25 -15.29,-0.42 -30.61,-0.73 -45.92,-1.06 q -45.92,-1 -91.84,-0.36 c -17.3,0.21 -34.62,0.95 -51.88,2 a 1.89,1.89 0 0 0 0.09,3.77 z"
       id="path48"
       inkscape:connector-curvature="0" />
    <path
       d="m 542.5,461.77 q 1.69,-45.58 3,-91.17 l 0.37,-12.74 0.19,-6.49 v -1.25 a 5.36,5.36 0 0 1 0,-1.75 l -0.1,0.6 a 12.31,12.31 0 0 0 0.27,-2.1 6.89,6.89 0 0 0 -0.65,-3 c -1,-2.13 -2.33,-3.67 -4.8,-3.94 a 5.59,5.59 0 0 0 -5.57,2.84 14.21,14.21 0 0 0 -0.94,2.26 8.24,8.24 0 0 0 0.07,3.73 c -0.26,-1.5 -0.09,0.1 -0.08,0.38 v 1 l 0.12,6 0.24,11.47 0.49,22.95 q 0.46,22.71 1.11,45.4 l 0.75,25.94 c 0.11,3.49 5.26,3.3 5.39,-0.14 z"
       id="path50"
       inkscape:connector-curvature="0" />
    <path
       d="m 544,453.4 a 18.46,18.46 0 0 0 -2.75,2.32 25.3,25.3 0 0 0 -2.23,3.19 c -0.52,0.85 -1,1.72 -1.45,2.61 -0.45,0.89 -1,1.77 -1.5,2.66 l 5.54,6.85 h 0.17 a 5.25,5.25 0 0 0 2.64,-1.92 5.5,5.5 0 0 0 1,-3.16 c 0.17,-3.16 -1.67,-6.11 -3,-8.86 a 25,25 0 0 0 -2,-3.43 22.79,22.79 0 0 0 -1.85,-2.21 c -0.22,-0.26 -0.43,-0.53 -0.66,-0.77 a 4.74,4.74 0 0 0 -6.67,-0.15 4.94,4.94 0 0 0 -1.14,5 21.48,21.48 0 0 0 1.16,3.59 41.37,41.37 0 0 0 2.21,4.48 36.25,36.25 0 0 1 1.86,3.27 l -0.56,-1.25 a 6.59,6.59 0 0 1 0.47,1.55 l -0.22,-1.38 a 7.57,7.57 0 0 0 0.53,2.44 5.19,5.19 0 0 0 2.33,2.5 4.79,4.79 0 0 0 4.8,-0.11 4.89,4.89 0 0 0 1.66,-1.75 4.73,4.73 0 0 0 0.59,-2.41 c 0,-0.15 0,-0.29 0,-0.44 l -0.13,1.24 a 11.44,11.44 0 0 1 0.3,-1.92 c 0.18,-0.61 0.42,-1.22 0.66,-1.82 l -0.4,1 a 30.91,30.91 0 0 1 1.56,-3.35 17.88,17.88 0 0 0 1.06,-2.36 l -0.1,0.25 0.18,-0.42 c 0.12,-0.29 0.24,-0.57 0.37,-0.85 a 3.33,3.33 0 0 0 -0.6,-3.9 3.25,3.25 0 0 0 -3.93,-0.41 z"
       id="path52"
       inkscape:connector-curvature="0" />
    <path
       d="m 84.14,483.1 c 7.16,0.22 14.3,0.42 21.46,0.47 q 10.49,0.06 21,0.2 c 7.14,0.11 14.29,-0.09 21.44,-0.11 q 10.47,0 20.94,0 c 28.26,0.11 56.5,0.09 84.74,0.92 q 12,0.36 23.93,0.81 l 11.95,0.47 c 4,0.17 8,0.62 12,1 2.31,0.2 4.45,-2.32 4.3,-4.51 a 4.5,4.5 0 0 0 -4.51,-4.3 c -7.15,0 -14.27,-0.16 -21.42,-0.42 q -10.45,-0.39 -20.93,-0.7 c -14.12,-0.42 -28.24,-0.71 -42.37,-1.07 -14.13,-0.36 -28.25,-0.7 -42.38,-0.7 -14.13,0 -28.26,0.1 -42.38,0.3 -16,0.22 -31.94,1.13 -47.83,2.47 a 2.61,2.61 0 0 0 0.13,5.21 z"
       id="path54"
       inkscape:connector-curvature="0" />
    <path
       d="m 83.44,483.36 c -1.94,6.38 -1.67,13.28 -1.64,19.89 0.03,6.61 0,13.48 0.1,20.22 0.14,13.31 0.41,26.62 0.62,39.93 l 0.18,11.48 c 0.06,3.74 -0.09,7.84 1.12,11.42 a 1.76,1.76 0 0 0 3.36,-0.08 c 1,-3.23 0.82,-6.87 0.77,-10.22 l -0.16,-10 -0.32,-20.22 q -0.31,-20 -0.81,-39.93 c -0.2,-7.46 0.08,-15.38 -2.35,-22.53 a 0.45,0.45 0 0 0 -0.87,0 z"
       id="path56"
       inkscape:connector-curvature="0" />
    <path
       d="m 300.52,483.93 c -2.86,6.07 -2.52,13.28 -2.52,19.86 0,6.83 0,13.65 0,20.48 0.11,13.48 0.43,27 0.64,40.43 l 0.18,11.48 c 0.06,3.88 0,8.18 1.79,11.71 a 2.52,2.52 0 0 0 4.32,-0.11 c 1.54,-3.27 1.47,-7.23 1.41,-10.78 l -0.15,-10 -0.33,-20.46 c -0.21,-13.48 -0.49,-26.95 -0.91,-40.43 -0.23,-7.33 0.13,-15.52 -3.27,-22.22 a 0.65,0.65 0 0 0 -1.12,0 z"
       id="path58"
       inkscape:connector-curvature="0" />
    <path
       d="m 84.11,589.36 c 28.26,0.38 56.52,0 84.79,0.07 28.27,0.07 56.5,0.19 84.74,1 16,0.47 31.92,0.92 47.85,2.09 a 3.1,3.1 0 0 0 3,-3.14 3.13,3.13 0 0 0 -3.14,-3 c -14.13,-0.22 -28.23,-0.84 -42.35,-1.26 -14.12,-0.42 -28.25,-0.73 -42.37,-1 q -42.39,-1 -84.77,-0.36 c -15.95,0.21 -31.92,0.94 -47.83,2 a 1.8105593,1.8105593 0 0 0 0.09,3.62 z"
       id="path60"
       inkscape:connector-curvature="0" />
    <path
       d="m 408.89,242.62 v -2.25 a 0.22,0.22 0 0 0 -0.43,0 v 2.25 c 0,0.27 0.43,0.26 0.43,0 z"
       id="path62"
       inkscape:connector-curvature="0" />
    <path
       d="m 272.27,745.25 c 7.16,0.29 14.29,0.56 21.45,0.64 q 10.48,0.12 20.95,0.3 c 7.05,0.13 14.12,-0.08 21.17,-0.1 7.05,-0.02 14.12,0 21.18,0 14.12,0.06 28.23,0 42.35,0.09 14.12,0.09 28.06,0.38 42.09,0.8 q 11.82,0.36 23.65,0.82 6,0.23 11.95,0.48 c 4,0.17 8,0.67 12,1.05 2.7,0.25 5.21,-2.73 5,-5.28 a 5.26,5.26 0 0 0 -5.28,-5 c -3.56,0 -7.13,0.1 -10.69,0.05 -3.56,-0.05 -7.14,-0.27 -10.7,-0.41 q -10.47,-0.39 -20.92,-0.7 c -14.11,-0.43 -28.23,-0.73 -42.34,-1.11 -14.11,-0.38 -28.24,-0.76 -42.36,-0.76 -14.12,0 -28.07,0.11 -42.1,0.31 -15.86,0.23 -31.75,1.24 -47.54,2.73 a 3.0459235,3.0459235 0 0 0 0.15,6.09 z"
       id="path64"
       inkscape:connector-curvature="0" />
    <path
       d="m 271.48,745.1 c -2.31,6.36 -2,13.44 -2,20.11 0,6.89 0,13.78 0.07,20.67 0.13,13.6 0.43,27.21 0.64,40.81 l 0.18,11.45 c 0.06,3.81 -0.14,8.13 1.3,11.72 a 2.09,2.09 0 0 0 4,-0.1 c 1.18,-3.25 1,-7.11 0.94,-10.53 l -0.16,-10 -0.33,-20.66 q -0.32,-20.42 -0.87,-40.81 c -0.21,-7.51 0.12,-15.65 -2.72,-22.73 a 0.54,0.54 0 0 0 -1,0 z"
       id="path66"
       inkscape:connector-curvature="0" />
    <path
       d="m 490.16,745.65 a 15,15 0 0 0 -1.07,1.91 22.81,22.81 0 0 0 -0.57,2.34 28.7,28.7 0 0 0 -1.07,5.66 c -0.2,3.5 -0.28,7 -0.27,10.47 0,6.8 0,13.61 0.07,20.42 0.12,13.76 0.58,27.54 0.88,41.31 l 0.25,11.45 a 59.2,59.2 0 0 0 0.35,6 15,15 0 0 0 1.81,6.44 3,3 0 0 0 5.13,-0.13 c 1.81,-3.17 1.73,-7.43 1.65,-11 L 497.1,830 496.66,809.59 c -0.29,-13.78 -0.67,-27.54 -1.22,-41.3 -0.15,-3.83 -0.29,-7.63 -0.66,-11.44 a 31.68,31.68 0 0 0 -1.19,-6.18 c -0.28,-0.92 -0.54,-1.85 -0.83,-2.76 a 10,10 0 0 0 -1.27,-2.33 0.78,0.78 0 0 0 -1.33,0 z"
       id="path68"
       inkscape:connector-curvature="0" />
    <path
       d="m 272.24,853.19 c 28.88,0.58 57.76,0.17 86.65,0.27 28.89,0.1 57.56,0.15 86.34,1 16.23,0.48 32.47,0.92 48.66,2.18 2,0.15 3.59,-1.91 3.55,-3.73 a 3.7,3.7 0 0 0 -3.73,-3.55 c -14.48,-0.16 -28.93,-0.8 -43.4,-1.23 -14.47,-0.43 -28.78,-0.74 -43.17,-1.08 q -43.18,-1 -86.37,-0.37 c -16.22,0.21 -32.46,1 -48.64,2.21 a 2.1507034,2.1507034 0 0 0 0.11,4.3 z"
       id="path70"
       inkscape:connector-curvature="0" />
    <path
       d="m 624.49,742.16 c 6.65,0.27 13.29,0.52 20,0.59 6.71,0.07 13.29,0.18 19.94,0.28 6.65,0.1 13.12,-0.09 19.68,-0.11 6.56,-0.02 13.12,0 19.68,0 13.28,0.06 26.56,0 39.84,0.1 13.28,0.1 26.39,0.38 39.59,0.81 q 11.08,0.36 22.16,0.81 l 10.95,0.47 c 3.83,0.18 7.65,0.67 11.46,1 2.62,0.26 5.07,-2.66 4.89,-5.14 a 5.1,5.1 0 0 0 -5.14,-4.89 c -3.31,0 -6.63,0.07 -9.94,0 -3.31,-0.07 -6.64,-0.27 -9.95,-0.4 q -10,-0.4 -19.92,-0.73 c -13.11,-0.42 -26.23,-0.71 -39.34,-1.09 -13.28,-0.38 -26.57,-0.75 -39.86,-0.75 -13.29,0 -26.4,0.11 -39.6,0.32 -14.86,0.23 -29.76,1.23 -44.54,2.71 a 3,3 0 0 0 0.15,5.93 z"
       id="path72"
       inkscape:connector-curvature="0" />
    <path
       d="m 623.73,742.1 c -2.22,6.4 -2,13.47 -1.94,20.17 0,6.91 0,13.82 0.05,20.72 0.12,13.65 0.4,27.3 0.59,41 l 0.17,11.48 c 0,3.83 -0.14,8.11 1.23,11.74 a 2,2 0 0 0 3.83,-0.1 c 1.14,-3.27 1,-7.1 0.91,-10.54 l -0.15,-10 -0.3,-20.72 q -0.29,-20.48 -0.81,-40.94 c -0.2,-7.54 0.13,-15.65 -2.59,-22.8 a 0.52,0.52 0 0 0 -1,0 z"
       id="path74"
       inkscape:connector-curvature="0" />
    <path
       d="m 824.24,742.66 a 16.13,16.13 0 0 0 -1,1.92 22.9,22.9 0 0 0 -0.54,2.35 30.32,30.32 0 0 0 -1,5.66 c -0.19,3.5 -0.27,7 -0.26,10.49 0,6.83 0,13.66 0,20.48 0.11,13.82 0.54,27.64 0.81,41.45 l 0.23,11.48 c 0.08,4 -0.05,8.81 2.06,12.38 a 2.88,2.88 0 0 0 4.92,-0.12 c 1.74,-3.22 1.67,-7.39 1.6,-11 l -0.21,-10.49 -0.4,-20.47 c -0.27,-13.82 -0.62,-27.62 -1.13,-41.43 -0.14,-3.84 -0.27,-7.66 -0.63,-11.48 a 33.19,33.19 0 0 0 -1.14,-6.17 c -0.26,-0.92 -0.5,-1.85 -0.79,-2.77 a 10.9,10.9 0 0 0 -1.21,-2.35 0.75,0.75 0 0 0 -1.28,0 z"
       id="path76"
       inkscape:connector-curvature="0" />
    <path
       d="m 624.45,850.43 c 26.41,0.52 52.82,0.11 79.24,0.2 26.42,0.09 53,0.17 79.43,1 14.87,0.48 29.75,0.92 44.57,2.16 1.88,0.16 3.45,-1.83 3.41,-3.57 a 3.56,3.56 0 0 0 -3.58,-3.41 c -13.28,-0.18 -26.54,-0.82 -39.82,-1.25 -13.11,-0.43 -26.23,-0.74 -39.34,-1.07 -26.49,-0.69 -53,-0.76 -79.46,-0.38 -14.86,0.22 -29.74,1 -44.55,2.17 a 2.0606067,2.0606067 0 0 0 0.1,4.12 z"
       id="path78"
       inkscape:connector-curvature="0" />
    <path
       d="m 422.65,710.82 q 32.36,-33 64.43,-66.23 l 9,-9.35 4.51,-4.67 0.69,-0.72 c 0.37,-0.38 0.91,-1.21 1.39,-1.44 l -0.49,0.42 a 6.06,6.06 0 0 0 1.61,-1.41 9.14,9.14 0 0 0 1.84,-3.73 c 1.23,-4.16 -3.33,-8.87 -7.56,-7.19 a 15.59,15.59 0 0 0 -2.32,1 8.69,8.69 0 0 0 -2.6,2.73 c -0.93,1.31 0.92,-0.9 -0.23,0.28 -0.29,0.29 -0.55,0.63 -0.82,0.94 l -3.91,4.55 -7.54,8.69 -15.24,17.56 q -15.07,17.37 -30,34.86 l -16.88,19.79 c -2.37,2.78 1.54,6.58 4.14,3.94 z"
       id="path80"
       inkscape:connector-curvature="0" />
    <path
       d="m 430.11,705.66 a 16.7,16.7 0 0 0 -3.86,-0.33 32.1,32.1 0 0 0 -4,0.72 29.73,29.73 0 0 0 -2.89,0.84 c -1,0.35 -2,0.59 -3.07,0.9 l -1,9.25 0.13,0.07 a 5.5,5.5 0 0 0 5.49,-0.14 c 3.17,-1.94 3.93,-5.91 4.82,-9.24 a 36.13,36.13 0 0 0 0.75,-4.28 20.81,20.81 0 0 0 0.15,-3.34 c 0,-1.77 -0.2,-3.42 -1.57,-4.75 a 5,5 0 0 0 -8,1.7 33.87,33.87 0 0 0 -1.95,5 36,36 0 0 0 -0.87,4.25 16.74,16.74 0 0 1 -0.74,3.44 l 0.53,-1.34 a 5.55,5.55 0 0 1 -0.5,0.93 l 0.84,-1.14 a 8.5,8.5 0 0 0 -1.31,2.13 5.11,5.11 0 0 0 -0.13,3.71 5.2,5.2 0 0 0 3.61,3.44 5.26,5.26 0 0 0 4.88,-1.42 l 0.72,-0.61 -1,0.78 a 12.85,12.85 0 0 1 2.76,-1.65 l -1.05,0.47 a 32.59,32.59 0 0 1 3.67,-1.4 18,18 0 0 0 2.53,-1 l -0.24,0.11 0.47,-0.2 c 0.31,-0.14 0.63,-0.26 0.95,-0.39 a 3.52,3.52 0 0 0 2.44,-3.36 c -0.1,-1.39 -1.08,-3 -2.6,-3.24 z"
       id="path82"
       inkscape:connector-curvature="0" />
    <path
       d="m 653.76,710.58 q -29.21,-35.69 -58.69,-71.12 l -8.33,-10 -4.16,-5 a 12.66,12.66 0 0 1 -1.93,-2.31 l 0.43,0.45 a 7.12,7.12 0 0 0 -1.29,-1.71 7.54,7.54 0 0 0 -2.54,-1.71 c -2.28,-1 -4.61,-1 -6.64,0.64 a 6.05,6.05 0 0 0 -2,6.35 8.26,8.26 0 0 0 2.68,4.37 18.72,18.72 0 0 1 1.91,2 l 4.06,4.39 7.79,8.41 15.74,17 q 15.57,16.83 31.27,33.54 l 17.76,18.87 a 2.88,2.88 0 0 0 4,-0.1 2.92,2.92 0 0 0 -0.09,-4 z"
       id="path84"
       inkscape:connector-curvature="0" />
    <path
       d="m 649.54,703.19 c -0.2,0.8 -0.38,1.61 -0.51,2.42 a 13.67,13.67 0 0 0 0,3.5 48.23,48.23 0 0 0 1,6 l -0.2,-1.21 c 0.14,1.15 0.32,2.3 0.53,3.44 l 9.26,1 a 5.6,5.6 0 0 0 0.53,-4.33 6.65,6.65 0 0 0 -1.65,-2.72 10.15,10.15 0 0 0 -2.24,-1.71 27.78,27.78 0 0 0 -4.64,-1.95 c -0.69,-0.27 -1.37,-0.56 -2.06,-0.8 -0.69,-0.24 -1.42,-0.37 -2.12,-0.55 a 34.55,34.55 0 0 0 -5.55,-0.72 c -1.78,-0.16 -3.34,1.2 -4.23,2.56 a 4.87,4.87 0 0 0 -0.62,2.53 5,5 0 0 0 2.57,4.23 28.73,28.73 0 0 0 2.66,1.59 c 0.94,0.44 1.93,0.79 2.89,1.17 2.17,0.87 4.5,1.22 6.68,2.07 l -1.35,-0.54 a 7,7 0 0 1 1.26,0.68 l -1.14,-0.84 a 9.8,9.8 0 0 0 1.66,1.26 6.14,6.14 0 0 0 2.11,0.64 8.33,8.33 0 0 0 2.28,-0.17 4.75,4.75 0 0 0 3.2,-3 4.84,4.84 0 0 0 -0.37,-4.48 c -0.41,-0.6 -0.81,-1.22 -1.18,-1.85 l 0.49,1.08 a 26.11,26.11 0 0 1 -1.47,-4.67 c -0.18,-0.77 -0.26,-1.58 -0.47,-2.35 -0.21,-0.77 -0.52,-1.59 -0.74,-2.4 a 3.46,3.46 0 0 0 -3.36,-2.43 3.53,3.53 0 0 0 -3.25,2.6 z"
       id="path86"
       inkscape:connector-curvature="0" />
    <path
       d="m 394.14,249 c -28.5,-0.56 -57,-1.24 -85.51,-1.69 l -85,-1.38 -24,-0.39 -12,-0.19 -6,-0.1 c -0.92,0 -1.83,-0.11 -2.75,-0.16 a 17.24,17.24 0 0 0 -4,0.56 c -2,0.37 -3.56,2.8 -3.43,4.74 a 4.92,4.92 0 0 0 3.66,4.56 17.82,17.82 0 0 0 3.55,0.54 c 0.91,0 1.83,-0.13 2.74,-0.15 1.83,0 3.67,0 5.5,0 l 10.49,-0.07 21.24,-0.14 42.73,-0.29 q 42.48,-0.28 84.95,-0.7 l 48,-0.5 c 3,0 2.83,-4.54 -0.12,-4.6 z"
       id="path88"
       inkscape:connector-curvature="0" />
    <path
       d="m 177.55,448.51 c 0.52,-25.95 1.12,-51.91 1.55,-77.86 0.43,-25.95 0.81,-51.74 1.21,-77.61 l 0.34,-21.71 0.17,-11 0.09,-5.49 c 0,-0.84 0.08,-1.66 0.16,-2.5 a 12.58,12.58 0 0 0 -0.59,-3.82 5.07,5.07 0 0 0 -4.95,-3.59 5.18,5.18 0 0 0 -4.78,3.83 13.3,13.3 0 0 0 -0.58,3.35 c 0,0.83 0.16,1.66 0.19,2.49 0,1.66 0,3.33 0,5 l 0.1,9.47 0.21,19.46 0.41,38.9 q 0.42,38.78 1,77.55 l 0.65,43.64 c 0,3.1 4.74,3 4.8,-0.12 z"
       id="path90"
       inkscape:connector-curvature="0" />
    <path
       d="m 179.79,443.34 a 10.89,10.89 0 0 0 -2.55,1 18.41,18.41 0 0 0 -2.25,1.79 c -1,0.81 -1.76,1.76 -2.69,2.6 l 5.34,-0.82 v 0 l 2.4,5.53 c 0.69,-1.76 -0.11,-4.08 -1.12,-5.54 -0.53,-0.75 -1.13,-1.44 -1.7,-2.15 a 14.54,14.54 0 0 0 -1.72,-1.95 c -0.33,-0.3 -0.66,-0.62 -1,-0.91 a 8.72,8.72 0 0 0 -5.19,-2.32 4.45,4.45 0 0 0 -3.07,1.36 l -0.67,0.91 A 4.3,4.3 0 0 0 165,445 c -0.12,1.31 0.74,2.71 1.32,3.88 a 11.56,11.56 0 0 0 1.23,1.73 20.25,20.25 0 0 0 2.21,2.41 c 0.52,0.49 1.06,1 1.53,1.51 l -0.82,-1 a 5.27,5.27 0 0 1 0.4,0.64 L 170.3,453 a 1.19,1.19 0 0 1 0.1,0.32 L 170.19,452 c 0.07,0.54 0.15,1.1 0.27,1.64 0.73,3.15 4.76,4.37 7.34,2.78 a 5.17,5.17 0 0 0 2.19,-3 5,5 0 0 0 -1.38,-4.78 l -0.06,-0.06 1.24,4.27 c 0.08,-0.27 0.15,-0.53 0.24,-0.8 l -0.4,1 a 11.05,11.05 0 0 1 1,-1.53 l -0.6,0.82 a 21.29,21.29 0 0 1 1.56,-1.88 19.12,19.12 0 0 0 1.85,-2.6 3.09,3.09 0 0 0 -0.33,-3.45 3.13,3.13 0 0 0 -3.3,-1 z"
       id="path92"
       inkscape:connector-curvature="0" />
    <path
       d="m 412.26,541.36 q -37.25,-0.95 -74.49,-1.55 l -10.5,-0.17 -5,-0.09 h -1 c -0.21,0 -1.55,0 -0.64,0.05 a 11.52,11.52 0 0 0 -2.56,-0.14 9,9 0 0 0 -2.71,1 c -3.19,1.58 -2.91,6.85 0.2,8.32 0.47,0.23 0.95,0.41 1.43,0.6 a 6.51,6.51 0 0 0 3.42,0.18 l 0.23,-0.05 c 0.36,-0.09 0.31,-0.07 -0.13,0.06 0.32,0 0.68,0 1,0 l 5,-0.19 9.24,-0.33 18.47,-0.67 q 18.6,-0.68 37.19,-1.48 l 21,-0.94 c 3,-0.13 2.83,-4.52 -0.11,-4.59 z"
       id="path94"
       inkscape:connector-curvature="0" />
    <path
       d="m 409.17,551.28 0.68,-0.34 0.35,-0.16 -0.23,0.1 a 13.33,13.33 0 0 0 1.92,-1 26,26 0 0 1 2.67,-1.4 l -0.84,0.38 a 11,11 0 0 1 2.8,-0.9 l -1,0.17 0.69,-0.1 a 4.1,4.1 0 0 0 2,-0.6 4.22,4.22 0 0 0 1.42,-1.49 4.27,4.27 0 0 0 -0.1,-4.1 l -0.07,-0.14 a 4.43,4.43 0 0 0 -3.86,-2.09 2.22,2.22 0 0 1 -0.37,0 l 1.18,0.13 a 4.62,4.62 0 0 1 -0.9,-0.25 l 1.08,0.42 c -1.54,-0.66 -2.8,-1.81 -4.26,-2.59 a 24.1,24.1 0 0 0 -5.6,-2.21 4,4 0 0 0 -3.85,1.12 4.11,4.11 0 0 0 -1,1.78 4,4 0 0 0 1.12,3.85 21.07,21.07 0 0 0 5.6,4.18 c 2.24,1.15 4.58,2.58 7.19,2.42 A 4.53,4.53 0 0 0 420,545.1 v -0.12 l -6,-4.44 c -0.73,0.44 -1.42,0.93 -2.17,1.34 -0.75,0.41 -1.39,0.82 -2.06,1.28 -0.85,0.6 -1.68,1.24 -2.47,1.92 a 12.26,12.26 0 0 0 -1.94,2.52 2.75,2.75 0 0 0 0.51,3.33 2.88,2.88 0 0 0 3.35,0.35 z"
       id="path96"
       inkscape:connector-curvature="0" />
  </g>
</svg>
