<svg xmlns="http://www.w3.org/2000/svg" width="882" height="1045" viewBox="0 0 882 1045">
  <title>Clinical expert </title>
  <g id="Layer_129" data-name="Layer 129">
    <path d="M230.57,300.61a234.59,234.59,0,0,0-85.63,80.86c-24.58,38.28-39.07,81.92-44.59,127-2.93,23.93-4.34,48.43-1,72.39A351.57,351.57,0,0,0,107,617.29a326.6,326.6,0,0,0,10.8,35.43,292.06,292.06,0,0,0,34.28,64.51c6.9,9.81,14.8,18.74,22.87,27.59s16.27,17.8,25.26,25.87a297.89,297.89,0,0,0,57.3,39.89,339.06,339.06,0,0,0,66.08,27.48,164.29,164.29,0,0,0,18.07,4.05c3.25.55,4.53-4.23,1.26-5-23.26-5.64-45.46-15-67-25.37a312.58,312.58,0,0,1-57.43-35.51c-18.63-14.65-34.66-32.08-50.11-50a208.73,208.73,0,0,1-20.22-28.71,326.51,326.51,0,0,1-16.5-30.74c-10.36-22.28-16.5-46-21.78-69.91a203.79,203.79,0,0,1-4.9-35.63,307,307,0,0,1,.83-35.24c3.27-45,14.91-89,37-128.45,19.06-34,44.8-63.62,77.24-85.39q6.22-4.19,12.69-8c2.33-1.38.15-4.89-2.21-3.57Z"/>
    <path d="M618.51,785.53a278.07,278.07,0,0,0,77-99.24,309.2,309.2,0,0,0,20.55-60c2.43-10.44,4.14-21,5.72-31.58a224.8,224.8,0,0,0,2.71-39.13,350,350,0,0,0-3.6-38.62,316.87,316.87,0,0,0-7.38-38.28,290.26,290.26,0,0,0-29.09-70.05c-6.38-11-14.14-21.16-21.55-31.46a264.81,264.81,0,0,0-24.36-29.33,315.36,315.36,0,0,0-55.19-45.1c-20.63-13.4-42.45-25.8-65.94-33.39-23.27-7.52-47.77-10.52-72.13-11.42-6-.22-12.05-.16-18.07-.05-3.37.05-3.16,5,.13,5.17,24,1.21,48,3.16,71.38,8.74A193.58,193.58,0,0,1,532.42,283c11.41,5.09,22.23,11.27,33,17.58a322.68,322.68,0,0,1,55.8,40.87,269.83,269.83,0,0,1,25,26.18c7.89,9.51,15,19.75,22,29.89,14.24,20.47,25,42.94,33,66.52s12.33,48.5,14.6,73.42c1.16,12.82,1.93,25.43,1,38.3a324.28,324.28,0,0,1-4.58,34.7,308.46,308.46,0,0,1-16.87,59.45c-15.24,38.31-38.2,73.7-68.16,102.15q-5.56,5.28-11.42,10.23c-1.8,1.52.77,4.73,2.62,3.23Z"/>
    <path d="M578.39,797.8a19.4,19.4,0,0,0-1.12-2.29,10,10,0,0,0-1.84-2,24.39,24.39,0,0,0-4.54-3.28A30.49,30.49,0,0,0,560.26,787c-8.09-1.15-16.12.09-24,2-9.13,2.17-18.25,5.1-27.73,5-4.82,0-9.56-1-14.35-1.3a51.32,51.32,0,0,0-13.71,1.08,46.71,46.71,0,0,0-12.77,4.61c-3.45,1.91-6.69,4.68-8.08,8.47-3.19,8.64,6.29,16,12.87,19.55a38.58,38.58,0,0,0,11.83,4.14,79.49,79.49,0,0,0,14.55.63c4.65-.08,9.31-.06,13.83,1.17a63.63,63.63,0,0,1,10.91,4.43c7.06,3.42,14.57,7.28,22.66,6.61,4.68-.39,8.91-2.26,13.18-4A94.09,94.09,0,0,1,572.87,835c2.23-.55,4.48-1,6.74-1.47,2-.41,1.28-3.29-.54-3.37a43.55,43.55,0,0,0-13.48,1.6c-4.29,1.18-8.28,3.09-12.43,4.68a23,23,0,0,1-11.07,1.77A36.34,36.34,0,0,1,531.78,835c-7.07-3.18-13.92-7.29-21.71-8.43-8.87-1.29-18,.64-26.75-1.44a34.59,34.59,0,0,1-10.7-4.56c-3-1.92-6.46-4.53-8-7.84-3.3-7.1,7.56-11.33,12.49-12.92a46.53,46.53,0,0,1,12.66-2.2,93.07,93.07,0,0,1,13.23,1c9.19,1,18.07-.74,27-3,7.75-1.94,15.48-4.11,23.53-4.16,6.71,0,13.44,1.3,19.2,4.88.67.42,1.29.91,2,1.34s1.54.82,2.28,1.28,1.83-.36,1.47-1.19Z"/>
    <path d="M459.07,806c-5.43,6.48-13.81,9.2-21.92,10.33-4.54.63-9.12.88-13.68,1.13a158,158,0,0,0-16.68,1.66,136.32,136.32,0,0,0-17.61,4c-5.2,1.55-10.53,3.42-14.86,6.8-4.16,3.24-7.42,7.86-8.06,13.2a15.91,15.91,0,0,0,5,13.37,31.59,31.59,0,0,0,12.13,6.83,79.51,79.51,0,0,0,15.94,3.38,140.17,140.17,0,0,0,33.32-.52c22.52-2.73,44.66-8.71,67.41-9.48q4.31-.15,8.63,0a32.18,32.18,0,0,1,6.2.63,16.92,16.92,0,0,1,5.4,1.91,6.78,6.78,0,0,1,1.83,1.35l.41.42c.62.67-.13-.21.18.22.14.19.28.4.4.6s.43.79.23.37a5.42,5.42,0,0,1,0,4.83,10.91,10.91,0,0,1-4.12,4.33c-4.47,2.83-9.88,2.63-14.93,3.53a32.28,32.28,0,0,0-8.16,2.45c-2.4,1.14-.54,4.8,1.87,4.14,5.53-1.52,11.39-1.2,17-2.35A19.87,19.87,0,0,0,527.66,871a11.39,11.39,0,0,0-.33-13.18c-2.83-3.62-7.32-5.43-11.73-6.24a72.91,72.91,0,0,0-15.49-.65c-5.63.19-11.25.71-16.84,1.42-11.53,1.46-22.93,3.72-34.38,5.73-11.05,1.93-22.19,3.62-33.43,3.89-10.57.25-21.59-.64-31.62-4.22-3.79-1.35-7.95-3.52-10.3-6.78a10.66,10.66,0,0,1-.39-11.78c2.48-4.44,7-7.16,11.65-9a107.42,107.42,0,0,1,17-4.82,137.79,137.79,0,0,1,17.65-2.48c4.53-.35,9.07-.59,13.59-1.08a64.47,64.47,0,0,0,13.49-2.67c4-1.33,8.16-3.27,11.11-6.36a23.17,23.17,0,0,0,3.64-5.2c.7-1.33-1.16-2.83-2.19-1.61Z"/>
    <path d="M494.81,875.48c-3.7-6.89-12.5-5-17.93-1.46-5.86,3.83-11,10.53-8.81,17.91,2.17,7.21,10.7,9.55,17.22,7.18a27.3,27.3,0,0,0,9.12-5.91,20.39,20.39,0,0,0,5.86-8.87,11.14,11.14,0,0,0-2.63-11c-2.49-2.6-7.39-4-10.12-1a2,2,0,0,0,1.5,3.36,5.51,5.51,0,0,1,4.62,2.07,5.44,5.44,0,0,1,1,2,5.31,5.31,0,0,1-.08,2.81,13.69,13.69,0,0,1-3.89,6.05,23.55,23.55,0,0,1-5.95,4.4c-3.48,1.75-8.79,2-11-1.71-2.57-4.36,1.12-9.36,4.41-12,2.19-1.79,4.79-3.52,7.63-3.94a8.84,8.84,0,0,1,6.92,1.88,1.35,1.35,0,0,0,2.08-1.68Z"/>
    <path d="M482.89,885a3.68,3.68,0,0,0-.13-.75,2.65,2.65,0,0,0-.68-1.09,3,3,0,0,0-.57-.42,3.51,3.51,0,0,0-.61-.24l-.08,0a3.17,3.17,0,0,0-1.53,0,5.06,5.06,0,0,0-.89.4l.59-.26a2.51,2.51,0,0,0-1.26.75,2.3,2.3,0,0,0-.51.72,3.49,3.49,0,0,0-.27.7,5.87,5.87,0,0,0-.08.72v.05a6,6,0,0,0,.12.72.09.09,0,0,0,0,.05,5.37,5.37,0,0,0,.29.65.43.43,0,0,1,0,.07,5.7,5.7,0,0,0,.45.55l0,0a4.15,4.15,0,0,0,.58.43l.09,0a7.39,7.39,0,0,0,1,.39,6.51,6.51,0,0,0,1.08.14,3.17,3.17,0,0,0,.44,0,5.69,5.69,0,0,0,2.92-1,7.45,7.45,0,0,0,1.17-1c.25-.29.47-.61.69-.92a3.48,3.48,0,0,0,.22-.36,8.25,8.25,0,0,0,.46-1.12,1.83,1.83,0,0,0,.12-.46,7.35,7.35,0,0,0,.13-1.24,7.59,7.59,0,0,0-.17-1.28l-.34-.75a2.36,2.36,0,0,0-.83-.86,1.57,1.57,0,0,0-.7-.39,2.54,2.54,0,0,0-1.22-.24,5.49,5.49,0,0,0-1.52.15,7.09,7.09,0,0,0-1.34.54,3.3,3.3,0,0,0-.63.38,7.35,7.35,0,0,0-1.11,1,5.77,5.77,0,0,0-1.39,2.57,3.59,3.59,0,0,0,0,2.2,4.26,4.26,0,0,0,1,1.67,2,2,0,0,0,.86.53,2.1,2.1,0,0,0,1,.2,2.68,2.68,0,0,0,1.85-.82c.25-.29.42-.62.64-.93l-.44.6c.05-.07.11-.13.16-.19l.47-.64a7.61,7.61,0,0,0,.31-.79s0-.1.05-.15l-.29.75a4.33,4.33,0,0,1,.6-1l-.48.65a3.71,3.71,0,0,1,.58-.61l-.64.52a3.54,3.54,0,0,1,.71-.45l-.75.34a3.45,3.45,0,0,1,.9-.26l-.84.13a2.22,2.22,0,0,1,.37,0l-3.09-2.23a3.38,3.38,0,0,1,.08.34l-.13-.83a2.75,2.75,0,0,1,0,.64l.09-.82a3,3,0,0,1-.19.77l.29-.74a3.87,3.87,0,0,1-.41.75l.45-.62a3.92,3.92,0,0,1-.63.66l.58-.48a3.35,3.35,0,0,1-.72.45l.68-.31a4.06,4.06,0,0,1-.89.3l.74-.12a3.19,3.19,0,0,1-.69,0l.72.08-.2,0,.64.25a.41.41,0,0,1-.11-.07l.54.4-.06,0,.43.52a.16.16,0,0,1,0-.07l.28.62,0-.07.11.69v-.1L482,886a.94.94,0,0,1,0-.16l-.24.62a.41.41,0,0,1,.05-.09,2.71,2.71,0,0,0,.32-1.34l-.07.68a.19.19,0,0,1,0-.08l-.24.6,0,0-.38.51a1,1,0,0,1,.18-.18l-.48.39.17-.11-.56.26.13,0-.63.1h.1l-.62-.07h.07l-.57-.22.07,0-.48-.35.09.07-.38-.45.06.08.36.45a1.84,1.84,0,0,0,.75.46,2.24,2.24,0,0,0,1.49.08,2.67,2.67,0,0,0,1-.62,1.83,1.83,0,0,0,.45-.74,1.69,1.69,0,0,0,.17-.89Z"/>
    <path d="M575.65,803.62c2-1.44,4-2.86,6-4.27a2.31,2.31,0,0,0,.95-1.3,2.25,2.25,0,0,0-.26-1.64,2.15,2.15,0,0,0-1.3-.95l-.57-.06a2.11,2.11,0,0,0-1.07.31c-1,.48-2,1.12-2.93,1.69l-1.41.82a4.74,4.74,0,0,0-1.86,1.72,2,2,0,0,0,.05,2,2,2,0,0,0,1.72.93,4.82,4.82,0,0,0,2.42-.86l1.39-.85c1-.59,2-1.13,2.87-1.8l-2.68-3.29c-1.68,1.79-3.38,3.56-5.09,5.33a1.45,1.45,0,0,0,1.81,2.23Z"/>
    <path d="M578.52,828a4.59,4.59,0,0,1,.35-1.75l-2.94-1.62c-.66,1.19-.2,2.9,0,4.18a32.53,32.53,0,0,0,.84,3.37,21.24,21.24,0,0,0,1.39,3.63,5,5,0,0,0,2.9,2.88,1.69,1.69,0,0,0,1.87-.82,3,3,0,0,0,.35-1.25,7,7,0,0,0-.08-.79,9.13,9.13,0,0,0-.51-2.06c-.39-1-.85-2.07-1.28-3.11s-.81-2.09-1.22-3.14c-.22-.53-.45-1.07-.66-1.61a5.78,5.78,0,0,0-.44-1.06,3,3,0,0,0-.92-.88,1.67,1.67,0,0,0-2,.31,1.71,1.71,0,0,0-.22,2c.09.2.12.23.1.06l.06.46.12.91a1.18,1.18,0,0,0,1,1.1,1.13,1.13,0,0,0,1.24-.85Z"/>
    <path d="M489.78,795.27a11.32,11.32,0,0,0-8.91,2.65,21.32,21.32,0,0,0-6.07,7.46c-3,6.27-2.88,13.83,1.65,19.36,2.34,2.87,7.06,5.92,10.78,3.74a1.78,1.78,0,0,0-.07-3.06c-1.57-.66-3.22-.86-4.65-1.82a10.83,10.83,0,0,1-3.27-3.53,12.86,12.86,0,0,1-1.27-9,16.76,16.76,0,0,1,4.31-8.25c2.21-2.31,5.09-3.86,7.83-5.45a1.17,1.17,0,0,0-.33-2.1Z"/>
  </g>
  <g id="Layer_131" data-name="Layer 131">
    <path d="M307.74,282.58c-.88.81-2.06,1.48-3,2.21a8.24,8.24,0,0,0-2.77,3,7.65,7.65,0,0,0,.75,7.48,7,7,0,0,0,3.07,2.46c1.59.62,3.34.34,4.91.93.07,0,.33.34.31.2s-.06,0-.26.08a5.88,5.88,0,0,0-1.79,1.65,7.64,7.64,0,0,0-1.62,4.66c0,4.09,3.45,7,7.32,7.34l-1.72-3.88c-2,2.06-4,4.14-4.56,7.1a7.42,7.42,0,0,0,2.72,7.2,15,15,0,0,0,7.06,2.69,46.34,46.34,0,0,0,5,.51,7.43,7.43,0,0,0,4.81-1,2,2,0,0,0-.09-3.44c-2.07-1.27-4.9-.82-7.23-1.08a16.27,16.27,0,0,1-5.3-1.23c-1.17-.58-2.15-1.34-2-2.79.24-1.73,1.75-3.59,2.89-4.83a2.33,2.33,0,0,0-1.72-3.89,3.1,3.1,0,0,1-2.79-2.57c-.2-1.5.63-2.51,1.68-3.44a3.86,3.86,0,0,0,.82-5.23c-1.2-1.75-3.1-2.19-5.09-2.32-1.39-.09-2.55-.15-3.42-1.37a4,4,0,0,1-.61-3.43c.85-2.59,5.51-3.56,3.65-6.95a.64.64,0,0,0-1-.11Z"/>
    <path d="M334.78,279.06c1.89-.32,4.82-.71,6.19,1.07.81,1.06-.24,2.22-.87,3.22-1.06,1.69-2.6,4.35-1.42,6.34,1,1.62,3.1,2.41,4.78,3.05-1.16-.44.38.24.29.28s.09-.73.09-.74c-.17-.11-.73.5-.9.68a4.9,4.9,0,0,0-1.44,3.66c.06,2.5,1.8,4.26,3.61,5.74a4.89,4.89,0,0,1,2.19,3.89,7.83,7.83,0,0,1-1.46,4.52,12,12,0,0,1-5.1,3.75,34.84,34.84,0,0,1-3.42,1.23,7.86,7.86,0,0,0-2.06.9c-.57.41-.87,1-1.38,1.44a1.52,1.52,0,0,0,.73,2.52,8.36,8.36,0,0,0,2.7.45,13.21,13.21,0,0,0,2.67-.73,28.73,28.73,0,0,0,5.15-2.33,14.77,14.77,0,0,0,6.57-7.72,10.42,10.42,0,0,0-1-9.4c-1-1.45-2.58-2.27-3.72-3.59-.13-.14-.49-.61-.46-.8,0,0,.57-.44.37-.27a5.5,5.5,0,0,0,1.16-1.2,4.57,4.57,0,0,0-1.12-6c-1.29-1.14-3.34-1.23-4.42-2.51l.77,1.76c0-1.29,1.28-2.73,1.91-4a6.34,6.34,0,0,0,.26-5.92,6.18,6.18,0,0,0-5.06-3.06c-2.31-.16-4.42,1-6.41,2-1,.53-.19,1.86.77,1.7Z"/>
    <path d="M323.28,326l.22.12c-.18-.14-.2-.16-.06-.05s.46.49.13.06a8.47,8.47,0,0,1,.54.79c.39.65.68,1.34,1.13,1.95a5.47,5.47,0,0,0,2.81,2.13,7.15,7.15,0,0,0,4.16-.36c2.29-.75,4.72-1.71,6.37-3.55,1.87-2.11,2.85-5.26,1.51-7.89a2.74,2.74,0,0,0-5.07,1.51l.15.92c.05.24.06.25,0,0s0-.24,0,0,0,.26,0,.39c0,.54.14-.54,0,0,0,0-.15.57-.15.58.15-.35.16-.39,0-.11,0,.09-.08.18-.13.27a2.13,2.13,0,0,1-.36.6l.17-.24-.26.31c-.14.15-.3.28-.44.43.42-.42,0,0-.15.1s-.42.29-.64.42-.45.24-.68.36c-.5.28.42-.15-.16.08-.9.37-1.81.69-2.72,1-.22.08-.44.14-.67.21.31,0,.31,0,0,0l.22,0L329,326c.36.16.45.19.28.1l-.18-.1c-.21-.14-.16-.1.16.12,0-.15-.51-.48-.63-.61l-.71-.78c-1.11-1.2-2.61-2.26-4.33-1.64-1.16.42-1.6,2.26-.3,2.86Z"/>
    <path d="M306.83,281.44c-6.95-5.45-15.84-7.74-22.49-13.63a42.24,42.24,0,0,1-11.56-18.08c-2.34-6.9-3.56-14.57-2.24-21.79a40.25,40.25,0,0,1,18.89-27.21,43.67,43.67,0,0,1,9.49-4.51,33.51,33.51,0,0,1,19.41.24A37.72,37.72,0,0,1,335.25,207a39.77,39.77,0,0,1,9.05,18.25,46.66,46.66,0,0,1-.33,20.6,48.93,48.93,0,0,1-3.47,9.93c-1.87,3.92-3.54,7.93-5.3,11.91-.42.95-.85,1.89-1.26,2.85a18.77,18.77,0,0,0-1,3.55,2.22,2.22,0,0,0,4.08,1.6c2.64-3.93,4.33-8.6,6.16-13,1.6-3.81,3.56-7.42,4.86-11.37a53.06,53.06,0,0,0,2.32-22.76,47,47,0,0,0-8-21.45,41.85,41.85,0,0,0-17.71-14.2,40.87,40.87,0,0,0-22-3.16,36.34,36.34,0,0,0-11.17,3.55,57.71,57.71,0,0,0-10.6,6.79,45.85,45.85,0,0,0-14.11,20.64c-2.71,8-2.64,16.3-.87,24.48A51,51,0,0,0,276.2,267a40.1,40.1,0,0,0,9.59,8.35,38.89,38.89,0,0,0,6.35,3.19c2.23.91,4.37,2,6.62,2.89a45.08,45.08,0,0,0,6.95,2.05c1.08.23,2.14-1.26,1.12-2.05Z"/>
    <path d="M314.58,266.8c1.59-2.47-1.14-5.74-2.76-7.47a9.34,9.34,0,0,1-1.15-1.38c-.05-.07-.45-.79-.31-.51,0-.07-.21-.65-.12-.26a3.27,3.27,0,0,1,0-.44c0,.22,0,.19,0-.09a8.55,8.55,0,0,1,.56-.91,5.43,5.43,0,0,0,.92-3c-.07-2.31-1.79-4-3.26-5.58-.81-.87-1.64-1.71-2.46-2.57l-1.32-1.36a8.8,8.8,0,0,0-.86-.87.84.84,0,0,1,0,.8q0,.21.24-.18a4.33,4.33,0,0,0,1-.83,6.42,6.42,0,0,0,1.6-2.58,6.81,6.81,0,0,0-.68-5.81l-2.69,3.69a12.24,12.24,0,0,0,10.11-1.68,9.94,9.94,0,0,0,3.64-3.92l.18-.31c-1,.59-1.64.54-2-.14,0,0-.12.3-.17.36a8.36,8.36,0,0,0-1.21,2.73c-1.07,4.15,2.22,7.34,3.93,10.73a15.25,15.25,0,0,1,1.57,5.18c.22,2,0,4,.37,6.06s3.4,2.13,4.16.44c1.86-4.17.3-9.54-1.58-13.48-.91-1.89-2.25-3.5-3.21-5.35a3.83,3.83,0,0,1-.6-2.1,9.5,9.5,0,0,1,1.1-2.38,4.72,4.72,0,0,0-1.57-6.08,3.53,3.53,0,0,0-3.58,0,6.2,6.2,0,0,0-1.93,2.29,7.34,7.34,0,0,1-8.06,2.9,2.49,2.49,0,0,0-2.69,3.69c.71,1.14.16,2-.77,2.83-1.53,1.29-2.49,3-1.71,5a9.45,9.45,0,0,0,2.33,2.94l2.31,2.38c.75.77,1.52,1.51,2.27,2.29.38.4.84.82.75,1.36,0,.29-.42.7-.56,1a7.61,7.61,0,0,0-.57,1.43,5.14,5.14,0,0,0,0,2.34,7.75,7.75,0,0,0,2,3.51c.88,1,1.88,1.82,2.83,2.73a10.25,10.25,0,0,1,1.29,1.26,4.47,4.47,0,0,1,.25.6,5.88,5.88,0,0,0,.6.85,1.05,1.05,0,0,0,1.79,0Z"/>
    <path d="M305.09,284.59c4.31,1.52,9,1,13.39.09s8.9-2.5,12-5.72a1.13,1.13,0,0,0-1.13-1.84c-4.09.87-8,2.64-12,3.6s-8.18,1.17-12.23,2c-1,.22-.76,1.57,0,1.85Z"/>
    <path d="M314.37,298.91a44.65,44.65,0,0,0,8.41-1.63c2.73-.86,5.58-1.79,7.74-3.74a1.3,1.3,0,0,0-1-2.18c-2.74.25-5.29,1.4-7.88,2.25s-5.14,1.77-7.73,2.59c-1.44.45-1.17,2.89.43,2.71Z"/>
    <path d="M315.07,310.38a25,25,0,0,0,9.42-.79c3-.89,6.22-2.38,8.21-4.85.82-1,0-3-1.49-2.42-2.67,1.05-5.15,2.48-7.9,3.35a27.38,27.38,0,0,1-8.32,1.39,1.68,1.68,0,0,0-1.62,1.7,1.72,1.72,0,0,0,1.7,1.62Z"/>
    <path d="M262.68,164.23a51.29,51.29,0,0,0,4.45,7.2c.8,1.14,1.6,2.27,2.45,3.38a21.38,21.38,0,0,0,1.54,1.88,5.3,5.3,0,0,0,2.34,1.48,2,2,0,0,0,2.43-1.95,7.87,7.87,0,0,0-2-4.22c-.88-1.14-1.78-2.27-2.67-3.39a68.67,68.67,0,0,0-5.71-6.68,1.83,1.83,0,0,0-2.41-.08,1.88,1.88,0,0,0-.42,2.38Z"/>
    <path d="M313.44,168.16c.37-.66.76-1.31,1.18-1.94.2-.31.41-.6.61-.9s-.21.27.12-.16l.3-.39a31,31,0,0,1,3-3.31c.52-.5,1.06-1,1.62-1.45.06,0,.58-.46.12-.11l.56-.44.62-.51c.22-.19-.31.24.05,0,1.37-1.07,3.29-2.23,3.4-4.14a1.5,1.5,0,0,0-.79-1.29c-1.71-.91-3.84.39-5.24,1.37a26.69,26.69,0,0,0-3.83,3.3,33.26,33.26,0,0,0-5.64,7.83,2.26,2.26,0,1,0,4,2.19Z"/>
    <path d="M229.33,203.24c4.53.63,9.07,1.12,13.6,1.71s9.24,1.64,13.87,1.59c1.83,0,2.68-2.82.89-3.62-4.37-2-9.24-2.5-14-2.92a64.7,64.7,0,0,0-14.05.16c-1.59.2-2.24,2.81-.34,3.08Z"/>
  </g>
  <g id="Layer_122" data-name="Layer 122">
    <path d="M348.11,462.59a1,1,0,0,1,.24.27l-.52-.85c.28.73.7,1.31,1,2.05a18.14,18.14,0,0,0,1.17,2.76,11.38,11.38,0,0,0,4.8,4.21c4.69,2.31,10.2,1.93,15.28,2s10.28.33,15.41.34c4.46,0,9.12-1,11.58-5.11,2.14-3.58,1.84-8.7,1.29-12.7-.64-4.5-2.63-8.91-6.86-11.08s-9.33-1.94-14-2.11c-5.3-.2-10.61-.39-15.91-.54-2.9-.09-6-.37-8.75.59a12.75,12.75,0,0,0-6.36,4.89c-3,4.32-3,12.23,2.07,15A3.1,3.1,0,0,0,353,458.8c-.16-.5-.26-1-.46-1.46-.1-.24-.22-.52-.34-.75,0,0-.31-.6-.13-.19a6.52,6.52,0,0,1-.36-1.08,4.43,4.43,0,0,1-.17-.74c.05.39,0-.05,0-.19a5,5,0,0,1,.26-2.06c.15-.53-.06,0,.21-.49.08-.13.71-1.11.46-.79a4.91,4.91,0,0,1,3.4-2.13,30.17,30.17,0,0,1,6.16,0q6.86.19,13.7.34c4,.09,8.22-.26,11.76.83a5.91,5.91,0,0,1,3.75,3.73,20.17,20.17,0,0,1,.71,2.64,27.76,27.76,0,0,1,.5,4.69,7.34,7.34,0,0,1-.86,4.34,4.52,4.52,0,0,1-3.08,1.67,23.63,23.63,0,0,1-4.66.27c-4.63,0-9.26-.08-13.9-.14-4.3,0-9.52.57-13.44-1.6a8.86,8.86,0,0,1-3.31-3.58c-1.07-1.77-2.61-3-4.75-2.47-1.45.34-1.41,2.27-.32,3Z"/>
    <path d="M459.21,457.34c-4-.81-4.51,3.77-6.95,5.71-2.92,2.32-7.08,2.28-10.61,2.44-4.55.19-9.1.41-13.64.57-2.09.08-4.19.21-6.28.19a9.62,9.62,0,0,1-4.18-.74,3.9,3.9,0,0,1-2.07-3.11,20.35,20.35,0,0,1-.06-4.95,21,21,0,0,1,.9-4.71,6.21,6.21,0,0,1,2.08-3,5.63,5.63,0,0,1,1.78-.87,13.57,13.57,0,0,1,2.14-.51c2-.26,4-.31,6-.42,4.56-.23,9.13-.46,13.69-.73,2.5-.15,5-.36,7.5-.42a9.19,9.19,0,0,1,3.05.32c.39.11.09,0,0,0a6.15,6.15,0,0,1,.81.41l.46.28c-.37-.24.17.13.29.23a4.68,4.68,0,0,1,1.37,1.69c0,.07.27.61.09.15.09.23.17.47.24.71s.1.36.14.55,0-.18,0,.38a5.15,5.15,0,0,1-.28,2.24c-.17.59.18-.35-.07.21-.1.24-.22.46-.32.69a13.63,13.63,0,0,0-.64,2.06c-.72,2.63,2.34,4.68,4.59,3.35,4.52-2.69,4.56-9.5,2.39-13.73-2.33-4.55-7.17-6.67-12.1-6.57-5.18.1-10.38.6-15.55,1-4.83.32-9.95.22-14.66,1.41a13,13,0,0,0-9.47,9.19,24,24,0,0,0-.81,6.48,26.42,26.42,0,0,0,.55,6.58c1.2,5,5.4,7.4,10.2,7.81a48.46,48.46,0,0,0,6.6-.15c2.65-.15,5.29-.29,7.94-.42l8.88-.45a25.72,25.72,0,0,0,8.39-1.48,13.24,13.24,0,0,0,5.73-4.25,11.73,11.73,0,0,0,1.5-3.23c.3-.91.77-1.65,1.07-2.53l-.48.88a.75.75,0,0,1,.23-.27,1.64,1.64,0,0,0-.46-3Z"/>
    <path d="M396,455.88a8.32,8.32,0,0,0,2.16.4c.72,0,1.43-.09,2.15-.14,1.43-.11,2.88-.12,4.32-.1.7,0,1.41,0,2.11.09s-.4-.08.3,0c.29.05.58.1.87.17l.42.13c-.21-.09-.19-.07.06,0a3.44,3.44,0,0,0,1.53.42,2.22,2.22,0,0,0,2.16-2.27c-.05-2-2.35-2.65-4-2.84a26,26,0,0,0-4.14-.11,37,37,0,0,0-4.57.55,9.92,9.92,0,0,0-2.08.53,7.21,7.21,0,0,0-1.86,1.29,1.1,1.1,0,0,0,.53,1.82Z"/>
    <path d="M330.38,442.17a17.76,17.76,0,0,0,1.34,1.41,14.31,14.31,0,0,0,2,1.21c1.31.66,2.63,1.21,4,1.76l3.91,1.59c.65.26,1.3.52,1.95.8a13,13,0,0,0,1.46.58,4.21,4.21,0,0,0,2.2,0,2.91,2.91,0,0,0,2-2.14,3.15,3.15,0,0,0-.84-2.89,5.23,5.23,0,0,0-2.73-1.37c-.68-.2-1.35-.42-2-.63l-4-1.26c-1.35-.43-2.68-.82-4.07-1.13a14.59,14.59,0,0,0-2.38-.39,5.89,5.89,0,0,0-.84,0c-.38,0-.77.22-1.13.25a1.3,1.3,0,0,0-.86,2.22Z"/>
    <path d="M459.1,447.31c1.8.51,3.95-.27,5.68-.8a42.3,42.3,0,0,0,4.79-1.78c1.7-.74,3.37-1.53,5-2.39s4.36-1.92,4.8-4a2.76,2.76,0,0,0-2-3.3c-2.08-.49-3.89,1.2-5.6,2.18-1.48.85-3,1.64-4.54,2.36-1.16.54-2.79,1.24-4.19,1.82-1.63.68-3.72,1.19-4.95,2.52a2.07,2.07,0,0,0,1,3.4Z"/>
  </g>
  <g id="Layer_128" data-name="Layer 128">
    <path d="M340.31,390.34a159.49,159.49,0,0,1,3.22-21.73c1.1-5,2.6-10.33,5.74-14.49a15.19,15.19,0,0,1,5.64-4.73c2.89-1.35,6.19-1.49,9.34-1.52,6.8-.06,13.85-.12,20.44,1.76,3.28.93,6.3,2.54,9.49,3.74a20.82,20.82,0,0,0,10.21,1.33c7-.94,13.29-4.64,19.93-6.83a82,82,0,0,1,19-4.11,52.5,52.5,0,0,1,8,0c1.13.08-.61-.09.5.05l1,.14c.62.1,1.24.21,1.85.34a29.93,29.93,0,0,1,3.74,1s1,.39.43.15c.4.16.8.34,1.2.53a18.74,18.74,0,0,1,1.72.9,11.53,11.53,0,0,1,2.91,2.19c.23.22.46.45.68.69.08.08.87,1,.51.56A16.61,16.61,0,0,1,467,352a14.17,14.17,0,0,1,1.74,4.31,28,28,0,0,1,.23,9.36c-.25,1.78-.57,3.57-.92,5.34a54.51,54.51,0,0,0-.61,5.57c-.23,2.44,3.29,2.88,4.36,1.07a29.92,29.92,0,0,0,3.75-9.92,32,32,0,0,0,.42-10.19,22.12,22.12,0,0,0-10.11-16c-4.86-3.08-10.78-4.22-16.46-4.43A68.67,68.67,0,0,0,430,339.62,95.31,95.31,0,0,0,419.46,343c-3.4,1.29-6.67,2.88-10.06,4.16-3,1.14-6.32,2.14-9.59,1.64-3.62-.55-6.92-2.35-10.31-3.65-6.94-2.65-14.44-2.84-21.78-2.79a49.54,49.54,0,0,0-11.21.89,19,19,0,0,0-8.53,4.57c-4.77,4.41-7.15,11.07-8.4,17.28a134.78,134.78,0,0,0-2.28,25.36c0,2,2.86,1.81,3-.08Z"/>
    <path d="M347.39,420.75c.82-2.94,1.7-5.88,2.8-8.72,1-2.65,2.25-5.21,3.42-7.79A121.62,121.62,0,0,1,361.76,389a20.82,20.82,0,0,1,4.36-5.21,9.92,9.92,0,0,1,6.87-2.09c3.09.12,6.19.87,9.26,1.29s6.17.77,9.27,1a189.48,189.48,0,0,0,37.5-.36c2.78-.3,5.61-.95,8.41-1,.61,0,1.65,0,2.08.4s.07,2,0,2.65a38.37,38.37,0,0,0,2.3,17.31c4,10.36,13.34,18.49,13.7,30.15a1.67,1.67,0,0,0,3.28.36,13.91,13.91,0,0,0,.33-8,32.33,32.33,0,0,0-2.95-7.12c-2.55-4.71-5.85-9-8.3-13.76a35.39,35.39,0,0,1-3.79-17.24c.11-3,.83-6.25-2.1-8.23-1.9-1.29-4.39-1.25-6.58-.95a198.3,198.3,0,0,1-39.64,1.61c-6.56-.42-13-1.39-19.51-2.29-3.05-.42-6.19-.61-9.1.57a16.27,16.27,0,0,0-6.42,4.93c-4.15,5.07-6.94,11.35-9.39,17.37a109.9,109.9,0,0,0-5.65,19.9.88.88,0,0,0,1.7.43Z"/>
    <path d="M474.33,361.41c4.09,11.14,3.72,23,5.89,34.51a47.33,47.33,0,0,0,6.47,16.5,38.21,38.21,0,0,1,4.16,7.7,18.29,18.29,0,0,1,.81,7.93,43.14,43.14,0,0,1-2.81,10.14c-.64,1.63-1.29,3.27-2,4.89-.78,1.84-1.78,3.58-1.88,5.6a2.24,2.24,0,0,0,3.39,1.84,12.7,12.7,0,0,0,3.29-4,49.65,49.65,0,0,0,2.73-4.68,41.45,41.45,0,0,0,3.44-9.57,26.7,26.7,0,0,0,.21-10.27,25.18,25.18,0,0,0-3.65-8.91c-1.63-2.61-3.52-5.05-5.05-7.72a36.36,36.36,0,0,1-3.27-8.05c-1.67-5.81-2.34-11.85-3.3-17.81-1.07-6.7-2.4-13.35-6.2-19.1-.75-1.14-2.76-.36-2.26,1Z"/>
    <path d="M336.87,363.69c-7.57,7.59-13.84,16.66-17,27a44.3,44.3,0,0,0-1.78,16.62c.5,6.11,1.72,12.13,2.24,18.24.29,3.43.34,6.85.41,10.29.07,3.59-.13,7.19.28,10.75a2.16,2.16,0,0,0,4.23.47c2-5.78,1.91-12.44,1.56-18.49s-1.55-12.08-2.54-18.12a44,44,0,0,1-.05-15.93,51,51,0,0,1,5.25-14.06,112.54,112.54,0,0,1,9.63-14.66c1.16-1.53-.79-3.52-2.21-2.1Z"/>
    <path d="M337.83,445.48a9.62,9.62,0,0,0-11.08,1.32,10.22,10.22,0,0,0-2.2,11.66,31.27,31.27,0,0,1,2.48,6,14.76,14.76,0,0,1,0,6c-.84,4.45-1.74,9.08,1.25,13a11.29,11.29,0,0,0,5.51,4c2.3.75,5.17.69,6.67-1.45a2.05,2.05,0,0,0-.38-2.48c-1.46-1.17-3.47-1.23-4.86-2a5.82,5.82,0,0,1-2.84-2.85c-.76-1.95-.24-4.12.08-6.11a23.27,23.27,0,0,0,.31-7.21,20.59,20.59,0,0,0-2.29-7c-.89-1.67-2-3.23-1.75-5.21.44-3.7,4.52-5.61,7.82-4.32,1.92.75,3.14-2.44,1.32-3.35Z"/>
    <path d="M472.76,443.08c1.47.08,2.8-1.08,4.3-.88,1.16.15,1.37.95,1.44,1.7.28,3.23-1.6,6.73-2.33,10a24.74,24.74,0,0,0-.7,6.47c.09,2.13.67,4.19.91,6.3a12.42,12.42,0,0,1-1.71,8.07,12.89,12.89,0,0,1-3,3.27c-.49.4-.24.2-.13.12l-.53.38c-.35.24-.72.47-1.08.7a7.28,7.28,0,0,0-2.19,1.94,2,2,0,0,0,.79,2.73c1.87,1.27,4.55.28,6.36-.64a13.3,13.3,0,0,0,4.51-4.38,17,17,0,0,0,2.9-11.26c-.26-2.48-1.06-4.88-1.19-7.37a22.57,22.57,0,0,1,1-7c1.06-4,3-8.61.86-12.65a6.18,6.18,0,0,0-6-3.27c-2.35.23-5.41,1.83-5.61,4.46a1.43,1.43,0,0,0,1.45,1.37Z"/>
    <path d="M340.37,453.39c-.06,7.64-.08,15.29-.2,22.94-.11,7.38-.32,14.84.16,22.2s.41,14.46,1.84,21.57a52.77,52.77,0,0,0,3.25,10c.72,1.68,1.48,3.35,2.33,5a17.87,17.87,0,0,0,3.41,4,63.81,63.81,0,0,0,8,6.4c2.84,2,5.67,4,8.67,5.79s6,3.06,8.78,4.94a38.77,38.77,0,0,1,3.6,2.78c.57.49,1.2,1,1.73,1.48.69.67,1.23,1.54,1.89,2.25a34.33,34.33,0,0,0,18,10.06,41.43,41.43,0,0,0,10.89.71c1.74-.12,3.63-.49,5.18-.56a28.74,28.74,0,0,0,4.8-.67,23.37,23.37,0,0,0,9.1-4.27,21.13,21.13,0,0,0,3.77-3.67,43.94,43.94,0,0,1,3.42-4.16,23.53,23.53,0,0,1,7.78-5.26c3.8-1.6,7.14-4.63,9.85-7.65,1.85-2.06-.59-4.63-2.88-3.55a49.19,49.19,0,0,0-4.77,2.51,34.49,34.49,0,0,1-4.51,2.54c-1.24.51-2.6.94-3.84,1.59a25.36,25.36,0,0,0-4.29,3,34.76,34.76,0,0,0-2.91,2.65,16.27,16.27,0,0,0-2.16,2.46l-.38.64c-.13.21-.27.42-.41.62.17-.21.13-.15-.13.18a16,16,0,0,1-5.84,4.7,19,19,0,0,1-6.95,1.74c-1.67.09-3.32.49-5,.63a36.05,36.05,0,0,1-5.3.07,28.61,28.61,0,0,1-17-6.74,31.25,31.25,0,0,1-3-3,27.7,27.7,0,0,0-3.95-3.7,45.27,45.27,0,0,0-8.27-5.34,95.72,95.72,0,0,1-16.39-10.47c-2.42-1.88-5-3.94-6.49-6.68a58,58,0,0,1-3.76-9.16c-2-6.43-2.18-13.11-2.73-19.79-.31-3.83-.68-7.61-.81-11.46-.15-4.15-.26-8.3-.47-12.45-.43-8.3-.77-16.6-1.13-24.9a1.45,1.45,0,0,0-2.89.07Z"/>
    <path d="M467.48,447.06c-.21,2-.53,4-.67,6s-.26,4.31-.35,6.47c-.17,4.14-.34,8.28-.44,12.42q-.3,12.18-.34,24.35c0,7.92.29,16-.53,23.87-.68,6.53-2.88,13.39-7,18.32a46.26,46.26,0,0,1-8.16,7.3c-3.21,2.41-7.2,4-9.83,7.09a1.87,1.87,0,0,0,1.88,3.06c7-1.95,14.05-5.45,19.23-10.67a38.25,38.25,0,0,0,10-19.82c1.51-8,1.08-16.24,1-24.35-.08-8.52-.14-17-.38-25.57q-.19-7.06-.5-14.14c-.11-2.31-.18-4.63-.35-6.95-.19-2.5-.54-4.94-.81-7.43a1.41,1.41,0,0,0-2.81.07Z"/>
  </g>
  <g id="people">
    <path d="M364.3,548.34a46.63,46.63,0,0,0-1,7.46c-.2,2.33-.43,4.65-.6,7-.34,4.71-1,9.72,0,14.38.4,1.77,2.74,1.33,3.24-.08,1.57-4.43,1.43-9.53,1.67-14.17.13-2.32.17-4.65.24-7a43.52,43.52,0,0,0-.12-7.22c-.25-1.87-2.93-2.42-3.46-.38Z"/>
    <path d="M453,549.15a18,18,0,0,0-1.63,7.25,47.82,47.82,0,0,0,.05,7,46.86,46.86,0,0,0,1.07,7.27c.58,2.29,1.31,5.71,3.73,6.75a2.2,2.2,0,0,0,2.92-.84c1.26-2.18.18-5.07-.33-7.33s-1-4.37-1.41-6.58-.62-4.25-.82-6.37a33.6,33.6,0,0,0-1-6.86,1.42,1.42,0,0,0-2.58-.27Z"/>
    <path d="M361.94,576.05c-5.55.38-11,2-16.36,3.28l-16.33,3.88c-10,2.38-19.93,4.68-29.95,6.74-7.6,1.57-15.46,3.34-22,7.7a32.19,32.19,0,0,0-8.71,8.66c-1.32,1.91-2.29,4-3.44,6a12.28,12.28,0,0,1-4.53,4.55c-2.27,1.37-4.69,2.44-6.88,3.95a37.7,37.7,0,0,0-6,5.16,64.9,64.9,0,0,0-9.37,12.73c-1.33,2.36,2.21,5.16,3.93,2.88,2.78-3.66,5.11-7.6,8.18-11.05a35.82,35.82,0,0,1,10.3-8,26.42,26.42,0,0,0,5.87-3.93,22.4,22.4,0,0,0,4.12-6.15,28.9,28.9,0,0,1,7.26-9.17c5.82-4.7,13.27-6.6,20.42-8.17,9.55-2.09,19.08-4.21,28.58-6.5,6-1.45,12-3,17.93-4.57s12.13-2.94,17.69-5.64c1.16-.56.51-2.47-.71-2.39Z"/>
    <path d="M454.33,575.66c6.57,3.34,13.94,5.18,21.06,7s14.09,3.15,21.19,4.4c13.74,2.43,27.52,4.68,41.35,6.51,6.31.84,12.7,1.78,18.71,4,3.06,1.1,5.37,3.15,8.18,4.68,3.1,1.7,6.46,2,9.92,2.09,2.83.11,5.63.37,7.92,2.19a20.49,20.49,0,0,1,5,6.51c3.39,6.19,6.23,12.74,9.11,19.18q5.09,11.34,9.67,22.9,2.26,5.67,4.39,11.39,1.1,2.93,2.15,5.85c.36,1,.69,2,1.06,2.94a11.81,11.81,0,0,0,1.84,3.09c1.35,1.8,4.53,1.23,4.44-1.32a13.38,13.38,0,0,0-.29-3.09c-.26-.91-.67-1.81-1-2.7q-1-2.7-2-5.38-2-5.26-4.12-10.49-4.25-10.54-8.92-20.91t-9.69-20.53c-2.63-5.31-5.79-11.21-11.58-13.59-3.26-1.34-6.73-1.21-10.19-1.41a11.83,11.83,0,0,1-4.4-.92,30.53,30.53,0,0,1-4.14-2.59c-5.34-3.62-12.19-4.92-18.45-5.94-6.42-1-12.9-1.62-19.31-2.69-7.28-1.22-14.58-2.34-21.86-3.54-8.21-1.35-16.4-2.83-24.53-4.63-4-.88-7.94-1.85-11.86-2.95-4.08-1.15-8.1-2.47-12.23-3.45-2.05-.49-3.33,2.5-1.37,3.5Z"/>
    <path d="M344.63,583c-2,1.43-2.43,3.66-2.35,6,.09,2.51,1.53,4.94,2.59,7.16a149,149,0,0,0,7.65,13.69c5.54,8.92,11.48,17.56,16.56,26.75,10.09,18.26,17.6,37.83,23.42,57.84q2.46,8.43,4.53,17c1.42,5.8,2.4,11.78,4.18,17.48.88,2.8,5.6,2.27,5.28-.84a122.76,122.76,0,0,0-3.13-15.51q-1.77-7.44-3.8-14.83c-2.73-9.9-5.86-19.69-9.48-29.3A273.57,273.57,0,0,0,377.58,640a298.16,298.16,0,0,0-15.71-26.44c-3.1-4.77-6.18-9.56-9-14.53-1.41-2.54-2.76-5.12-4-7.77-.53-1.16-1.06-2.31-1.62-3.45-.27-.56-.65-1.15-.16-1.7,1.44-1.65-.59-4.55-2.54-3.13Z"/>
    <path d="M488,585.77a320.49,320.49,0,0,0-39.8,50.88,353.29,353.29,0,0,0-29.43,57.21c-2.3,5.7-4.48,11.45-6.49,17.26q-1.47,4.21-2.84,8.48c-.47,1.49-.92,3-1.36,4.49a20.66,20.66,0,0,0-.59,2,8.28,8.28,0,0,0,.25,3c.28,1.67,2.66,2,3.67.88a9.25,9.25,0,0,0,1.45-1.74,10.61,10.61,0,0,0,.66-1.92l1.3-4.06c.81-2.57,1.65-5.14,2.52-7.69q2.54-7.47,5.4-14.8c3.83-9.81,8.13-19.43,12.82-28.85a361.44,361.44,0,0,1,33.08-54.28c7.11-9.6,14.53-19,22.39-28,1.76-2-1.15-4.82-3-2.88Z"/>
    <path d="M364.24,568.22c1.15-.44,2.44.15,3.49.65,1.36.66,2.7,1.36,4.07,2a82.26,82.26,0,0,0,8.87,3.46,98.07,98.07,0,0,0,18.07,4.09,102.57,102.57,0,0,0,37.59-2.15,93.59,93.59,0,0,0,10.08-3.06c1.59-.58,3.15-1.2,4.72-1.82,2-.79,4.16-1.39,5.2-3.44a2.59,2.59,0,0,0-1.62-3.72,5,5,0,0,0-3.41.37c-.64.29-1.26.61-1.9.91-1.35.65-2.73,1.21-4.13,1.74-2.89,1.1-5.84,2-8.83,2.86a95.13,95.13,0,0,1-18.12,3.1,100.14,100.14,0,0,1-36.38-4c-3.28-1-6.55-2.14-9.72-3.45s-6.74-2.85-9.52,0c-1,1,.1,3.07,1.54,2.51Z"/>
    <path d="M395.42,600.93a58.69,58.69,0,0,1,.78,9.55,2.4,2.4,0,0,0,2.37,2.26,102.68,102.68,0,0,0,25.74-.55,2.91,2.91,0,0,0,2.55-2c.95-2.43,1.84-4.87,2.73-7.32,1-2.7-3-4.67-4.8-2.64a5.25,5.25,0,0,0-1.43,2.36,2,2,0,0,0,1.39,2.32,4.39,4.39,0,0,0,2.16.11l-2.82-3.52c-.84,2.45-1.68,4.91-2.46,7.39l1.83-1.93a92.3,92.3,0,0,1-25,1.19l2.37,2.25a25.78,25.78,0,0,0-3.08-10.48c-.72-1.39-2.58-.28-2.33,1Z"/>
    <path d="M397.28,612.76a171.38,171.38,0,0,1-4.09,24.86c-1.88,8-4,16-4.83,24.24a44.2,44.2,0,0,0-.24,6.71c.12,2.49.34,5.07,2.19,6.93a1.94,1.94,0,0,0,3-.46c1-1.92.89-4.06.88-6.17s0-4,.14-6a89.29,89.29,0,0,1,1.74-11.72c1.65-8.06,3.84-16,4.74-24.2a47.64,47.64,0,0,0-.7-14.59c-.35-1.72-2.71-1-2.83.45Z"/>
    <path d="M422.56,612.5c-1.93,3.33-1.85,7.77-1.91,11.52a84.33,84.33,0,0,0,.83,11.66c1,7.73,2.61,15.36,3.24,23.13.18,2.17.28,4.35.27,6.52,0,2.33-.44,5,1.13,7a2.37,2.37,0,0,0,3.66.38c1.77-1.49,1.94-4,2-6.18,0-1.94-.05-3.89-.19-5.84-.3-4.06-.9-8.08-1.57-12.1-1.26-7.56-2.85-15.05-3.74-22.67-.26-2.15-.43-4.32-.48-6.48a32,32,0,0,0-.45-6.63,1.52,1.52,0,0,0-2.76-.29Z"/>
    <path d="M402.56,575.5c-12.13,6.16-7.05,22.38-8.61,32.9-.68,4.62-3.32,8.81-2.82,13.62l3.94-2.4c-6.61-4.35-10.7-11.54-14.84-18.06l-15.54-24.47c-1.81-2.87-6.31-.11-4.48,2.77l16.05,25.32c4.51,7.12,9.08,14.37,16.24,19.1a2.67,2.67,0,0,0,3.94-2.4c-.4-3.88,1.38-7.54,2.05-11.31a41.81,41.81,0,0,0,.43-8.59c-.17-5.63-1.15-11.56.21-17.11a16.46,16.46,0,0,1,4.55-8c.78-.74-.26-1.82-1.12-1.38Z"/>
    <path d="M436.07,643.74c.07,0,.06-.1,0-.1a.05.05,0,0,0,0,.1Z"/>
    <path d="M423.34,577.94c1.14-.24,3.64,18.63,3.79,20.47a84.51,84.51,0,0,1-.72,21.55c-.31,1.77,1.57,3.5,3.25,2.38a73.76,73.76,0,0,1,12.21-6.74c4.43-1.83,8.66-3.44,12.13-6.89s6.3-7.49,9.34-11.26c3.21-4,7.16-8,9.12-12.78.53-1.29-.75-3-2.16-2.06-4.19,2.9-7.14,7.39-10.29,11.33-3,3.74-5.82,7.74-9.15,11.18-3.14,3.25-7.13,4.62-11.17,6.4a59.41,59.41,0,0,0-12.31,7.12l3.32,1.8a108.43,108.43,0,0,0-.3-24.82,87.62,87.62,0,0,0-2.35-12.14,28.67,28.67,0,0,0-2-5.57c-.62-1.2-1.82-2.33-3.25-1.77a.94.94,0,0,0,.54,1.8Z"/>
    <path d="M472.58,673.57c.1,7.42.19,14.84.37,22.26l.13,5.44c0,1.62-.19,3.6.62,5.07,1.7,3.07,5.9,1.69,8.65,1.34a299.13,299.13,0,0,1,43.44-2.75c4.09.07,8.17.29,12.24.57q3.18.21,6.36.5a46.44,46.44,0,0,0,6.34.41,2.24,2.24,0,0,0,.48-4.39c-3.46-.85-7.29-.8-10.84-1s-6.85-.26-10.27-.3c-6.94-.07-13.88,0-20.81.31s-13.84.91-20.73,1.74c-3.47.42-6.91,1-10.37,1.51-.27,0-.55,0-.82.09s-.56-.14-.34.08c-.29-.3-.14-1.47-.15-1.83l-.24-5.43c-.35-7.92-.78-15.82-1.21-23.73a1.43,1.43,0,0,0-2.85.07Z"/>
    <path d="M474.22,674.92c4.82.16,9.6.22,14.42.15s9.76-.32,14.64-.5l29-1.07c2.65-.1,5.3-.18,7.94-.26l4.22-.13c1.43-.05,2.81.09,4.23.16l-2.1-2.62a65.85,65.85,0,0,0-.12,8.66c.06,2.86.19,5.72.42,8.57s.51,5.54.86,8.3.46,6.2,1.76,8.83c.78,1.58,3.68,1.2,3.91-.61.36-2.74-.43-5.6-.78-8.34s-.66-5.53-.89-8.3-.45-5.38-.61-8.07c-.17-2.85-.08-5.75-.39-8.58-.11-1.05-.95-2.22-2.16-2.07-2.41.32-4.76.53-7.19.65s-4.8.24-7.2.34l-14.64.62c-9.68.4-19.36.74-29,1.22-5.48.27-10.92.79-16.37,1.41a.82.82,0,0,0,0,1.64Z"/>
    <path d="M507.78,668.63a8,8,0,0,0,.22,1.83l.19.62a4.45,4.45,0,0,0,.32.8,3.53,3.53,0,0,0,.49.66,2.31,2.31,0,0,0,1,.54,2.28,2.28,0,0,0,1.16,0,2.15,2.15,0,0,0,1.49-1.57,3.45,3.45,0,0,0,.07-.85,6.19,6.19,0,0,0-.15-.86l-.15-.64a5.19,5.19,0,0,0-.45-1.06l-.29-.6-.34-.41a1.56,1.56,0,0,0-.68-.42,2,2,0,0,0-1.37-.07,2.52,2.52,0,0,0-.91.56,1.59,1.59,0,0,0-.42.69,1.5,1.5,0,0,0-.16.81Z"/>
  </g>
</svg>
