<svg xmlns="http://www.w3.org/2000/svg" width="972" height="1053" viewBox="0 0 972 1053">
  <title>guideline</title>
  <g id="head">
    <path d="M48.05,282.72c82.92,1.92,165.83-5.14,247.53-19.19a1393.68,1393.68,0,0,0,239.91-63.66,1392,1392,0,0,0,128.44-54.18l-5-1.89q43.67,136.77,87.31,273.55c28,88.22,54.68,177.08,86,264.23,17.15,47.79,36.21,94.61,58.84,140.06,1.88,3.78,7.34.32,5.55-3.43-39-81.54-68.2-167.43-95.9-253.32q-43.55-135-86.5-270.18L665.38,141.84a3.43,3.43,0,0,0-5-1.89,1381,1381,0,0,1-230.81,86.7,1388.58,1388.58,0,0,1-243.26,44.54q-69,6.35-138.38,6.68c-3.13,0-3,4.77.11,4.85Z"/>
    <path d="M51.5,282.27c13.28,48,29,95.43,44.29,142.85s30.87,94.82,46.72,142.09q47.3,141,97.88,280.94Q268.9,927,298.44,1005.44a3.45,3.45,0,0,0,4.2,2.25c82.15-23.74,166.77-36.75,250.59-52.9C631,939.82,708.65,922,781.64,890.7c39.56-17,77.44-37.83,111.93-63.67,3.9-2.93-.08-9.46-4-6.5-61.7,46.38-133.72,76.3-207.51,97.49-79.28,22.76-160.85,35.52-241.74,51-46.92,9-93.7,18.94-139.62,32.22l4.2,2.25q-52.69-140-102.12-281.18-49.12-140.4-95-281.93C90.59,387.22,74.57,333.62,56.44,280.77c-1.08-3.13-5.83-1.72-4.94,1.5Z"/>
    <g style="opacity: 0.400000005960465">
      <path d="M236.67,630.68c7.69-1.62,15.35-3.27,23-5.06s15.12-4,22.66-6.17c15.06-4.26,29.94-9.18,44.9-13.77q44.68-13.71,89.5-27,45-13.29,90.32-25.81,45-12.51,90.19-24.58c15.17-4,30.62-6.8,45.86-10.53s30.44-7.4,45.69-11c1.88-.45,3.86-.78,5.7-1.39a37.45,37.45,0,0,0,6.73-3.44,9.72,9.72,0,0,0,4.16-11,10,10,0,0,0-9.46-6.84,31.31,31.31,0,0,0-7.72.44c-1.91.41-3.79,1-5.67,1.5q-5.67,1.53-11.32,3.09-11.33,3.09-22.63,6.23c-15.09,4.19-30,8.83-44.94,13.55s-30.2,8.35-45.25,12.54-30.15,8.45-45.19,12.79q-45.12,13-90.06,26.64T333.4,588.63c-29.9,9.54-60.27,18.43-88.92,31.37L234,624.75c-1.48.67-1.84,2.81-1.24,4.13a3.31,3.31,0,0,0,3.91,1.8Z"/>
    </g>
    <g style="opacity: 0.400000005960465">
      <path d="M258.59,697c15.46-3.09,30.63-7.27,45.82-11.49s30.31-8.45,45.46-12.7q45.21-12.71,90.3-25.85c30.21-8.75,60.3-18,90.69-26.16s60.73-16.48,90.85-25.62c30-9.09,59.9-18.23,89.75-27.68,1.89-.59,3.82-1.11,5.67-1.83a25.42,25.42,0,0,0,6.18-3.88c2.67-2,4.57-5.41,3.36-8.86a8.13,8.13,0,0,0-7.64-5.52,27.81,27.81,0,0,0-6.88.21,62.69,62.69,0,0,0-6.14,1.83l-10.94,3.41c-7.58,2.36-15.17,4.71-22.74,7.11q-22.49,7.14-45,14.21Q582.51,588.3,538,603.36c-29.79,10.13-59.9,19.23-90,28.43s-60.19,18.32-90.33,27.36c-30,9-60.05,17.74-89.84,27.36-3.78,1.22-7.48,2.7-11.2,4.1a3.36,3.36,0,0,0,1.94,6.42Z"/>
    </g>
    <g style="opacity: 0.400000005960465">
      <path d="M301.29,777.28C330.16,769,359,760.71,387.76,752s57.42-17.66,86.24-26.12,57.65-16.9,86.44-25.46,57.64-16.93,86.34-25.77,57.13-17.62,85.7-26.4c3.64-1.12,7.29-2.19,10.94-3.28,4.76-1.41,8-7,6.34-11.83s-6.78-8-11.83-6.33c-28.51,9.45-57.19,18.42-85.79,27.59s-57.1,18.7-85.62,28.15-57,19-85.51,28.54-57.08,18.75-85.67,28-56.79,18.71-85.09,28.39l-10.82,3.7c-3.89,1.33-2.13,7.29,1.86,6.14Z"/>
    </g>
    <g style="opacity: 0.400000005960465">
      <path d="M324.24,870.52a32.92,32.92,0,0,0,5.54-.35c2-.46,4-1.25,6-1.86l11.2-3.46c7.33-2.26,14.66-4.49,22-6.8l44.28-14c29.66-9.39,59.29-18.9,89-28.16l44.35-13.81c14.77-4.6,29.49-9.45,44.36-13.74,29.9-8.63,59.78-17.3,89.58-26.24L725,748.73c14.84-4.46,29.91-8,44.71-12.58,2.74-.85,5.53-1.6,7.79-3.43,1.88-1.53,3.1-3.74,4.43-5.76a7.27,7.27,0,0,0,.21-6.8c-1-2.33-2.73-3.39-5-4.29-2.09-.81-4.09-1.76-6.4-1.71-2.73.07-5.39,1.16-8,2-3.71,1.23-7.44,2.41-11.1,3.8-7.17,2.72-14.3,5.65-21.57,8.11l-44,14.88q-44,14.89-87.9,30.24C569,783.42,539.38,792.72,510,802.33s-58.95,19-88.43,28.49-59,18.95-88.39,28.64c-1.85.61-3.73,1.16-5.57,1.83a27.68,27.68,0,0,0-5.16,3c-2.74,1.74-1.55,6.37,1.84,6.2Z"/>
    </g>
    <g style="opacity: 0.400000005960465">
      <path d="M169.15,426.35l.88.18-.91-.67c1.69,3.43,5.49,2.53,8.58,2.09l7.43-1.09q7.88-1.17,15.74-2.44Q216,422,231.05,419.14c20-3.77,39.94-8.37,59.72-13.37q8.24-2.08,16.45-4.29c2.81-.75,5.62-1.52,8.43-2.29,1.39-.39,2.85-.69,4.2-1.22s2.69-1.18,4-1.77c2-.89,3.4-2.56,3-4.9-.31-1.94-2.25-4-4.41-3.7a63.78,63.78,0,0,0-8.36,1.56c-2.41.69-4.83,1.36-7.25,2q-7.36,2-14.76,4-14.79,3.88-29.68,7.39-29.74,7-59.77,12.85-8.33,1.6-16.68,3.09-4.29.76-8.6,1.5c-3.26.55-7.81.63-8.46,4.7l.67-.91-.79.42a1.18,1.18,0,0,0,.33,2.13Z"/>
    </g>
    <g style="opacity: 0.400000005960465">
      <path d="M220.76,538.67Q264.35,530,307.64,520T394,498.82q21.44-5.54,42.8-11.37c14.26-3.89,28.86-6.5,43.08-10.52q42.88-12.12,85.23-25.89,21.11-6.82,42.11-13.94,10.61-3.6,21.19-7.26c7-2.43,14.25-4.62,21.15-7.4a26,26,0,0,0,5.49-3.13,23,23,0,0,0,4.43-4.7c2.2-2.82,1.56-7.43-2.41-8.31a25.51,25.51,0,0,0-12.43-.12c-3.62,1-7.21,2.6-10.74,3.86q-10.35,3.7-20.73,7.33-21.15,7.39-42.39,14.5c-28.16,9.42-56.47,18.42-84.79,27.33-14.11,4.44-28,9.39-42,14.23-7,2.42-14.3,4.25-21.44,6.3s-14.05,4-21.09,6c-28.53,8-57.16,15.63-85.93,22.71s-57.58,13.77-86.47,20.2L218.43,531a4.06,4.06,0,0,0-2.68,5,4.11,4.11,0,0,0,5,2.69Z"/>
    </g>
    <path d="M542.42,257a59.33,59.33,0,0,0-9.17,67.65,56.12,56.12,0,0,0,25.85,23.89,61.11,61.11,0,0,0,35.07,5.17,57,57,0,0,0,32.65-17.6,60.19,60.19,0,0,0,10.84-15.85,54.49,54.49,0,0,0,4.63-17.72c1.07-11.79-2.1-24-7.89-34.28s-14.69-18.94-25.5-23.75a57.92,57.92,0,0,0-35.26-3.39A60.08,60.08,0,0,0,543,257.68c-1,1-1.87,2-2.72,3a11,11,0,0,0-1.32,2.11,15.87,15.87,0,0,1-.94,2,1.8,1.8,0,1,0,3.16,1.74c-.45.65.36-.23.47-.33l.75-.68a16.44,16.44,0,0,0,1.48-1.41c1-1.11,1.93-2.22,3-3.27a48.07,48.07,0,0,1,5.92-5.13,54,54,0,0,1,14.48-7.5A55.24,55.24,0,0,1,599,246.87a48.79,48.79,0,0,1,26.29,17.58,56.72,56.72,0,0,1,11.55,29.72,53.14,53.14,0,0,1-7.73,32A50.11,50.11,0,0,1,617,339.41a52.71,52.71,0,0,1-15.72,8.47c-21.1,6.95-46.37-.5-60.23-17.91-14.45-18.14-15-45.59-2.6-64.92a51.22,51.22,0,0,1,5.28-6.83.9.9,0,0,0-1.31-1.24Z"/>
    <path d="M532.54,250.52c-10.36,9.89-16.07,24.3-17.66,38.36a68.82,68.82,0,0,0,8.1,41.68,67.49,67.49,0,0,0,30.88,27.6A69.21,69.21,0,0,0,595,363.43c13.93-2.63,26.65-10.3,36.16-20.73a69,69,0,0,0,17.73-37.84,65.61,65.61,0,0,0-9-41,69.11,69.11,0,0,0-31.21-28.07,64.83,64.83,0,0,0-41.5-3.2,69.13,69.13,0,0,0-35.53,21.52,65,65,0,0,0-6.1,8.36c-1.17,1.92,1.88,3.6,3,1.69a63.35,63.35,0,0,1,30.17-25.11c12.4-5,26.28-6.49,39.34-3.22a63.08,63.08,0,0,1,33.24,21.72,64.79,64.79,0,0,1,14.57,37.1c.67,13.52-3.58,26.89-11.1,38.07a65.73,65.73,0,0,1-31.14,24.9,63,63,0,0,1-39.37,1,67.23,67.23,0,0,1-33.09-21.57,62.76,62.76,0,0,1-13.72-37.68,69.82,69.82,0,0,1,10.56-39.16,85.14,85.14,0,0,1,5.95-8.29,1,1,0,0,0-1.49-1.42Z"/>
    <path d="M561.72,303.51l-1.23-1.34.18,1.16.11-.25-3.09.89q14.4,10.23,28.82,20.42c1.73,1.22,3.55-.6,3.71-2.25a370.6,370.6,0,0,1,8.32-51.06q1.71-7.26,3.73-14.44c.9-3.25-4.19-4.51-5.08-1.27a368.05,368.05,0,0,0-10.39,51.87q-.94,7.49-1.58,15l3.71-2.24q-14.5-10-29-20c-1.47-1-3.41.45-3.37,2a2.28,2.28,0,0,0,3.46,1.88l.35-.23-1,0,1.48,1c.74.5,1.43-.6.88-1.19Z"/>
    <path d="M539.1,232.31c4.57-5.51,8.86-11.28,13-17.12l-1.92.56A41,41,0,0,0,588,214.16a38.08,38.08,0,0,0,8.74-6.89l-2.42-.25c6.88,14.09,22.36,23,37.86,23.14a39.08,39.08,0,0,0,13-2.07l-2-1.88c-1.71,13.3,5.55,26.73,17.08,33.37a30.43,30.43,0,0,0,10.49,3.73l-.77-2.63a30.55,30.55,0,0,0-9.19,19.4,29.52,29.52,0,0,0,5.69,19.82c2.33,3.18,5.22,6.16,8.87,7.76,1.23.53,2.71-1.06,1.5-2.05a46.66,46.66,0,0,1-6.89-6.36,27.27,27.27,0,0,1-4.58-8.12,26.45,26.45,0,0,1,.58-19.08,27.37,27.37,0,0,1,6.32-9.18,1.6,1.6,0,0,0-.76-2.64c-12-1.86-21.74-11.6-24.66-23.23a26.91,26.91,0,0,1-.65-10c.14-1.11-.73-2.3-2-1.88-13.87,4.76-29.91.45-40.25-9.76a36.62,36.62,0,0,1-7.13-9.92,1.54,1.54,0,0,0-2.42-.25,38.25,38.25,0,0,1-33,11.11,35.55,35.55,0,0,1-9.92-3,1.47,1.47,0,0,0-1.93.55c-4,5.79-7.9,11.71-11.45,17.79-.34.57.51,1.22.94.7Z"/>
    <path d="M675.05,307.1a30.4,30.4,0,0,0-4.28,1.92,22,22,0,0,0-3.91,3.09,31.29,31.29,0,0,0-5.87,7.66,30.94,30.94,0,0,0,1.4,31.51l1.18-2.19c-8.63.87-17.49,1.74-25.57,5.12-7.07,2.94-13.42,7.84-17.09,14.68-1.91,3.57-3.33,8-2.61,12.07.3,1.67,2.54,1,2.69-.43.36-3.42.76-6.54,2.35-9.67a27.65,27.65,0,0,1,6.2-7.9c5.68-5.09,13.13-7.58,20.49-9.06,4.49-.91,9.06-1.42,13.62-1.94a1.45,1.45,0,0,0,1.18-2.19,27.94,27.94,0,0,1,1.85-33.95,30.61,30.61,0,0,1,4.09-4,41.1,41.1,0,0,1,4.79-3.64c.6-.35.16-1.4-.51-1.12Z"/>
    <path d="M621.94,376.73c-2.46-2-6.23-2.62-9.31-3a44.4,44.4,0,0,0-10.11-.28,46.59,46.59,0,0,0-19,6,42.57,42.57,0,0,0-4.64,3.1c-1.43,1.1-3.39,2.38-4.24,4a1.53,1.53,0,0,0,2.13,2c1.32-.68,2.4-2,3.57-3a40.11,40.11,0,0,1,3.82-2.66,42.35,42.35,0,0,1,8.35-4A45.26,45.26,0,0,1,611,376.65a49.06,49.06,0,0,1,5.12.79,28.19,28.19,0,0,0,5.22.88.93.93,0,0,0,.61-1.59Z"/>
    <path d="M574.81,390a34.46,34.46,0,0,0-13.53-15.93,35.06,35.06,0,0,0-22.3-5,33.71,33.71,0,0,0-13,4l2.07,2,.92-1.27c.7-1-.68-2-1.57-1.5l-1.42.8c-1.68.95-.13,3.35,1.55,2.52A34.22,34.22,0,0,1,549,372.14a34.52,34.52,0,0,1,24.16,18.61c.44.91,2,.21,1.63-.74Z"/>
    <path d="M529.57,372.77a38.11,38.11,0,0,0,.29-12.74,40.69,40.69,0,0,0-3.68-12.26A31.53,31.53,0,0,0,508.66,332a25.49,25.49,0,0,0-13.1-1.08c-2.21.39-1.08,4.23,1,3.34.66-.28,1.28-.61,1.91-.95a.91.91,0,0,0,0-1.56c-.64-.31-1.28-.6-1.95-.85l.08,3.36c6.89-1.26,14.07,1.3,19.35,5.71,5.84,4.87,9.26,11.94,10.74,19.3a44.74,44.74,0,0,1,.79,6.64c.1,2.22.33,4.43.34,6.65a.91.91,0,0,0,1.78.2Z"/>
    <path d="M498.57,331.76c5.62-4.64,8.64-12.2,9.45-19.29a34.8,34.8,0,0,0-11.84-30.17c-1.9-1.65-4.62,1.19-2.7,2.84a31.16,31.16,0,0,1,9.39,34,48.81,48.81,0,0,1-6,11.39c-.72,1.09.85,1.94,1.69,1.24Z"/>
    <path d="M494.2,284.26c11.89-8,19.24-21.26,20.66-35.44a45.61,45.61,0,0,0,.21-6c-.06-2.11,0-4.22-1.55-5.82a1.19,1.19,0,0,0-1.85.28c-.8,1.65-.5,3.12-.37,4.89a45.2,45.2,0,0,1-1.38,14.68,49.58,49.58,0,0,1-8.67,17.61,45.06,45.06,0,0,1-8,8.17c-.92.72,0,2.28,1,1.59Z"/>
    <path d="M513.16,237.92a35.25,35.25,0,0,0,25-6.31c2.4-1.72,4.9-3.73,6.38-6.33.65-1.16-.88-2.14-1.8-1.31-2.06,1.85-3.79,4-6,5.67a33.13,33.13,0,0,1-23.39,6.69c-.89-.09-1.08,1.48-.17,1.59Z"/>
    <g style="opacity: 0.400000005960465">
      <path d="M553.25,248.24a60.13,60.13,0,0,1,14.28-5.74c1.13-.31,2.28-.58,3.43-.82,1.51-.3,2.12-.39,3.64-.58a56,56,0,0,1,7.65-.43c1.18,0,2.35.07,3.53.16a33.08,33.08,0,0,1,3.31.36,65.09,65.09,0,0,1,7.56,1.59c1.25.34,2.49.71,3.72,1.13.51.17,1,.35,1.52.54l.92.34c.36.14.4.15.12,0l.6.25a65.53,65.53,0,0,1,7,3.39,56.14,56.14,0,0,1,11.88,8.71,58.54,58.54,0,0,1,5.32,5.7c-.42-.51.24.32.26.35l.6.77,1,1.31c.82,1.15,1.59,2.33,2.32,3.54,7.06,11.68,9.68,26.59,7.74,40a58.3,58.3,0,0,1-2.41,10.19c-.48,1.43-.79,2.26-1.25,3.34q-.91,2.14-2,4.2A48,48,0,0,1,623.62,340c-1.08,1-2,1.77-2.86,2.43q-1.87,1.44-3.88,2.71a58.35,58.35,0,0,1-8.65,4.5,66.18,66.18,0,0,1-9.77,3.24,50.5,50.5,0,0,1-9.73,1.48c-1.72.1-3.45.14-5.17.09-.72,0-1.44-.05-2.15-.09l-1.3-.09c-.15,0-1.59-.17-1.1-.11A61.93,61.93,0,0,1,568.75,352,58.31,58.31,0,0,1,551,343.3c.66.48-.39-.29-.42-.32l-.94-.73c-.62-.49-1.24-1-1.85-1.51q-1.81-1.55-3.54-3.22c-1.09-1.06-2.15-2.17-3.17-3.31q-.74-.81-1.44-1.65c0-.05-.87-1.06-.33-.39l-1-1.26a66.68,66.68,0,0,1-5.23-8c-.7-1.28-1.35-2.58-2-3.89s.32.78-.19-.42c-.16-.38-.33-.77-.48-1.15-.35-.85-.68-1.71-1-2.57a54.17,54.17,0,0,1-1.6-5.27q-.33-1.27-.57-2.55c0-.26-.1-.51-.14-.77-.09-.52-.09-.51,0,0,0-.26-.07-.51-.11-.77a55.46,55.46,0,0,1-.46-9.2c0-.77.07-1.53.13-2.3,0-.38.06-.76.09-1.14,0-.19.1-.87,0,0,.2-1.65.45-3.29.78-4.92a65.24,65.24,0,0,1,2.45-8.88c.21-.6.44-1.2.67-1.8-.36.94.1-.25.15-.37.14-.35.29-.71.44-1.06.61-1.42,1.27-2.81,2-4.18a74.08,74.08,0,0,1,4.67-7.92c.42-.63.86-1.25,1.3-1.87.74-1-.53.69.24-.31.23-.3.45-.6.69-.9q1.38-1.78,2.87-3.48a73.84,73.84,0,0,1,6.25-6.26c1-.88,1.93-1.79,2.87-2.7a15.91,15.91,0,0,0,3-3.59L554,245.91l.29-.2a3.24,3.24,0,0,0-3.41-5.51l-.29.2,1.63-.48c-3.49.42-6.72,2.77-9.3,5a68,68,0,0,0-6.5,6.54,78.93,78.93,0,0,0-11,16.35c-6,11.85-9.06,25.5-7,38.73,2.23,14.3,9.94,27.46,20.39,37.34a64.87,64.87,0,0,0,17.34,12A70.24,70.24,0,0,0,578.59,362,66.5,66.5,0,0,0,621,351.13a58.28,58.28,0,0,0,23.1-30.35c4.9-14.76,4-31.73-1.77-46.12a62.8,62.8,0,0,0-22-27.79A65.55,65.55,0,0,0,590,235c-11-1.27-22.75,0-32.33,5.84a54.18,54.18,0,0,0-6.55,4.73c-1.54,1.29.53,3.6,2.16,2.65Z"/>
    </g>
    <g style="opacity: 0.1">
      <path d="M543.08,207.35c-.36.66-.74,1.32-1.15,2-.18.28-.37.55-.55.82s-.46.58,0,0l-.38.49a21.35,21.35,0,0,0-1.71,2.51l-.54.83-.38.54c.17-.25.43-.56.1-.13a39.73,39.73,0,0,1-3,3.43c-.55.55-1.11,1.08-1.69,1.59a3.59,3.59,0,0,1-.76.65c.77-.35.55-.43.21-.18l-.52.4a34.08,34.08,0,0,1-3.91,2.5c-.68.38-1.41.68-2.08,1.06,0,0,1-.43.49-.23l-.46.19c-.4.17-.81.33-1.23.49a42,42,0,0,1-4.43,1.37c-.73.18-1.55.24-2.27.47,0,0,1.26-.16.65-.11-.16,0-.32,0-.48.06-.44.06-.88.1-1.32.14-1.77.14-3.49-.07-5.26,0,0,0,1.28.2.69.07-.27-.06-.55-.08-.82-.12l-1.14-.21a27.89,27.89,0,0,1-2.72-.72,5.64,5.64,0,0,0-5.5,1.6,6,6,0,0,0-1.33,5.57c.05.23.07.49.13.73,0,0-.18-1.25-.09-.6.06.43.12.85.17,1.28q.18,1.47.27,2.94a50.26,50.26,0,0,1,0,5.35c0,.86-.12,1.72-.18,2.58-.05.66.08-.67.07-.63,0,.24-.05.49-.08.73l-.21,1.46a52.22,52.22,0,0,1-1.16,5.42c-.46,1.73-1,3.42-1.65,5.11-.27.73.46-1.11.15-.4l-.21.52c-.16.4-.33.79-.51,1.19-.38.84-.77,1.68-1.19,2.5a44.09,44.09,0,0,1-2.89,4.74c-.14.2-1,1.41-.39.57l-.42.55c-.56.72-1.15,1.44-1.75,2.13a48.59,48.59,0,0,1-4.26,4.35c-.37.33-.74.66-1.12,1-.18.16-.39.31-.56.48.16-.15,1.13-.9.44-.37q-1.32,1-2.67,2a6.79,6.79,0,0,0-1.09,10.5c.28.31.56.62.83.94,1,1.18-.74-1-.06-.07s1.15,1.52,1.69,2.32a41.08,41.08,0,0,1,2.68,4.64c.13.25.77,1.64.25.5s.1.23.21.52c.37.88.7,1.77,1,2.68a43.28,43.28,0,0,1,1.37,5c.09.41.17.82.25,1.23,0,.22.1.48.12.71,0,0-.27-1.85-.12-.74.11.89.22,1.78.3,2.68a46,46,0,0,1,.13,5.38c0,.84-.09,1.68-.16,2.51-.15,1.62.18-1.39,0-.22-.06.47-.12.94-.2,1.41a42.67,42.67,0,0,1-1.18,5.24c-.28,1-.6,1.94-.95,2.89-.52,1.39.57-1.38,0,0q-.32.74-.66,1.47a40.1,40.1,0,0,1-3,5.29c-2.94,4.38,1.28,10.75,6.31,10.39a26.71,26.71,0,0,1,4.56.06l-1.87-.2a28.2,28.2,0,0,1,4.45.86c.73.21,1.44.46,2.16.72.52.19.22.07-.89-.36l.64.28,1,.44a30.49,30.49,0,0,1,3.95,2.29c.44.31,1.37,1.13-.32-.25l.83.65c.59.48,1.17,1,1.72,1.51s1.1,1.07,1.62,1.63c.23.26.46.53.7.79.91,1-1.08-1.42-.27-.33a34.27,34.27,0,0,1,2.52,3.8c.34.61.63,1.25,1,1.87-1.1-2-.37-.82-.15-.26.16.38.3.76.43,1.15a25.75,25.75,0,0,1,1.1,4.4l-.3-1.91c.46,3.13.25,6.3.49,9.44.35,4.54,1.46,8.61,4.44,12.13s8.09,5.23,12.74,4.86c4.19-.33,8.08-1.84,12.19-2.55l-1.94.31a27.24,27.24,0,0,1,6.87-.19l-2-.21a30.45,30.45,0,0,1,3.56.62c1.16.28,2.3.84,3.46,1.07-.11,0-1.7-.7-.8-.31l.95.42c.52.24,1,.5,1.54.77,1.07.58,2.08,1.24,3.09,1.92.66.44-1.56-1.23-.54-.39l.67.53c.44.37.88.75,1.3,1.14s.91.88,1.34,1.34,1.62,2.1.16.1c.68.93,1.37,1.83,2,2.82a18.56,18.56,0,0,0,2,2.72c.14.16.47.42.54.61l-.69-.86.42.54c1.75,2.29,4.63,3.92,7.59,2.88a7.76,7.76,0,0,0,2.89-1.79,6.57,6.57,0,0,0,1.83-4.75,17.19,17.19,0,0,0-2.09-7.09,36.49,36.49,0,0,0-3.72-4.94,35.81,35.81,0,0,0-28.73-11.79c-4.49.38-8.63,2-13,2.71l1.93-.31a15,15,0,0,1-3.54.14l1.94.21c-.51-.07-1-.19-1.49-.3-.71-.24-.49-.14.68.28a5.7,5.7,0,0,1-.69-.37c-.5-.33-.45-.28.15.14s.64.47.24.14c-.16-.14-.31-.29-.46-.45q-.72-.81.57.72c-.17-.36-.45-.71-.65-1.06-.58-1,.64,1.75.27.55a22,22,0,0,1-.64-2.54l.31,1.92c-.56-3.57-.21-7.21-.68-10.78a35.62,35.62,0,0,0-4.32-13.17,37.89,37.89,0,0,0-19.79-16.43,31.32,31.32,0,0,0-13.56-1.89l6.31,10.38a49.08,49.08,0,0,0,7.54-24.25,52.12,52.12,0,0,0-5.1-24.87,46.18,46.18,0,0,0-8-11.69l-1.09,10.49c13.77-10.14,22.08-27.12,23.11-44A53.72,53.72,0,0,0,512.46,229l-6.83,7.17c14.79,4.27,31.4-2.65,39.52-15.54a32.18,32.18,0,0,0,2.67-5.35c.09-.23.42-2.39.29-1.41-.09.68.06-.37.06-.41.1-.64.17-1.3.23-1.95a26.87,26.87,0,0,0,.14-2.84c0-2.89-4.1-3.85-5.46-1.33Z"/>
    </g>
    <g style="opacity: 0.1">
      <path d="M598.68,334.19c-.43-2.28-.47-4.24-.73-6.64a48.93,48.93,0,0,0-2-7.88c-1.34-4.71-2.72-9.41-4.1-14.11-2.73-9.31-6.07-18.46-9.2-27.65Q580,270,577.18,262.14c-1.31-3.72-5.44-6.44-9.41-5-3.67,1.29-6.49,5.44-5,9.41,3.37,9.21,6.84,18.39,10.31,27.57,1.77,4.67,3.45,9.38,5.41,14s3.85,9.07,5.82,13.58c1.22,2.78,2.27,5.72,3.69,8.39a30.65,30.65,0,0,0,2.23,3.21,38.75,38.75,0,0,1,2.26,3.77,3.43,3.43,0,0,0,4.33,1.3,3.51,3.51,0,0,0,1.9-4.11Z"/>
    </g>
    <g style="opacity: 0.23">
      <path d="M599.64,327.08c-3.93,1-8.61,2.47-12.62,1.08a6.88,6.88,0,0,1-3.25-2.61s-.26-.48-.13-.21-.12-.33-.14-.39-.19-.74-.12-.37,0-.2,0-.22a3.3,3.3,0,0,1,.31-1.78,7.52,7.52,0,0,1,1.47-2c.7-.75,1.47-1.43,2.24-2.11,1.88-1.63,3.79-3.24,5.68-4.86,3.45-3,7.53-6.2,6.71-11.31-.7-4.36-4.88-7.56-9.11-8.12-4.93-.65-9.57,1.52-14.21,1.77a21.42,21.42,0,0,1-11.6-2.61,12,12,0,0,1-4.16-3.3c.32.39-.07-.1-.11-.16s-.29-.41-.42-.62-.25-.43-.37-.64-.28-.65-.07-.11a9.65,9.65,0,0,1-.37-1.19c-.15-.57,0,.56,0,0a8.23,8.23,0,0,1,0-.86c-.06.87.35-.79,0-.13a5.71,5.71,0,0,1,.35-.64c-.31.5.09-.11.19-.22s.34-.35.52-.51c.44-.4-.65.36.26-.19.43-.26.85-.54,1.29-.77.22-.13.45-.23.68-.35,1.06-.55-.32.13.3-.15l1.84-.77c1.24-.51,2.5-1,3.76-1.49,2.59-1,5.21-1.91,7.85-2.76,1.36-.44,2.73-.85,4.09-1.28a7.35,7.35,0,0,0,4.33-2.92l-1.07,1.12c.79-.47,1.5-1,2.27-1.51a2.16,2.16,0,0,0-1.17-4c-.93-.06-1.86-.19-2.79-.19l1.56.38a6.59,6.59,0,0,0-4.86-.28c-1.38.36-2.75.78-4.11,1.21-2.57.82-5.11,1.71-7.64,2.66s-4.86,1.87-7.23,2.94a15.11,15.11,0,0,0-5.73,4c-3.7,4.6-2.34,10.34,1.23,14.53,3.07,3.6,7.79,5.9,12.3,7.08A30.74,30.74,0,0,0,583,302c1.19-.29,2.38-.62,3.6-.83a12.25,12.25,0,0,1,1.33-.15c.31,0,.61,0,.92,0,.11,0,1.19.08.79,0a4.78,4.78,0,0,1,3.24,2c.26.49-.18-.45,0,.06,0,.09.19.74.12.32s0,.25,0,.36c0,.55.12-.46,0,.12s.19-.34-.05.2a3.88,3.88,0,0,1-.35.63c-.31.51.24-.27-.13.2-.2.24-.41.47-.63.7-1.76,1.83-3.81,3.41-5.73,5.07-3.52,3.06-8.07,6.23-9.18,11.06-1.29,5.64,2.87,10.45,8,12.19,5.71,1.95,11.32-1.06,16-4.1a1.49,1.49,0,0,0-1.21-2.69Z"/>
    </g>
  </g>
</svg>
