<?xml version="1.0" encoding="UTF-8" standalone="no"?>
<!-- Generator: Adobe Illustrator 24.1.1, SVG Export Plug-In . SVG Version: 6.00 Build 0)  -->

<svg
   xmlns:dc="http://purl.org/dc/elements/1.1/"
   xmlns:cc="http://creativecommons.org/ns#"
   xmlns:rdf="http://www.w3.org/1999/02/22-rdf-syntax-ns#"
   xmlns:svg="http://www.w3.org/2000/svg"
   xmlns="http://www.w3.org/2000/svg"
   xmlns:sodipodi="http://sodipodi.sourceforge.net/DTD/sodipodi-0.dtd"
   xmlns:inkscape="http://www.inkscape.org/namespaces/inkscape"
   version="1.1"
   id="Layer_1"
   x="0px"
   y="0px"
   viewBox="0 0 915.15106 636.87738"
   xml:space="preserve"
   sodipodi:docname="observation_chart_original.svg"
   width="915.15106"
   height="636.87738"
   inkscape:version="0.92.3 (2405546, 2018-03-11)"><metadata
   id="metadata189"><rdf:RDF><cc:Work
       rdf:about=""><dc:format>image/svg+xml</dc:format><dc:type
         rdf:resource="http://purl.org/dc/dcmitype/StillImage" /><dc:title></dc:title></cc:Work></rdf:RDF></metadata><defs
   id="defs187" /><sodipodi:namedview
   pagecolor="#ffffff"
   bordercolor="#666666"
   borderopacity="1"
   objecttolerance="10"
   gridtolerance="10"
   guidetolerance="10"
   inkscape:pageopacity="0"
   inkscape:pageshadow="2"
   inkscape:window-width="1920"
   inkscape:window-height="1019"
   id="namedview185"
   showgrid="false"
   fit-margin-top="100"
   fit-margin-left="100"
   fit-margin-right="100"
   fit-margin-bottom="100"
   inkscape:zoom="0.38879736"
   inkscape:cx="105.23415"
   inkscape:cy="327.88329"
   inkscape:window-x="0"
   inkscape:window-y="0"
   inkscape:window-maximized="1"
   inkscape:current-layer="Layer_1" />
<style
   type="text/css"
   id="style2">
	.st0{fill:#333333;}
	.st1{opacity:0.2;}
	.st2{fill:#B3B3B3;}
	.st3{fill:#0071BC;}
	.st4{fill:#ED1C24;}
	.st5{fill:#009245;}
	.st6{fill:none;stroke:#666666;stroke-width:1.6992;}
	.st7{enable-background:new    ;}
	.st8{fill:#030072;}
</style>
<g
   id="Layer_40"
   transform="translate(-9.4650037,5.4941045)">
	<path
   class="st0"
   d="m 235.7,529.5 c 40.7,0.2 81.3,-0.2 122,-0.7 40.7,-0.5 81.3,-1.4 121.9,-2.1 40.6,-0.7 81.3,-1.4 121.9,-2.1 40.8,-0.7 81.7,-1.4 122.5,-2.1 l 30.1,-0.5 c 9.7,-0.2 19.4,0 29.1,-0.7 8.3,-0.7 17.3,-2.4 24.1,-7.5 5.8,-4.4 10.4,-10.8 11.3,-18.1 0.4,-3.4 -0.3,-6.8 -1.9,-9.9 -1.3,-2.6 -4.8,-0.5 -4.3,1.9 1.4,6.9 -1.7,14 -6.7,18.7 -6.1,5.8 -15,7.6 -23.1,8.2 -9.3,0.7 -18.7,0.6 -28,0.7 l -29.5,0.5 -119,2.2 c -39.5,0.8 -79,1.5 -118.5,2.2 -39.5,0.7 -79,1.3 -118.5,2.2 -39.5,0.9 -79,1.7 -118.4,3.3 l -15,0.6 c -0.9,0.1 -1.5,0.9 -1.4,1.7 0,0.9 0.6,1.5 1.4,1.5 z"
   id="path4"
   inkscape:connector-curvature="0"
   style="fill:#333333" />
	<path
   class="st0"
   d="m 814.1,492.3 c 1.2,-6.1 1.4,-12.3 1.8,-18.4 0.4,-6.1 0.9,-12.6 1.3,-18.9 0.8,-12.3 1.5,-24.7 2.2,-37 1.3,-24.7 2.4,-49.4 3.1,-74.1 0.7,-24.7 1.3,-49.4 1.6,-74.1 0.1,-12.4 0.2,-24.7 0.2,-37.1 0,-12.4 0.4,-24.7 0.3,-37.1 -0.1,-28 -1,-56 -1.9,-84 -0.1,-4.1 -6.5,-3.9 -6.3,0.2 1,25 1.5,49.9 2,74.9 0.3,12.4 0.6,24.7 0.9,37.1 0.3,12.4 0.3,24.7 0.2,37.1 -0.1,49.4 -1.2,98.9 -3.5,148.3 -0.6,13.8 -1.3,27.7 -2.1,41.6 -0.4,6.8 -0.8,13.6 -1.2,20.4 -0.4,7 -1.2,14.1 -0.8,21.1 0.1,1 1.9,1.3 2.2,0 z"
   id="path6"
   inkscape:connector-curvature="0"
   style="fill:#333333" />
	<path
   class="st0"
   d="M 819.4,110.6 C 807.4,100 790.6,96 774.9,95 c -18.5,-1.2 -37.3,0.1 -55.9,0.6 -41.2,1.2 -82.4,2.6 -123.6,3.9 l -123.6,3.9 -123.6,3.9 -123.6,3.9 -15.2,0.5 c -4,0.1 -3.9,6.4 0.1,6.3 l 122.4,-3.9 122.4,-3.9 122.4,-3.9 122.4,-3.9 c 19.5,-0.6 39,-1.6 58.4,-1.9 16.6,-0.3 33.6,0.4 49.4,6 4,1.5 7.8,3.2 11.6,5.1 0.8,0.5 1.5,-0.4 0.9,-1 z"
   id="path8"
   inkscape:connector-curvature="0"
   style="fill:#333333" />
	<path
   class="st0"
   d="m 236,525.2 c -8.2,3.6 -17.5,3.7 -25.8,0.3 -8.9,-3.7 -15.6,-10.8 -20.2,-19.1 -5,-9 -7.5,-19.3 -9.3,-29.4 -2.2,-12.2 -3.6,-24.5 -4.2,-36.9 -0.3,-6.9 -0.4,-13.8 -0.3,-20.8 0.1,-3.5 0.2,-7 0.4,-10.5 0.1,-1.8 0.2,-3.6 0.3,-5.4 0.1,-1.8 0,-3.6 -0.2,-5.3 0,-0.9 -0.8,-1.7 -1.8,-1.6 -0.7,0 -1.4,0.5 -1.6,1.2 -0.5,1.6 -0.9,3.2 -1.1,4.9 -0.2,1.6 -0.3,3.3 -0.4,4.9 -0.2,3.3 -0.3,6.5 -0.4,9.8 -0.2,6.5 -0.2,13 0.1,19.5 0.5,13.1 1.9,26.1 4.1,39 1.9,10.8 4.4,21.6 9.5,31.4 2.4,4.8 5.6,9.2 9.4,13 3.5,3.4 7.6,6.1 12.1,8 9.4,4 21.8,5.2 29.8,-2.2 0.4,-0.3 0.1,-1 -0.4,-0.8 z"
   id="path10"
   inkscape:connector-curvature="0"
   style="fill:#333333" />
	<path
   class="st0"
   d="m 152.7,344.5 c -3.2,-1 -6.3,-2.4 -9.4,-3.8 -3.2,-1.4 -6.2,-3 -9,-5 -5.5,-3.9 -10.1,-8.9 -13.6,-14.6 -3.5,-5.7 -5.6,-12.2 -6,-18.9 -0.2,-6.2 1.7,-13 7.9,-15.6 6.2,-2.6 13.2,-1.6 19.6,-2.7 3.3,-0.5 6.4,-1.7 9.1,-3.7 2.9,-2.3 5,-5.5 6,-9.1 2.3,-7.8 0.1,-15.8 -1.5,-23.4 -0.9,-4.2 -1.7,-8.7 -0.9,-13.1 0.6,-3 1.9,-5.9 3.9,-8.3 4.4,-5.2 10.4,-8.7 17,-10 8.8,-1.9 18,-0.3 26.7,1.6 2.3,0.5 4.6,1.1 6.9,1.6 l -2.1,-2.6 -1,71.5 -1,71.2 -0.3,20 c -0.1,6.7 0,13.5 -0.4,20.3 l 2.1,-3 c -11.1,3.4 -22.9,2.6 -33.1,-3.4 -15.6,-9.6 -22.4,-28.8 -16.3,-46.1 0.4,-1.7 -0.6,-3.4 -2.3,-3.8 -1.7,-0.4 -3.3,0.6 -3.8,2.3 -4.3,12.3 -2.6,26.4 3.9,37.6 6.8,11.4 18.3,19.1 31.4,21.1 7.3,1.1 15.1,0.8 22,-2 1.3,-0.4 2.1,-1.6 2.1,-3 -0.2,-6 0.1,-12 0.1,-18 l 0.2,-17.8 0.4,-35.7 0.9,-71.2 0.5,-40.2 c 0,-1.2 -0.9,-2.3 -2.1,-2.6 -16.8,-4.1 -36.4,-8 -51.1,3.9 -6.3,5 -10.2,12 -10.3,20.1 -0.1,8.9 4,17.2 3.8,26.1 0.1,3.4 -0.9,6.8 -2.8,9.6 -1.9,2.4 -4.6,4 -7.6,4.6 -6.7,1.6 -13.9,0.5 -20.5,2.8 -3.5,1.1 -6.6,3.3 -8.8,6.3 -2.2,3.2 -3.5,6.9 -3.7,10.8 -0.7,7.4 1.4,14.9 4.5,21.4 6.2,12.9 18.6,24 32.8,26.8 1.8,0.3 3.6,0.4 5.4,0.3 0.6,0 1.1,-0.6 1.1,-1.2 0.1,-0.5 -0.2,-0.9 -0.7,-1.1 z"
   id="path12"
   inkscape:connector-curvature="0"
   style="fill:#333333" />
	<path
   class="st0"
   d="m 150.3,321.4 c -4.9,1.3 -10,0.4 -14.1,-2.5 -3.9,-2.8 -5.8,-7.5 -4.1,-11.9 2,-4.6 6.4,-7.7 11.4,-8 4.8,-0.1 8.4,3.1 9.7,7.5 0.8,2.4 0.8,5.1 0.1,7.5 -0.4,1.2 -0.8,2.3 -1.5,3.4 -0.5,1.2 -1.2,2.4 -1.9,3.5 -0.5,0.6 -0.5,1.4 0.1,1.9 0.3,0.3 0.8,0.4 1.3,0.3 1.5,-0.4 2.9,-1.2 4.1,-2.3 1.1,-1.3 2,-2.8 2.5,-4.4 1,-3 1.2,-6.2 0.7,-9.3 -1.1,-6.4 -5.8,-12.1 -12.4,-13 -7.1,-0.8 -13.9,2.6 -17.6,8.7 -3.6,6.1 -2.3,13.8 2.9,18.5 5.1,4.7 14.3,7 19.5,1.1 0.2,-0.3 0.2,-0.7 0,-0.9 -0.3,-0.2 -0.5,-0.2 -0.7,-0.1 z"
   id="path14"
   inkscape:connector-curvature="0"
   style="fill:#333333" />
	<path
   class="st0"
   d="m 224,118.2 c -1.7,-2.8 -4.3,-4.9 -7.4,-6 -1.6,-0.7 -3.2,-1.1 -4.9,-1.3 -1.6,-0.1 -3.2,-0.1 -4.8,0.1 -3.6,0.6 -7,1.7 -10.3,3.3 -3.2,1.5 -5.9,3.8 -8,6.6 -5.2,6.8 -7.9,15 -9.1,23.4 -1.3,9.1 -1.6,18.4 -2.3,27.6 l -1.1,16.9 -0.6,8.2 c -0.3,2.9 -0.5,5.8 -0.4,8.7 0.1,1.8 1.5,3.4 3.3,3.6 1.8,0.2 3.5,-1 4,-2.8 0.4,-2.5 0.6,-5 0.7,-7.5 l 0.5,-7.2 0.9,-14.2 c 0.6,-8.9 1,-17.8 1.8,-26.6 0,-0.5 0.1,-0.9 0.1,-1.4 0,0 0.1,-0.7 0,-0.3 -0.1,0.4 0.1,-0.4 0.1,-0.5 0.1,-1 0.2,-1.9 0.4,-2.9 0.3,-2 0.6,-3.9 1.1,-5.8 0.4,-1.8 0.9,-3.7 1.5,-5.4 0.4,-1 0.5,-1.4 0.8,-2.1 0.3,-0.7 0.8,-1.7 1.2,-2.5 1.4,-2.9 3.4,-5.5 5.9,-7.7 l 0.9,-0.8 0.1,-0.1 0.3,-0.2 c 0.7,-0.5 1.3,-1 2,-1.5 0.3,-0.2 0.6,-0.4 0.8,-0.6 0.2,-0.2 0.4,-0.2 0.6,-0.3 0,0 -0.3,0.1 0,0 0.7,-0.4 1.5,-0.6 2.3,-0.9 0.8,-0.3 1.6,-0.6 2.5,-0.8 l 1.3,-0.3 0.5,-0.1 c 0.2,0 0.2,0 0,0 h 0.3 c 1.7,-0.2 3.3,-0.3 5,-0.3 3,0.1 6,1.6 8.5,3.3 0.9,0.6 1.9,-0.6 1.4,-1.5 z"
   id="path16"
   inkscape:connector-curvature="0"
   style="fill:#333333" />
	<g
   class="st1"
   id="g20"
   style="opacity:0.2">
		<path
   class="st0"
   d="m 219.1,403.3 c 0.2,-1.6 0.4,-3.3 0.7,-4.9 0.3,-1.8 0.3,-3.6 0.1,-5.4 -0.2,-3.4 -0.1,-6.9 0.3,-10.3 0.2,-2.1 -1.9,-3.9 -3.9,-4.2 -2.1,-0.2 -4.1,1.1 -4.7,3.2 -0.7,3.6 -1,7.2 -1.1,10.8 l -0.6,10.1 9.5,-0.2 c 0.7,-29.1 1.4,-58.3 2.1,-87.4 0.2,-8.2 0.4,-16.4 0.6,-24.7 -0.1,-2.5 -2,-4.5 -4.5,-4.8 -2.2,-0.3 -5.1,1.2 -5.4,3.7 -1.2,8.9 -2.4,17.8 -3.5,26.7 l 10.1,1.1 -1.6,-61.7 c -0.3,-9.9 -0.3,-19.8 -0.8,-29.6 -0.4,-8.1 -2.4,-18.2 -10.6,-22.1 -3.9,-1.9 -8.3,-2.3 -12.5,-1 -2,0.7 -3.9,1.8 -5.4,3.3 -1.8,1.9 -2.9,6.1 -1.2,8.5 l -0.5,-3 -0.1,0.3 c -0.2,2.2 1.4,4.2 3.6,4.4 1.8,0.2 3.4,-0.8 4.1,-2.5 l 0.1,-0.3 -1.8,2.4 c 0.7,-0.4 1.3,-1 1.8,-1.6 -0.1,0.3 -0.9,0.7 -0.1,0.2 0.6,-0.4 1.1,-0.8 1.5,-1.4 l 0.3,-0.3 c 0.5,-0.6 -0.4,0.4 -0.4,0.4 0.3,-0.1 0.5,-0.3 0.7,-0.5 0.5,-0.3 1,-0.2 -0.2,0 0.3,-0.1 0.6,-0.3 1,-0.3 l 0.8,-0.2 c 0.8,-0.2 -0.5,0.1 -0.6,0.1 0.2,0 0.4,0 0.5,-0.1 0.6,-0.1 1.3,0.1 1.9,0 -1,0.1 -1,-0.1 -0.5,-0.1 l 0.4,0.1 c 0.3,0.1 0.6,0.1 0.9,0.2 0.3,0.1 0.6,0.2 0.9,0.3 0.5,0.1 -0.6,-0.2 -0.6,-0.2 0.2,0.1 0.4,0.2 0.6,0.3 0.3,0.1 0.6,0.3 0.8,0.5 0.7,0.4 -0.8,-0.8 -0.1,0 0.2,0.2 0.5,0.4 0.7,0.6 0.2,0.2 0.3,0.3 0.4,0.4 0.4,0.4 -0.5,-0.8 0,0 0.5,0.7 0.9,1.4 1.4,2.2 0.4,0.8 -0.3,-0.8 0.1,0.3 0.2,0.5 0.4,0.9 0.5,1.4 0.2,0.8 0.4,1.6 0.6,2.4 0,0.1 0.3,1.6 0.2,0.8 -0.1,-0.8 0,0.1 0,0.3 0,0.2 0.1,0.5 0.1,0.8 0.2,1.9 0.3,3.7 0.4,5.6 0.6,19 0.9,37.9 1.4,56.9 l 0.8,32.3 c 0.1,2.5 2,4.6 4.6,4.9 2.3,0.3 5.2,-1.3 5.5,-3.8 1.1,-8.9 2.2,-17.8 3.3,-26.7 l -9.9,-1.1 c -0.6,29.1 -1.1,58.3 -1.8,87.4 -0.2,8.2 -0.4,16.4 -0.5,24.7 0.1,2.6 2.3,4.7 4.9,4.6 2.6,-0.1 4.6,-2.3 4.6,-4.9 l 0.6,-9.9 c 0.3,-3.3 0.4,-6.6 0.2,-9.9 l -8.5,1.4 c 0.4,1.4 0.8,3 1.2,4.6 0.4,1.5 0.6,3.1 0.8,4.7 0.1,1.8 0.4,3.5 0.9,5.3 0.5,1.5 1,3.1 1.5,4.7 0.7,1.6 3.1,1.8 3.4,0.2 z"
   id="path18"
   inkscape:connector-curvature="0"
   style="fill:#333333" />
	</g>
	<path
   class="st0"
   d="m 212.7,510.5 c 1,-6.4 1.9,-12.8 2.4,-19.3 0.5,-6.5 0.8,-12.9 1,-19.4 0.3,-12.8 -0.1,-25.7 -1.3,-38.5 -0.3,-3.6 -0.7,-7.2 -1.1,-10.8 -0.2,-1.8 -0.4,-3.6 -0.7,-5.4 -0.2,-1 -0.5,-1.9 -0.9,-2.8 -0.4,-0.9 -0.6,-1.8 -0.9,-2.7 -0.5,-1.1 -2.5,-1.5 -2.7,0.1 -0.1,0.8 -0.2,1.6 -0.2,2.3 0,0.8 -0.3,1.6 -0.3,2.5 0.1,1.6 0.2,3.3 0.5,4.9 0.4,3.1 0.7,6.2 1,9.3 0.6,6.4 1,12.9 1.3,19.4 0.5,12.8 0.5,25.7 -0.1,38.5 -0.4,7.2 -0.7,14.4 -1.2,21.5 -0.2,1.9 3,2.2 3.2,0.4 z"
   id="path22"
   inkscape:connector-curvature="0"
   style="fill:#333333" />
	<path
   class="st0"
   d="m 215.5,509.5 c 38,0.5 76.1,-1.4 114,-2.7 37.9,-1.3 76,-2.6 114,-3.9 75.6,-2.7 151.2,-5.4 226.9,-8.1 21.3,-0.8 42.7,-1.6 64,-2.3 21.3,-0.7 42.7,-0.8 64,-2.3 4,-0.3 3.9,-6.3 -0.2,-6.3 -19,0 -38,1.3 -57,2 -19,0.7 -38,1.4 -57,2.1 l -114,4.2 c -75.6,2.8 -151.2,5.6 -226.9,8.6 -21.3,0.8 -42.7,1.7 -64,2.6 -21.3,1 -42.7,1.8 -64,3.5 -0.7,0.1 -1.2,0.7 -1.1,1.4 0.1,0.7 0.6,1.2 1.3,1.2 z"
   id="path24"
   inkscape:connector-curvature="0"
   style="fill:#333333" />
	<path
   class="st0"
   d="m 210.4,213 c 1.1,-10 1.7,-20.2 1.7,-30.3 0,-10.1 -0.5,-20.2 -1.4,-30.2 -0.2,-2.8 -0.5,-5.6 -0.8,-8.3 -0.2,-1.5 -0.3,-2.9 -0.5,-4.4 -0.2,-1.6 -0.9,-3.1 -1.8,-4.4 -0.6,-0.9 -1.9,-1.1 -2.8,-0.5 -0.3,0.2 -0.6,0.6 -0.7,1 -0.5,1.2 -0.8,2.4 -0.7,3.7 0.1,1.3 0.3,2.6 0.5,3.9 0.3,2.4 0.6,4.9 0.9,7.3 0.5,5 1,9.9 1.3,14.9 0.7,10 0.7,20 0.9,30 0.1,5.7 0.1,11.4 -0.1,17.2 0,1 0.9,1.8 1.9,1.8 0.9,0.1 1.6,-0.7 1.6,-1.7 z"
   id="path26"
   inkscape:connector-curvature="0"
   style="fill:#333333" />
	<path
   class="st0"
   d="m 207.4,136.3 c 74.7,14.8 151.3,12.4 226.9,8.8 77.5,-3.7 154.9,-7.7 232.4,-11.6 l 64.7,-3.2 c 22,-1.1 44,-1.7 65.9,-3.4 4.4,-0.3 4.3,-7.1 -0.2,-7 -19.6,0.5 -39.2,1.9 -58.8,2.9 l -57.7,3 -116.5,6 c -38.4,2 -76.7,4 -115.1,5.9 -37.8,1.9 -75.7,3.7 -113.6,3.5 -42.4,-0.1 -85,-2.8 -126.9,-9.8 -3,-0.4 -4.3,4.3 -1.1,4.9 z"
   id="path28"
   inkscape:connector-curvature="0"
   style="fill:#333333" />
	<path
   class="st0"
   d="m 799.1,489 c 0.7,-5.7 1.1,-11.5 1,-17.3 -0.1,-5.9 -0.9,-11.8 -1.5,-17.7 -1.3,-11.9 -2.7,-23.7 -3.8,-35.6 -2.2,-23.5 -3.7,-47.1 -4.5,-70.7 -0.8,-23.7 -0.8,-47.5 -0.1,-71.3 0.7,-23.6 2.1,-47.2 4.3,-70.8 2.2,-23.6 5.1,-47 8.7,-70.4 0.5,-3 0.8,-6 0.7,-9 -0.1,-3.7 -5,-3.9 -6.2,-0.7 -0.5,1.3 -1,2.6 -1.3,4 -0.3,1.5 -0.5,3 -0.7,4.6 -0.5,2.9 -0.9,5.9 -1.3,8.8 -0.8,5.8 -1.6,11.7 -2.4,17.6 -1.5,11.9 -2.9,23.9 -4.1,35.9 -2.3,23.5 -3.8,47.1 -4.5,70.7 -0.8,23.7 -0.8,47.5 0,71.2 0.8,23.6 2.2,47.2 4.5,70.8 1.2,11.9 2.5,23.8 4.1,35.6 1.6,11.8 2.7,23.5 4.2,35.3 0.4,2.9 0.6,5.9 0.8,8.8 0.1,1.1 2,1.5 2.1,0.2 z"
   id="path30"
   inkscape:connector-curvature="0"
   style="fill:#333333" />
</g>
<g
   id="Layer_119"
   transform="translate(-9.4650037,5.4941045)">
	<path
   class="st0"
   d="M 247,189 Z"
   id="path33"
   inkscape:connector-curvature="0"
   style="fill:#333333" />
	<path
   class="st0"
   d="m 251.2,189.9 c 0.1,0 0,-0.1 0,0 z"
   id="path35"
   inkscape:connector-curvature="0"
   style="fill:#333333" />
</g>
<path
   d="m 226.235,222.6941 c 66.7,0.2 133.3,0.2 200,0.2 66.3,-0.1 132.6,-0.3 198.9,-0.6 18.7,-0.1 37.4,-0.2 56.1,-0.3 18.7,-0.1 37.4,-0.1 56.1,-0.7 1.4,0 1.4,-1.3 -0.1,-1.3 -16.6,-0.3 -33.3,-0.2 -50,-0.1 -16.7,0.1 -33.3,0.2 -50,0.2 -33.3,0.1 -66.7,0.3 -100,0.4 -66.3,0.2 -132.6,0.3 -198.9,0.3 -37.4,0 -74.8,0 -112.2,-0.1 -2.2,-0.1 -2.1,2 0.1,2"
   id="path38"
   inkscape:connector-curvature="0" />
<path
   d="m 226.735,260.5941 c 65.3,0.1 130.6,-0.1 195.8,-0.1 65,-0.1 129.9,-0.1 194.8,-0.2 l 55,-0.1 c 18.3,0 36.7,0.1 54.9,-0.4 1.5,0 1.4,-1.3 -0.1,-1.4 -16.3,-0.4 -32.7,-0.3 -49,-0.3 l -49,0.1 c -32.7,0 -65.3,0 -97.9,0.1 l -194.7,0.3 c -36.6,0.1 -73.3,0.1 -109.9,0.2 -1.9,0.1 -1.8,1.8 0.1,1.8"
   id="path40"
   inkscape:connector-curvature="0" />
<path
   d="m 229.935,298.5941 c 65.6,0.1 131.2,0 196.7,-0.1 65.2,0 130.5,-0.1 195.7,-0.1 l 55.2,-0.1 c 18.4,0 36.8,0.1 55.2,-0.4 1.3,0 1.3,-1.2 0,-1.2 -32.7,-0.7 -65.6,-0.3 -98.4,-0.2 -32.8,0.1 -65.6,0 -98.4,0.1 l -195.7,0.3 c -36.8,0.1 -73.6,0.1 -110.4,0.2 -1.6,-0.1 -1.5,1.5 0.1,1.5"
   id="path42"
   inkscape:connector-curvature="0" />
<path
   class="st2"
   d="m 232.035,365.5941 c 66.4,0.1 132.8,0.1 199.2,-0.1 66.1,0 132.1,0 198.2,-0.1 l 55.9,-0.1 c 18.6,0 37.3,0 55.9,-0.4 1.3,0 1.2,-1.2 0,-1.2 -33.2,-0.7 -66.5,-0.3 -99.6,-0.2 -33.1,0.1 -66.4,0 -99.6,0.1 l -198.2,0.3 c -37.3,0.1 -74.5,0.1 -111.8,0.2 -1.6,0 -1.6,1.5 0,1.5"
   id="path44"
   inkscape:connector-curvature="0"
   style="fill:#b3b3b3" />
<path
   class="st2"
   d="m 232.535,428.8941 c 64.2,0.1 128.4,0 192.6,-0.1 63.9,0 127.7,-0.1 191.6,-0.2 l 54,-0.1 c 18,0 36,0 54,-0.4 1.5,0 1.4,-1.3 0,-1.3 -16,-0.4 -32.1,-0.3 -48.2,-0.3 h -48.2 c -32.1,0 -64.2,0 -96.3,0.1 l -191.5,0.4 c -36,0.1 -72,0.1 -108.1,0.3 -1.7,0 -1.7,1.6 0.1,1.6"
   id="path46"
   inkscape:connector-curvature="0"
   style="fill:#b3b3b3" />
<path
   class="st2"
   d="m 443.535,186.0941 c -0.3,4.4 -0.3,8.9 0,13.3 0.1,4.3 0.2,8.5 0.3,12.8 0.2,8.7 0.3,17.3 0.5,26 0.3,17.4 0.6,34.7 1,52.1 0.8,34.6 1.5,69.1 2.3,103.6 l 1.3,58.5 c 0,1.3 3.5,1.3 3.5,0 -0.9,-34.7 -1.7,-69.4 -2.6,-104.1 -0.9,-34.5 -1.8,-69.1 -2.8,-103.6 -0.3,-9.7 -0.6,-19.5 -0.9,-29.2 -0.1,-4.8 -0.3,-9.6 -0.4,-14.3 -0.1,-5 0,-9.9 -0.7,-14.9 -0.1,-0.8 -1.4,-0.8 -1.5,-0.2"
   id="path48"
   inkscape:connector-curvature="0"
   style="fill:#b3b3b3" />
<path
   class="st2"
   d="m 338.035,190.7941 c -0.3,4.3 -0.3,8.6 0,12.9 0.1,4.1 0.2,8.3 0.3,12.4 l 0.5,25.3 c 0.3,16.9 0.5,33.8 0.9,50.7 0.7,33.6 1.5,67.2 2.2,100.9 0.4,19 0.8,37.9 1.2,56.9 0,1.4 3.5,1.3 3.5,0 -0.8,-33.8 -1.7,-67.6 -2.5,-101.4 -0.8,-33.6 -1.7,-67.2 -2.7,-100.9 -0.3,-9.5 -0.6,-19 -0.8,-28.4 -0.1,-4.7 -0.3,-9.3 -0.4,-14 -0.1,-4.8 0,-9.7 -0.7,-14.5 -0.1,-0.5 -1.4,-0.5 -1.5,0.1"
   id="path50"
   inkscape:connector-curvature="0"
   style="fill:#b3b3b3" />
<path
   class="st2"
   d="m 226.735,234.2941 c 0.5,27.6 1,55.2 1.6,82.8 l 1.8,82.8 c 0.4,15.6 0.7,31.1 1,46.7 0,1.3 3.5,1.3 3.5,0 -0.7,-27.6 -1.4,-55.2 -2,-82.8 -0.7,-27.6 -1.3,-55.2 -2.1,-82.8 -0.5,-15.6 -0.9,-31.1 -1.4,-46.7 -0.1,-0.9 -2.4,-0.9 -2.4,0"
   id="path52"
   inkscape:connector-curvature="0"
   style="fill:#b3b3b3" />
<path
   class="st2"
   d="m 226.035,228.0941 c 0.2,10.9 0.4,21.7 0.6,32.5 0,1 2.5,0.9 2.4,0 -0.4,-10.8 -0.7,-21.7 -1,-32.5 0,-0.8 -2,-0.8 -2,0"
   id="path54"
   inkscape:connector-curvature="0"
   style="fill:#b3b3b3" />
<path
   class="st2"
   d="m 226.235,222.6941 c -0.1,0.9 -0.2,1.8 -0.2,2.7 0,0.9 0,1.8 0.1,2.7 0.1,0.9 2.1,0.8 2,0 -0.1,-0.8 0,-1.8 -0.1,-2.7 -0.1,-0.9 -0.2,-1.8 -0.4,-2.7 -0.1,-0.5 -1.4,-0.5 -1.4,0"
   id="path56"
   inkscape:connector-curvature="0"
   style="fill:#b3b3b3" />
<path
   class="st2"
   d="m 657.735,179.1941 c -0.3,4.5 -0.3,9 -0.1,13.5 0.1,4.3 0.1,8.6 0.2,12.9 0.1,8.8 0.2,17.6 0.3,26.4 0.2,17.6 0.3,35.2 0.6,52.8 0.5,35 1,70 1.5,105 0.3,19.8 0.6,39.5 0.8,59.2 0,1.4 3.6,1.3 3.5,0 -0.6,-35.2 -1.2,-70.4 -1.8,-105.5 -0.6,-35 -1.2,-70 -2,-105 -0.2,-9.9 -0.4,-19.7 -0.7,-29.6 -0.1,-4.8 -0.2,-9.7 -0.3,-14.6 -0.1,-5 0.1,-10.1 -0.6,-15.1 0,-0.6 -1.3,-0.6 -1.4,0"
   id="path58"
   inkscape:connector-curvature="0"
   style="fill:#b3b3b3" />
<path
   class="st2"
   d="m 552.235,183.5941 c -0.3,4.4 -0.3,8.8 -0.1,13.3 0,4.3 0.1,8.5 0.2,12.7 0.1,8.7 0.2,17.3 0.3,26 0.2,17.3 0.3,34.7 0.6,52 l 1.5,103.5 c 0.3,19.5 0.6,38.9 0.8,58.4 0,1.3 3.5,1.3 3.5,-0.1 -0.6,-34.7 -1.2,-69.3 -1.8,-104 -0.6,-34.5 -1.3,-69 -2,-103.5 -0.2,-9.7 -0.4,-19.5 -0.6,-29.2 -0.1,-4.8 -0.2,-9.6 -0.3,-14.3 -0.1,-4.9 0.1,-9.9 -0.6,-14.9 -0.2,-0.5 -1.5,-0.5 -1.5,0.1"
   id="path60"
   inkscape:connector-curvature="0"
   style="fill:#b3b3b3" />
<path
   class="st2"
   d="m 232.435,342.8941 c 68.1,0.2 136.3,0.2 204.4,0.2 67.8,-0.1 135.6,-0.3 203.4,-0.5 19.1,-0.1 38.2,-0.2 57.3,-0.3 19.1,-0.1 38.3,-0.1 57.3,-0.7 1.4,0 1.4,-1.3 0,-1.3 -17,-0.3 -34.1,-0.2 -51.1,-0.1 -17,0.1 -34.1,0.2 -51.1,0.2 -34.1,0.1 -68.1,0.3 -102.2,0.4 -67.8,0.2 -135.6,0.3 -203.4,0.3 -38.2,0 -76.5,-0.1 -114.7,-0.2 -2.2,0 -2.1,2 0.1,2"
   id="path62"
   inkscape:connector-curvature="0"
   style="fill:#b3b3b3" />
<path
   class="st2"
   d="m 234.035,406.1941 c 68.8,0.2 137.6,0.3 206.4,0.2 68.4,-0.1 136.9,-0.2 205.3,-0.5 19.3,-0.1 38.6,-0.2 57.9,-0.3 19.3,-0.1 38.6,-0.1 57.9,-0.7 1.4,0 1.4,-1.3 0,-1.3 -17.2,-0.3 -34.4,-0.2 -51.6,-0.1 l -51.6,0.3 c -34.4,0.1 -68.8,0.3 -103.2,0.4 -68.4,0.2 -136.9,0.3 -205.3,0.3 -38.6,0 -77.2,-0.1 -115.8,-0.2 -2.3,-0.2 -2.2,1.9 0,1.9"
   id="path64"
   inkscape:connector-curvature="0"
   style="fill:#b3b3b3" />
<path
   class="st2"
   d="m 231.935,322.2941 c 65.7,0.1 131.4,0 197,-0.1 65.3,0 130.7,-0.1 196,-0.2 l 55.3,-0.1 c 18.4,0 36.9,0.1 55.3,-0.4 1.4,0 1.3,-1.3 0,-1.3 -32.8,-0.7 -65.7,-0.3 -98.5,-0.2 -32.8,0.1 -65.7,0 -98.5,0.1 l -196,0.3 c -36.9,0.1 -73.7,0.1 -110.6,0.2 -1.8,0.1 -1.7,1.7 0,1.7"
   id="path66"
   inkscape:connector-curvature="0"
   style="fill:#b3b3b3" />
<path
   class="st2"
   d="m 232.635,385.9941 c 66,0.1 132,0 197.9,-0.1 65.6,-0.1 131.2,-0.1 196.9,-0.2 l 55.5,-0.1 c 18.5,0 37,0.1 55.5,-0.4 1.5,0 1.4,-1.3 -0.1,-1.3 -32.9,-0.8 -66,-0.3 -99,-0.3 -33,0 -66,0.1 -98.9,0.1 l -196.9,0.4 c -37,0.1 -74,0.1 -111,0.2 -1.7,0 -1.7,1.7 0.1,1.7"
   id="path68"
   inkscape:connector-curvature="0"
   style="fill:#b3b3b3" />
<path
   d="m 233.135,449.1941 c 64.2,0.1 128.4,0 192.6,-0.1 63.8,-0.1 127.7,-0.1 191.6,-0.2 l 54,-0.1 c 18,0 36,0 54,-0.4 1.5,0 1.4,-1.3 0,-1.3 -16,-0.4 -32.1,-0.3 -48.2,-0.3 h -48.1 c -32.1,0 -64.2,0.1 -96.3,0.1 l -191.6,0.4 c -36,0.1 -72,0.2 -108.1,0.3 -1.7,0 -1.6,1.6 0.1,1.6"
   id="path70"
   inkscape:connector-curvature="0" />
<path
   class="st3"
   d="m 240.635,425.8941 c 11.1,-16.5 20.6,-33.2 30.5,-49.8 9.9,-16.6 19.7,-33 29.7,-49.5 5.6,-9.3 11.7,-18.5 17.3,-27.8 h -4.6 c 5.3,8.1 6.4,16.5 6.8,24.8 0.5,8.6 0.5,17.1 0.5,25.7 0,17.4 -0.4,34.7 -0.6,52.1 -0.1,9.8 -0.3,19.5 -0.5,29.3 0,1.3 4.2,1.3 5.2,0.2 9,-9.9 18.9,-19 29.6,-27.1 3.3,-2.5 6.6,-5 10.1,-7.4 l -5.1,-0.5 c -0.5,3.2 1.5,6.4 5.2,9.3 1,0.7 2,1.3 3.1,1.9 1.4,0.9 2.9,1.4 4.5,1.6 3.2,0.2 6.3,-0.5 9.1,-2 11.2,-5.7 22,-11.5 32.3,-17.4 5.9,-3.4 11.7,-6.9 17.3,-10.4 l -5.1,-0.2 c 6.8,10.5 17.9,20.7 33,29.7 1.5,0.7 3.1,0.7 4.6,0.2 16.5,-6.5 33.3,-12 50.5,-16.4 l -3.3,-0.1 16.7,6.9 c 5.2,2.2 10.2,4.4 15.7,6.5 5.6,2.1 11.6,3.2 17.6,3 6.2,-0.2 12.3,-1.3 18.1,-3.4 l -3.4,0.2 c 21.6,3.5 37.7,11.1 42.7,20.2 0.8,1.5 6.4,0.8 5.6,-0.7 -4.2,-7.5 -15.9,-14.1 -31.5,-18.5 -4.6,-1.3 -9.3,-2.3 -14.1,-3.1 -1.1,-0.2 -2.3,-0.2 -3.4,0.2 -5.1,1.8 -10.5,2.8 -15.9,2.7 -6,-0.1 -10.5,-1.8 -14.5,-3.4 -10,-4.1 -19.8,-8.2 -29.8,-12.3 -1.1,-0.3 -2.2,-0.4 -3.3,-0.1 -17.6,4.6 -34.9,10.1 -51.9,16.6 l 4.6,0.2 c -14.5,-9 -25.7,-18.8 -32.7,-29.1 -0.7,-1 -3.9,-1 -5.1,-0.2 -8.7,5.5 -17.9,10.9 -27.6,16.2 -4.8,2.7 -9.8,5.3 -14.8,7.9 -2.4,1.3 -4.8,2.5 -7.3,3.7 -0.9,0.5 -1.8,0.8 -2.8,0.8 l -1,-0.6 c -0.5,-0.3 -1.1,-0.6 -1.6,-0.9 -4.3,-2.8 -6.5,-5.8 -6.1,-9.1 0.1,-1.1 -3.8,-1.4 -5.1,-0.5 -11.6,8 -22.5,17.1 -32.5,27 -2.6,2.6 -5.1,5.3 -7.5,8 l 5.2,0.2 c 0,-17.5 0.4,-34.9 0.6,-52.4 0.2,-17.5 0.6,-34.8 -0.1,-52.1 -0.4,-9.3 -1.2,-18.7 -7.3,-27.7 -0.6,-0.9 -4.1,-0.9 -4.7,0 -4.9,8.3 -9.3,16.7 -14.3,25 -5,8.3 -9.8,16.6 -14.8,24.9 -9.9,16.6 -19.8,33.1 -29.7,49.6 -2.8,4.6 -5.5,9.3 -8.3,14 -2.8,4.7 -5.2,9.3 -7.6,14 -0.3,0.4 1.4,0.6 1.8,0.1"
   id="path72"
   inkscape:connector-curvature="0"
   style="fill:#0071bc" />
<path
   class="st4"
   d="m 260.735,356.1941 c 14,9.8 29.4,19 44.4,28.3 0.9,0.4 1.9,0.4 2.7,0 20.9,-13.8 43.1,-26.8 65.9,-39.4 h -3.6 c 19.4,9.5 36.6,20.6 51,32.9 1.2,0.8 2.7,0.9 4,0.3 23.9,-13.5 50.9,-24.8 79.3,-34.7 8,-2.8 16.1,-5.5 24.4,-8.1 l -3.2,-0.2 27.8,18.2 14,9.1 c 2.2,1.5 4.5,2.9 6.7,4.4 2.1,1.5 4.4,2.5 6.9,3.1 5.6,1.2 12.1,-0.8 17.4,-1.9 5.7,-1.2 11.3,-2.4 16.8,-3.7 10.5,-2.5 20.8,-6 30.7,-10.4 1.2,-0.6 2.5,-1.1 3.8,-1.3 1.3,0 2.6,0.3 3.8,1 2.7,1.3 5.2,2.7 7.7,4.1 4.8,2.8 9.4,5.8 13.8,9.3 2.1,1.6 6.7,0 4.6,-1.7 -3.8,-3 -7.8,-5.7 -12,-8.3 -2.2,-1.3 -4.4,-2.6 -6.7,-3.8 -2.3,-1.4 -4.7,-2.5 -7.2,-3.3 -5.8,-1.6 -10.3,1.3 -14.7,3.2 -5,2.1 -10,3.9 -15.2,5.5 -10.8,3.2 -22.3,5.5 -33.7,7.8 -2.8,0.5 -5.9,1.2 -8.6,0.2 -2.5,-0.9 -4.5,-2.6 -6.5,-3.9 -4.6,-3 -9.3,-6.1 -14,-9.1 -10.6,-6.9 -21.2,-13.8 -31.8,-20.7 -1,-0.5 -2.1,-0.6 -3.2,-0.2 -29.3,9.3 -57.7,19.8 -83.5,32.3 -7.3,3.5 -14.4,7.2 -21.2,11.1 l 4,0.3 c -15.7,-13.4 -33.2,-24.7 -51.8,-33.6 -1.2,-0.6 -2.5,-0.6 -3.6,0 -22.7,12.7 -44.2,26.1 -65,39.9 0.9,0 1.8,0 2.7,0 -15,-9.3 -29.7,-18.8 -45.6,-27.5 -1,-0.7 -2.2,0.2 -1.3,0.8"
   id="path74"
   inkscape:connector-curvature="0"
   style="fill:#ed1c24" />
<path
   class="st5"
   d="m 239.835,384.4941 c 26.1,-8.5 51.4,-17.9 77,-26.9 l -3,-0.4 c 13.1,11 31.4,19.5 52.4,24.4 0.9,0.2 1.9,-0.1 2.6,-0.7 9.8,-10 16.3,-21.1 28.5,-30.2 10.6,-7.9 23.9,-14.6 39,-19.1 8.7,-2.6 17.7,-4.6 26.7,-5.8 l -2.7,-0.4 c 10.7,6.8 17.8,14.9 22.3,23.8 2.3,4.7 4.8,9.2 8.9,13.5 4.1,4.3 9,7.9 14,11.7 1.1,0.8 2.6,1 4,0.6 24,-9.6 47,-20 69.1,-31.2 l -4.3,-2.5 c -4,3.1 3.2,5.2 6.8,6.5 l 16.4,6 32.4,11.8 c 1.2,0.4 2.5,0.3 3.7,-0.3 18.4,-14.5 38.1,-27.3 58.7,-38.4 3,-1.6 -1.6,-4.2 -4.5,-2.6 -20.6,11.1 -40.2,24 -58.6,38.5 l 3.7,-0.3 -27.5,-9.9 -13.4,-4.9 -6.9,-2.5 -3.4,-1.2 -1.5,-0.6 c -1.7,-0.6 -0.4,-0.5 -1.6,0.5 2.4,-1.8 -1.4,-3.9 -4.3,-2.5 -21.6,11 -44.3,21.2 -67.8,30.7 l 3.9,0.5 c -5.1,-3.9 -10.3,-7.8 -14.3,-12.1 -4.3,-4.5 -6.4,-9.5 -9,-14.4 -2.6,-4.8 -5.9,-9.2 -9.8,-13 -2.1,-2.1 -4.4,-4 -6.8,-5.8 -1.2,-0.9 -2.4,-1.8 -3.7,-2.6 -1.3,-0.8 -2.6,-2.1 -4.6,-2.1 -1.7,0.1 -3.4,0.4 -5.1,0.8 -1.8,0.3 -3.6,0.6 -5.3,1 -3.4,0.7 -6.7,1.5 -10,2.4 -6.4,1.7 -12.7,3.8 -18.8,6.2 -11.2,4.3 -21.7,10.2 -31.2,17.5 -11.2,9 -17.6,19.6 -27,29.2 l 2.6,-0.7 c -19.9,-4.6 -37.4,-12.7 -49.9,-23.1 -0.9,-0.6 -2,-0.8 -3,-0.4 -25.5,9.1 -51.4,17.9 -76.4,27.5 -1.8,0.5 -0.2,2.1 1.7,1.5"
   id="path76"
   inkscape:connector-curvature="0"
   style="fill:#009245" />
<line
   class="st6"
   x1="289.63501"
   y1="196.09412"
   x2="278.035"
   y2="213.49411"
   id="line78"
   style="fill:none;stroke:#666666;stroke-width:1.69920003" />
<line
   class="st6"
   x1="406.83499"
   y1="193.8941"
   x2="395.23502"
   y2="211.19411"
   id="line80"
   style="fill:none;stroke:#666666;stroke-width:1.69920003" />
<line
   class="st6"
   x1="510.83499"
   y1="191.79411"
   x2="499.33499"
   y2="209.09412"
   id="line82"
   style="fill:none;stroke:#666666;stroke-width:1.69920003" />
<line
   class="st6"
   x1="617.23499"
   y1="191.79411"
   x2="605.73499"
   y2="209.09412"
   id="line84"
   style="fill:none;stroke:#666666;stroke-width:1.69920003" />
<line
   class="st6"
   x1="713.23499"
   y1="190.3941"
   x2="701.73499"
   y2="207.69411"
   id="line86"
   style="fill:none;stroke:#666666;stroke-width:1.69920003" />
<g
   id="g94"
   transform="translate(-9.4650037,5.4941045)">
	<g
   class="st7"
   id="g92"
   style="enable-background:new">
		<path
   d="m 256.3,203.8 h 5.1 v -13.1 h -4.1 v -1.5 c 2,-0.3 3.5,-0.7 4.8,-1.3 h 2.2 v 15.9 h 4.6 v 1.9 h -12.7 v -1.9 z"
   id="path88"
   inkscape:connector-curvature="0" />
		<path
   d="m 273.8,203.8 h 5.1 v -13.1 h -4.1 v -1.5 c 2,-0.3 3.5,-0.7 4.8,-1.3 h 2.2 v 15.9 h 4.6 v 1.9 h -12.7 v -1.9 z"
   id="path90"
   inkscape:connector-curvature="0" />
	</g>
</g>
<g
   id="g100"
   transform="translate(-9.4650037,5.4941045)">
	<g
   class="st7"
   id="g98"
   style="enable-background:new">
		<path
   d="m 307.4,197.8 c 0,-0.9 0.1,-2.5 0.2,-3.4 h -0.1 c -0.6,0.9 -1.2,1.6 -1.8,2.5 l -5.2,6.1 h 12.8 v 1.8 h -15.9 v -1.5 l 9.6,-11.4 h 3.2 v 17.8 h -2.7 v -11.9 z"
   id="path96"
   inkscape:connector-curvature="0" />
	</g>
</g>
<g
   id="g106"
   transform="translate(-9.4650037,5.4941045)">
	<g
   class="st7"
   id="g104"
   style="enable-background:new">
		<path
   d="m 425,193.9 c 0,-0.9 0.1,-2.5 0.2,-3.4 H 425 c -0.6,0.9 -1.2,1.6 -1.8,2.5 l -5.2,6.1 h 12.8 v 1.8 H 415 v -1.5 l 9.6,-11.4 h 3.2 v 17.8 H 425 Z"
   id="path102"
   inkscape:connector-curvature="0" />
	</g>
</g>
<g
   id="g112"
   transform="translate(-9.4650037,5.4941045)">
	<g
   class="st7"
   id="g110"
   style="enable-background:new">
		<path
   d="m 528.4,194.3 c 0,-0.9 0.1,-2.5 0.2,-3.4 h -0.1 c -0.6,0.9 -1.2,1.6 -1.8,2.5 l -5.2,6.1 h 12.8 v 1.8 h -15.9 v -1.5 l 9.6,-11.4 h 3.2 v 17.8 h -2.7 v -11.9 z"
   id="path108"
   inkscape:connector-curvature="0" />
	</g>
</g>
<g
   id="g118"
   transform="translate(-9.4650037,5.4941045)">
	<g
   class="st7"
   id="g116"
   style="enable-background:new">
		<path
   d="m 636.8,190 c 0,-0.9 0.1,-2.5 0.2,-3.4 h -0.1 c -0.6,0.9 -1.2,1.6 -1.8,2.5 l -5.2,6.1 h 12.8 v 1.8 h -15.9 v -1.5 l 9.6,-11.4 h 3.2 V 202 h -2.7 v -12 z"
   id="path114"
   inkscape:connector-curvature="0" />
	</g>
</g>
<g
   id="g124"
   transform="translate(-9.4650037,5.4941045)">
	<g
   class="st7"
   id="g122"
   style="enable-background:new">
		<path
   d="m 731.2,192.1 c 0,-0.9 0.1,-2.5 0.2,-3.4 h -0.1 c -0.6,0.9 -1.2,1.6 -1.8,2.5 l -5.2,6.1 H 737 v 1.8 h -15.9 v -1.5 l 9.6,-11.4 h 3.2 V 204 h -2.7 z"
   id="path120"
   inkscape:connector-curvature="0" />
	</g>
</g>
<g
   id="g132"
   transform="translate(-9.4650037,5.4941045)">
	<g
   class="st7"
   id="g130"
   style="enable-background:new">
		<path
   d="m 370.3,203.3 h 5.1 v -13.1 h -4.1 v -1.5 c 2,-0.3 3.5,-0.7 4.8,-1.3 h 2.2 v 15.9 h 4.6 v 1.9 h -12.7 v -1.9 z"
   id="path126"
   inkscape:connector-curvature="0" />
		<path
   d="m 386.4,203.8 c 6.7,-5.3 10.5,-8.6 10.5,-11.5 0,-2 -1.4,-3.5 -4.3,-3.5 -1.9,0 -3.5,0.9 -4.8,2.1 l -1.7,-1.3 c 1.9,-1.6 3.9,-2.7 6.8,-2.7 4.1,0 6.7,2.1 6.7,5.3 0,3.3 -3.9,6.7 -9.1,11.1 1.2,-0.1 2.6,-0.2 3.8,-0.2 h 6.5 v 2 h -14.5 v -1.3 z"
   id="path128"
   inkscape:connector-curvature="0" />
	</g>
</g>
<g
   id="g140"
   transform="translate(-9.4650037,5.4941045)">
	<g
   class="st7"
   id="g138"
   style="enable-background:new">
		<path
   d="m 478.4,200 h 5.1 v -13.1 h -4.1 v -1.5 c 2,-0.3 3.5,-0.7 4.8,-1.3 h 2.2 V 200 h 4.6 v 1.9 H 478.3 V 200 Z"
   id="path134"
   inkscape:connector-curvature="0" />
		<path
   d="m 494,199.7 1.5,-1.5 c 1.3,1.1 3.1,2.1 5.7,2.1 2.7,0 4.7,-1.3 4.7,-3.3 0,-2.1 -1.8,-3.5 -7.2,-3.5 v -1.8 c 4.7,0 6.4,-1.5 6.4,-3.3 0,-1.7 -1.5,-2.8 -3.9,-2.8 -1.9,0 -3.5,0.8 -4.8,1.8 l -1.6,-1.5 c 1.7,-1.3 3.8,-2.2 6.4,-2.2 3.9,0 6.7,1.6 6.7,4.5 0,2.1 -1.6,3.5 -4.1,4.2 v 0.1 c 2.7,0.5 4.9,2.1 4.9,4.5 0,3.2 -3.3,5.1 -7.4,5.1 -3.5,0.2 -5.8,-1 -7.3,-2.4 z"
   id="path136"
   inkscape:connector-curvature="0" />
	</g>
</g>
<g
   id="g148"
   transform="translate(-9.4650037,5.4941045)">
	<g
   class="st7"
   id="g146"
   style="enable-background:new">
		<path
   d="m 582,198 h 5.1 V 184.9 H 583 v -1.5 c 2,-0.3 3.5,-0.7 4.8,-1.3 H 590 V 198 h 4.6 v 1.9 H 582 Z"
   id="path142"
   inkscape:connector-curvature="0" />
		<path
   d="m 607.4,188 c 0,-0.9 0.1,-2.5 0.2,-3.4 h -0.1 c -0.6,0.9 -1.2,1.6 -1.8,2.5 l -5.2,6.1 h 12.8 v 1.8 h -15.9 v -1.5 l 9.6,-11.4 h 3.2 v 17.8 h -2.7 V 188 Z"
   id="path144"
   inkscape:connector-curvature="0" />
	</g>
</g>
<g
   id="g156"
   transform="translate(-9.4650037,5.4941045)">
	<g
   class="st7"
   id="g154"
   style="enable-background:new">
		<path
   d="m 681.7,196.1 h 5.1 V 183 h -4.1 v -1.5 c 2,-0.3 3.5,-0.7 4.8,-1.3 h 2.2 v 15.9 h 4.6 v 1.9 h -12.7 v -1.9 z"
   id="path150"
   inkscape:connector-curvature="0" />
		<path
   d="m 697.3,195.9 1.4,-1.5 c 1.3,1.1 3,2 5.7,2 2.7,0 4.9,-1.6 4.9,-4.1 0,-2.5 -1.9,-3.9 -4.8,-3.9 -1.5,0 -2.5,0.4 -3.8,1.1 l -1.5,-0.8 0.7,-8.6 h 11.2 v 2 h -8.7 l -0.6,5.3 c 1,-0.5 2.1,-0.7 3.4,-0.7 3.8,0 6.9,1.7 6.9,5.6 0,3.9 -3.7,6.1 -7.5,6.1 -3.6,-0.1 -5.8,-1.3 -7.3,-2.5 z"
   id="path152"
   inkscape:connector-curvature="0" />
	</g>
</g>
<path
   class="st8"
   d="m 250.435,237.0941 c -1.7,1.4 -2.3,3.7 -1.6,5.7 0.2,0.6 0.8,1.1 1.4,1.1 2,0.1 4,-1 5,-2.8 0.8,-1.2 1.3,-3 2.7,-3.6 1.3,-0.5 1,0.6 0.7,1.5 -0.5,1.6 -0.9,3.1 -0.1,4.8 0.4,0.7 1.4,1 2.1,0.5 0.1,-0.1 0.2,-0.1 0.3,-0.2 2.1,-2.4 4,-5 5.7,-7.7 l -2.8,-0.8 c 0,2.4 0.9,4.7 2.6,6.4 1.4,1.4 3.5,-0.7 2.1,-2.1 -1.1,-1.1 -1.7,-2.7 -1.7,-4.3 0,-0.8 -0.7,-1.5 -1.6,-1.5 -0.5,0 -1,0.3 -1.2,0.7 -1.6,2.5 -3.3,4.9 -5.2,7.1 l 2.4,0.3 c -0.2,-0.5 0.1,-1.2 0.2,-1.7 0.3,-0.8 0.5,-1.6 0.5,-2.4 0.2,-1.9 -1.2,-3.5 -3.1,-3.7 -0.1,0 -0.1,0 -0.2,0 -1.9,0.1 -3.6,1.1 -4.6,2.8 -0.9,1.5 -1.6,3.8 -3.8,3.6 l 1.5,1.1 c -0.4,-1 -0.1,-2.2 0.8,-2.8 0.6,-0.6 0.6,-1.5 0,-2.1 -0.5,-0.5 -1.5,-0.5 -2.1,0.1 z"
   id="path158"
   inkscape:connector-curvature="0"
   style="fill:#030072" />
<path
   class="st8"
   d="m 275.935,240.8941 c -0.1,0 -0.1,0.1 -0.2,0.2 l -1.3,-0.7 1.3,2.5 c 0.4,0.7 1.4,0.9 2.1,0.5 0.1,-0.1 0.2,-0.1 0.3,-0.2 l 4.6,-4.3 -2.6,-1.1 0.2,4 c 0,0.8 0.7,1.5 1.6,1.5 0.1,0 0.2,0 0.3,0 4.4,-1.4 8.8,-2.6 13.3,-3.9 1.9,-0.5 1.1,-3.4 -0.8,-2.9 -4.4,1.3 -8.9,2.6 -13.3,3.9 l 1.9,1.4 -0.2,-4 c 0,-0.8 -0.7,-1.5 -1.6,-1.5 -0.4,0 -0.7,0.2 -1,0.4 l -4.6,4.3 2.4,0.3 -1.3,-2.5 c -0.3,-0.5 -0.8,-0.7 -1.3,-0.8 -1.5,-0.1 -2.7,1.1 -2.8,2.6 0,0.1 0,0.2 0,0.3 0.1,1.9 3.1,1.9 3,0 z"
   id="path160"
   inkscape:connector-curvature="0"
   style="fill:#030072" />
<path
   class="st8"
   d="m 292.435,239.2941 c 0.9,2.3 2.1,4.4 3.4,6.4 0.4,0.7 1.4,0.9 2.1,0.5 0.1,-0.1 0.2,-0.1 0.3,-0.2 1.4,-1.5 2.5,-3.3 3.2,-5.2 l -2.5,0.7 c 2.4,2.7 6.5,2.9 9.2,0.5 0,0 0.1,-0.1 0.1,-0.1 1.4,-1.4 -0.7,-3.5 -2.1,-2.1 -0.7,0.7 -1.7,1 -2.6,0.9 -0.4,-0.1 -0.8,-0.2 -1.2,-0.3 -0.5,-0.2 -0.9,-0.6 -1.3,-1 -0.8,-1 -2.2,-0.3 -2.5,0.7 -0.5,1.4 -1.4,2.8 -2.5,3.9 l 2.4,0.3 c -1.2,-1.8 -2.3,-3.7 -3.1,-5.7 -0.2,-0.8 -1.1,-1.2 -1.9,-1.1 -0.8,0.2 -1.2,1 -1,1.8 z"
   id="path162"
   inkscape:connector-curvature="0"
   style="fill:#030072" />
<path
   class="st8"
   d="m 360.935,238.4941 c -0.4,1.8 -0.2,3.6 0.6,5.2 0.4,0.7 1.3,0.9 2,0.5 1,-0.5 2,-0.9 3.1,-1 l -1.8,-1.9 c -0.6,2.9 2,4.5 4.5,4.8 1.3,0 2.5,-0.1 3.7,-0.5 0.9,-0.2 2.4,-0.6 3.2,0.1 0.6,0.6 1.5,0.6 2.1,0 0.6,-0.6 0.6,-1.5 0,-2.1 -2.2,-1.8 -4.8,-1.1 -7.4,-0.5 -0.8,0.2 -1.7,0.2 -2.5,-0.1 -0.3,-0.1 -0.5,-0.3 -0.7,-0.5 0.2,0.2 -0.1,-0.4 -0.1,-0.1 0,-0.2 0,-0.2 0,-0.1 0,-0.2 0,-0.2 0,-0.1 0.2,-0.8 -0.3,-1.6 -1.1,-1.8 -0.2,-0.1 -0.5,-0.1 -0.7,0 -1.4,0.2 -2.7,0.7 -3.9,1.4 l 2,0.5 c -0.5,-0.9 -0.6,-1.9 -0.3,-2.9 0.6,-1.9 -2.2,-2.7 -2.7,-0.9 z"
   id="path164"
   inkscape:connector-curvature="0"
   style="fill:#030072" />
<path
   class="st8"
   d="m 380.535,242.1941 c 1.3,2.3 4.3,1.6 5.9,0 0.5,-0.5 1.3,-2 2.1,-1.9 0.5,0.1 1.1,0.9 0.9,1.4 -0.4,0.7 -0.1,1.7 0.6,2 0.4,0.2 0.9,0.2 1.4,0 l 7.4,-4 -2.3,-1.2 c -0.5,3.9 5.1,6.2 7.6,3.4 1.3,-1.4 -0.8,-3.6 -2.1,-2.1 -0.9,1 -2.7,0 -2.5,-1.3 0.2,-1.3 -1.4,-1.8 -2.3,-1.3 l -7.4,4 2,2 c 1,-2.1 0.1,-4.5 -1.9,-5.5 -0.4,-0.2 -0.9,-0.3 -1.4,-0.4 -1.4,0 -2.7,0.7 -3.5,1.7 -0.4,0.5 -0.8,1 -1.3,1.4 -0.2,0.1 -0.4,0.2 -0.6,0.3 -0.3,0 -0.1,0.1 -0.1,0 -0.4,-0.7 -1.4,-0.9 -2.1,-0.5 -0.6,0.5 -0.8,1.3 -0.4,2 z"
   id="path166"
   inkscape:connector-curvature="0"
   style="fill:#030072" />
<path
   class="st8"
   d="m 408.535,241.5941 1.3,0.7 c 0.2,0.1 0.4,0.2 0.6,0.2 0.2,0 0.4,0 0.6,0 0.2,0 0.4,-0.1 0.5,-0.3 0.2,-0.1 0.3,-0.2 0.4,-0.4 l 0.1,-0.4 c 0.1,-0.3 0.1,-0.5 0,-0.8 l -0.1,-0.4 c -0.1,-0.2 -0.3,-0.4 -0.5,-0.5 l -1.3,-0.7 c -0.2,-0.1 -0.4,-0.2 -0.6,-0.2 -0.2,-0.1 -0.4,-0.1 -0.6,0 -0.2,0 -0.4,0.1 -0.5,0.3 -0.2,0.1 -0.3,0.3 -0.4,0.4 l -0.1,0.4 c -0.1,0.3 -0.1,0.5 0,0.8 l 0.1,0.4 c 0.1,0.1 0.3,0.3 0.5,0.5 z"
   id="path168"
   inkscape:connector-curvature="0"
   style="fill:#030072" />
<path
   class="st8"
   d="m 413.235,242.1941 c 0.5,0.3 1.1,0.4 1.7,0.4 0.5,0 1,-0.1 1.4,-0.3 0.6,-0.2 1.1,-0.5 1.5,-0.9 0.4,-0.4 0.8,-0.9 0.9,-1.5 0.1,-0.4 0.1,-0.8 -0.1,-1.1 -0.2,-0.3 -0.5,-0.6 -0.9,-0.7 -0.4,-0.1 -0.8,-0.1 -1.2,0.1 -0.3,0.2 -0.6,0.5 -0.7,0.9 0,0 0,0.1 0,0.1 l 0.1,-0.4 c -0.1,0.2 -0.2,0.3 -0.3,0.5 l 0.2,-0.3 c -0.1,0.2 -0.3,0.3 -0.5,0.4 l 0.3,-0.2 c -0.2,0.1 -0.4,0.3 -0.6,0.4 l 0.3,-0.1 c -0.2,0.1 -0.5,0.2 -0.7,0.2 l 0.4,-0.1 c -0.2,0 -0.4,0 -0.6,0 l 0.4,0.1 c -0.2,0 -0.4,-0.1 -0.6,-0.2 l 0.4,0.1 h -0.1 c -0.4,-0.2 -0.8,-0.3 -1.2,-0.2 -0.4,0.1 -0.7,0.4 -0.9,0.7 -0.2,0.8 0.1,1.7 0.8,2.1 z"
   id="path170"
   inkscape:connector-curvature="0"
   style="fill:#030072" />
<path
   class="st8"
   d="m 484.535,282.6941 4.1,-3.6 -2.1,-2.1 c -1.3,1.4 -1.2,3.5 0.1,4.9 1.3,1.5 3.5,2 5.4,1.1 2.1,-0.8 3.4,-2.6 5.3,-3.8 0.7,-0.6 1.6,-0.8 2.5,-0.5 0.5,0.3 1,0.8 0.6,1.3 -1,1.4 1.2,2.9 2.4,1.8 0.5,-0.5 1,-0.8 1.6,-1.1 0.2,-0.1 0.1,0 0.1,0 v 0.1 c 0,0.2 0.1,0 0.2,-0.5 -0.7,0.4 -0.9,1.4 -0.5,2.1 0.4,0.7 1.3,0.9 2,0.5 1.3,-0.9 1.6,-2.6 0.8,-3.9 -0.2,-0.3 -0.4,-0.5 -0.6,-0.7 -1.9,-1.6 -4.2,-0.1 -5.7,1.3 l 2.4,1.8 c 1,-1.6 0.6,-3.6 -0.8,-4.8 -1.6,-1.3 -3.8,-1.5 -5.6,-0.5 -1.9,0.9 -3.2,2.7 -5.1,3.7 -0.7,0.5 -1.5,0.6 -2.3,0.2 -0.3,-0.2 -0.8,-0.8 -0.5,-1.1 0.6,-0.6 0.5,-1.6 -0.1,-2.1 -0.6,-0.5 -1.5,-0.5 -2,0 l -4.1,3.6 c -1.7,1.4 0.4,3.5 1.9,2.3 z"
   id="path172"
   inkscape:connector-curvature="0"
   style="fill:#030072" />
<path
   class="st8"
   d="m 581.535,240.2941 0.2,3.8 c 0.1,1.1 1,1.9 2.1,1.9 0.6,0 1.2,-0.4 1.5,-0.9 l 6.1,-8.8 h -3.4 c 0.5,1 0.7,2 0.6,3.1 0,1.1 0.9,2 2,2 2.6,0 4.9,-1.5 6,-3.8 h -3.3 l 1.5,2.9 c 0.3,0.6 1,1 1.7,1 2.4,-0.3 3.8,-1.7 5.5,-3.3 0.4,-0.4 0.8,-0.7 1.3,-1 0.3,-0.1 0.5,-0.1 0.4,-0.2 0.4,0.3 0.5,0.7 0.3,1.2 -0.5,1 -0.2,2.2 0.8,2.7 0.3,0.1 0.6,0.2 0.9,0.2 l 3.1,0.3 c 1.1,0 2,-0.9 2,-1.9 0,-1.1 -0.9,-2 -2,-2 l -3.1,-0.3 1.7,2.9 c 1.5,-2.4 0.1,-6.2 -2.7,-6.9 -1.8,-0.4 -3.5,0.5 -4.8,1.6 -0.9,0.8 -2.1,2.6 -3.4,2.7 l 1.7,1 -1.5,-2.9 c -0.6,-0.9 -1.8,-1.2 -2.8,-0.6 -0.3,0.2 -0.5,0.4 -0.6,0.6 -0.4,1.1 -1.5,1.9 -2.7,1.9 l 2,1.9 c 0,-1.8 -0.4,-3.5 -1.2,-5.1 -0.7,-1.4 -2.6,-1.1 -3.4,0 l -6.1,8.8 3.7,1 -0.2,-3.8 c 0,-2.4 -3.9,-2.4 -3.9,0 z"
   id="path174"
   inkscape:connector-curvature="0"
   style="fill:#030072" />
<path
   class="st8"
   d="m 624.435,242.6941 c 1.4,-1.1 2.6,-2.6 3.3,-4.2 l -2.8,-0.8 c -0.1,2.8 2.1,5.1 4.9,5.2 2.3,0.1 4.3,-1.4 5,-3.6 l -2.7,0.4 1.3,1.9 c 0.4,0.7 1.3,0.9 2,0.5 0.7,-0.4 0.9,-1.3 0.5,-2 l -1.3,-1.9 c -0.4,-0.7 -1.4,-0.9 -2.1,-0.5 -0.3,0.2 -0.5,0.5 -0.6,0.8 -0.1,0.2 -0.1,0.2 0,0.1 0,0.1 -0.1,0.2 -0.2,0.3 -0.1,0.1 -0.3,0.4 -0.1,0.2 -0.2,0.2 -0.4,0.4 -0.7,0.5 -0.2,0.1 -0.4,0.2 -0.6,0.3 -0.2,0 -0.2,0 -0.1,0 h -0.3 c -0.1,0 -0.5,0 -0.2,0 -1.1,-0.2 -1.9,-1.1 -1.8,-2.2 0,-1.4 -2.1,-2.1 -2.8,-0.8 -0.7,1.4 -1.6,2.6 -2.9,3.6 -0.6,0.6 -0.6,1.5 0,2.1 0.7,0.6 1.6,0.6 2.2,0.1 z"
   id="path176"
   inkscape:connector-curvature="0"
   style="fill:#030072" />
<path
   class="st8"
   d="m 615.235,241.4941 c 1.9,1.2 4.3,1.2 6.2,-0.1 0.3,-0.2 0.6,-0.5 0.7,-0.9 0.1,-0.4 0.1,-0.8 -0.2,-1.1 -0.4,-0.7 -1.3,-0.9 -2,-0.5 -0.2,0.2 -0.5,0.3 -0.8,0.4 l 0.4,-0.1 c -0.3,0.1 -0.7,0.2 -1,0.3 l 0.4,-0.1 c -0.4,0 -0.8,0 -1.2,0 l 0.4,0.1 c -0.3,-0.1 -0.7,-0.1 -1,-0.3 l 0.4,0.1 c -0.2,-0.1 -0.5,-0.2 -0.7,-0.4 -0.7,-0.4 -1.6,-0.2 -2,0.5 -0.4,0.7 -0.2,1.6 0.5,2.1 z"
   id="path178"
   inkscape:connector-curvature="0"
   style="fill:#030072" />
<path
   class="st8"
   d="m 680.835,241.0941 5.5,-2.1 -1.9,-1.1 c 0.2,1.1 0.2,2.3 0.1,3.5 0,0.8 0.6,1.5 1.5,1.6 0.4,0 0.8,-0.1 1.1,-0.4 1.3,-1.3 3.3,-1.6 4.9,-0.6 1.1,0.6 2.2,1.3 3.5,1 1.2,-0.3 2.1,-1.4 2.1,-2.6 -0.1,-1.9 -3.1,-1.9 -3,0 0,-0.3 0.1,-0.1 0,-0.3 -0.2,-0.1 -0.4,-0.2 -0.6,-0.3 -0.2,-0.1 -0.5,-0.3 -0.7,-0.4 -2.7,-1.6 -6.2,-1.1 -8.4,1.1 l 2.6,1.1 c 0.1,-1.4 0,-2.9 -0.2,-4.3 -0.2,-0.8 -1.1,-1.2 -1.8,-1 l -5.5,2.1 c -0.8,0.3 -1.2,1.1 -1,1.8 0.2,0.8 1,1.3 1.8,1.1 z"
   id="path180"
   inkscape:connector-curvature="0"
   style="fill:#030072" />
<path
   class="st8"
   d="m 709.635,239.1941 c 3.3,1.7 7.1,1.8 10.5,0.4 0.7,-0.4 0.9,-1.3 0.5,-2.1 -0.4,-0.7 -1.3,-0.9 -2,-0.5 0.2,-0.1 -0.3,0.1 -0.3,0.1 0,0 -0.3,0.1 -0.5,0.1 -0.4,0.1 -0.7,0.2 -1.1,0.3 h -0.2 l -0.6,0.1 c -0.3,0 -0.7,0 -1,0 -1.3,-0.1 -2.5,-0.4 -3.7,-1 -0.7,-0.4 -1.6,-0.2 -2.1,0.5 -0.5,0.7 -0.2,1.6 0.5,2.1 0,-0.1 0.1,-0.1 0.1,0 z"
   id="path182"
   inkscape:connector-curvature="0"
   style="fill:#030072" />
</svg>