<svg xmlns="http://www.w3.org/2000/svg" width="685" height="351" viewBox="0 0 685 351">
  <title>Prescription</title>
  <g id="Layer_40" data-name="Layer 40">
    <g>
      <path d="M216.75,75.3c.87-1.11,3.27-1.84,4.43-1.84,9.66,0,13.36,7.44,13.36,15.59,0,9-3.85,15-12.12,18.42l-.29,17.83c-.37,1.71-1,2.17-2.91,2.17-1.52,0-2.9-.53-2.9-2.5Zm5.88,26.51c4.29-2.23,6.17-7.43,6.17-12.17,0-3.68-.43-10.39-5.66-10.39Z"/>
      <path d="M241.8,125.89c0-16.64.37-27.83,1-47.43.14-3.55,1.67-3.81,5-3.81h.72c6.9,0,11.26,4.21,11.26,10.13v.65c0,4.67-1,9.87-5.3,12.9,5,4.14,4.43,16.77,4.72,22.63v.59c0,1.84-1.46,2-3,2-1,0-2.47,0-2.9-1.31-.08-2-.73-11.91-.95-14-.22-2.63-.94-6.44-4-6.44h-.29a25.13,25.13,0,0,0-.22,2.89c-.07.53-.44,14.28-.51,19.54v.46c0,1.45,0,3-2.54,3a3.72,3.72,0,0,1-3-1.45Zm6.46-30.26c4.07-.2,5.67-7.56,5.67-10.2s-1.24-5.72-4.58-5.72c-.29,0-.58.26-.58.79Z"/>
      <path d="M267.07,80.76a3.45,3.45,0,0,1,3.41-3.15H281.3A6.18,6.18,0,0,1,284,79.32a1.72,1.72,0,0,1,.15.79c0,1.77-2.4,2.63-3.78,2.63h-7.26c0,3.29.08,6.31.29,18.88l3.34-.27c1.17-.13,2.55-.19,3.71-.26,2,0,2.9,1,2.9,2.1,0,2.44-2.1,3.49-9.8,3.36l-.22,14.6h2.54c1.24,0,2.4-.06,3.85-.19.15,0,.22-.07.36-.07a11.72,11.72,0,0,1,1.53-.07c2,0,3.34.46,3.41,2.57.07,1.71-4.65,2.43-9.29,2.43-4,0-7.92-.59-7.92-1.71Z"/>
      <path d="M294,113.33c1.74.65,2,2.3,2.1,4.14.15,1.58.44,3.16,1.45,3.88,2.91-.2,4-4.34,4-6.58a24.07,24.07,0,0,0-1.75-9.86,33.35,33.35,0,0,0-2.83-4.48l-.8-1.45-.58-.72c-2.68-3.88-6.1-9-6.1-13.75,0-3.81,2.69-10.26,8-10.26,3.49,0,9,2.57,9,6.45,0,1.64-.43,2.63-2.68,2.63-1.09,0-3.05-1.12-3.27-2.24,0-.06-.07-.06-.07-.13a2.62,2.62,0,0,0-2.33-1.31c-2.46,0-2.68,3.81-2.68,5.65,0,3.88,2.54,7.5,5.23,10.72a32.76,32.76,0,0,1,6.75,19c0,6.31-2.76,11.31-9.95,11.31-5.88,0-7.62-6.11-7.62-10.32C289.87,114.51,292.34,112.86,294,113.33Z"/>
      <path d="M333.65,78.86c0,2.69-3.71,2.76-5.45,2.69h-.8c-6.1,0-8.64,11.78-8.64,18.55,0,7.5,1,13.29,6.1,17.44v-.07a8.39,8.39,0,0,0,4.87,1c1.67-.14,3.12-.14,3.92,1.05,2,3.09-1.16,4.14-4.07,4.14-12.49,0-17.21-11.44-17.21-22.43a38.54,38.54,0,0,1,1.31-9.73c1.89-6.58,5.66-15.73,15.9-15.86C331.4,75.63,333.65,76.82,333.65,78.86Z"/>
      <path d="M339.24,125.89c0-16.64.36-27.83,1-47.43.14-3.55,1.67-3.81,5-3.81H346c6.9,0,11.25,4.21,11.25,10.13v.65c0,4.67-1,9.87-5.3,12.9,5,4.14,4.43,16.77,4.72,22.63v.59c0,1.84-1.45,2-3,2-1,0-2.47,0-2.91-1.31-.07-2-.72-11.91-.94-14-.22-2.63-.94-6.44-4-6.44h-.29a25.13,25.13,0,0,0-.22,2.89c-.08.53-.44,14.28-.51,19.54v.46c0,1.45,0,3-2.54,3a3.7,3.7,0,0,1-3-1.45Zm6.46-30.26c4.07-.2,5.66-7.56,5.66-10.2s-1.23-5.72-4.57-5.72c-.29,0-.58.26-.58.79Z"/>
      <path d="M366.39,78.46c.8-1.91,1.31-2,3.2-2,3.12,0,3.12,1.18,3,3.62l-2.17,43.61c-.08,3.29-1.89,3.29-3.34,3.29a2.31,2.31,0,0,1-2.54-2.11Z"/>
      <path d="M380.33,77.15c.44-1.25,2.25-1.25,3.92-1.25C392,75.9,397,82.54,397,89.31c0,6.58-5,13.88-11.4,17.37-.14,3.09-.29,12.7-.29,17.7v2.23c-1.67,3.09-6.1,1.65-5.3-2.43Zm5.23,23.35c3.56-3,5.74-6.58,5.74-11.32,0-2.76-1.82-7.56-5.3-8.15Z"/>
      <path d="M405.53,80.7l-4.65-.2a3.29,3.29,0,0,1-1.67-2.56c0-1.32,1.45-2.44,5.3-2.5.8,0,1.82,0,8.71.13,1.89.06,5,.46,5,2.89a2.58,2.58,0,0,1-2.32,2.11H411l1.67,37.36c.44,3.82-2.39,3-3.12,3-.51,0-2.76-.66-2.76-1.78Z"/>
      <path d="M425.13,78.46c.8-1.91,1.31-2,3.2-2,3.12,0,3.12,1.18,3,3.62l-2.17,43.61c-.08,3.29-1.89,3.29-3.34,3.29a2.32,2.32,0,0,1-2.55-2.11Z"/>
      <path d="M437,94.58c0-8.49,1.16-19.93,13.72-19.41,9,.92,11.18,15.33,11.18,26.84,0,3.88-.22,7.37-.44,9.93-.43,4.81-3.34,13.23-10.81,13.23-13.22,0-13.65-19.28-13.65-26.91Zm5.88,3.48c0,17.37,3.27,22.24,7.55,22.24,5.73,0,5.81-15,5.81-18.88v-.26c0-4.54-1.24-21.25-7-21.25C442.7,79.91,442.85,94.71,442.85,98.06Z"/>
      <path d="M468,92.28c0-14.61,0-15.59,3.71-15.46a4,4,0,0,1,3.7,2.83l12.12,29.73.15-3.88c.36-8.55,1-20.86,1.52-26.38a2.84,2.84,0,0,1,2.91-2.24c1.45,0,2.76,1,2.68,3.16s-.22,4.14-.43,7.1c-.44,6.12-1.16,16.84-1.89,37-.65,1.38-2.25,1.45-3.56.85-1.38-.79-3.92-6.51-6.31-12.3-3.05-7.43-6.1-14.47-9.15-22l-.51,33c0,1.51-1.52,2.24-2.83,2.24s-2.54-.66-2.54-1.85C468,109.31,468,99.18,468,92.28Z"/>
    </g>
    <path d="M50.66,94.76c.4,15.29,1,30.57,1.28,45.87s.11,30.59-.07,45.89q-.07,6.48-.21,13c-.08,4.32-.32,8.65-.26,13,0,2.82,4.12,2.62,4.31-.1.52-7.61.38-15.32.46-22.94s.11-15.29.08-22.94-.29-15.29-.43-22.94-.33-15.29-.59-22.93C55,112,54.63,103.31,54,94.68c-.15-2.16-3.43-2.1-3.38.08Z" style="fill: #333"/>
    <path d="M52.86,215.27l7.82-.19c1.31,0,2.61-.06,3.91-.11s3,.18,4.15-.63a1.7,1.7,0,0,0-.07-2.89c-1.19-.73-2.84-.39-4.17-.35s-2.61.11-3.91.18l-7.82.37c-2.33.11-2.25,3.68.09,3.62Z" style="fill: #333"/>
    <path d="M69.88,213.63a14.78,14.78,0,0,0,.61-5.5l-.12-6c-.07-3.74-.08-7.49-.1-11.23q0-11.37.07-22.73c0-1.74,0-3.49,0-5.24,0-1.93.43-3.81.45-5.75,0-3.83.13-7.66.14-11.49q0-11.23.2-22.46.1-6.24.24-12.48c0-2.16-.28-4.31-.27-6.48,0-1,.08-2,0-3-.09-1.2-.26-2.27-.26-3.49a3.09,3.09,0,0,0-6.17.16c-.11,1.85-.48,3.63-.58,5.49,0,1-.06,2-.15,3s-.38,2-.45,3c-.27,3.81-.19,7.67-.26,11.49q-.21,11.22-.26,22.46c0,3.83,0,7.65.08,11.48a37.07,37.07,0,0,0,.38,6,34.75,34.75,0,0,1,.25,5q.32,11.47.79,23c.17,4.16.37,8.31.54,12.47.09,2.16.18,4.33.28,6.49a16.79,16.79,0,0,0,1.2,6.39c.73,1.61,2.87.75,3.34-.52Z" style="fill: #333"/>
    <path d="M54.47,96l-.08-.09-.34,1.43a1.38,1.38,0,0,0,.5-.25c-.26,0-.3,0-.14,0a1.31,1.31,0,0,1,.28,0c.45,0,.91.06,1.36.1q1.58.12,3.15.27a45.66,45.66,0,0,1,6,.76l-.75-.41c1.24.91,3.18,1.62,4.4.29A1.91,1.91,0,0,0,69,95.88a2.53,2.53,0,0,0-2.7-1.13c-.36,0-.72.13-1.08.17a6.68,6.68,0,0,1-1.09-.09c-1.36-.1-2.72-.23-4.08-.32s-2.73-.17-4.1-.22-3-.27-3.6,1.35a1.39,1.39,0,0,0,1.37,1.72c.14,0,.27,0,.41-.06.64-.11.64-.93.31-1.32Z" style="fill: #333"/>
    <path d="M53.59,96.63c6.59-.12,13.23.16,19.82.3s13,.37,19.56.93c9.8.84,20.78,2.62,27.78,10.22,6.33,6.87,7.64,17.38,4.91,26.07-2.9,9.25-10.48,16.41-19,20.64-11.63,5.78-25.54,6-38.09,3.66a2.86,2.86,0,0,0-3.38,2,2.8,2.8,0,0,0,2,3.38c12.79,2,26.31,2.11,38.44-3,9.88-4.17,18.81-11.52,23.27-21.45,4.35-9.69,4.08-21.54-1.6-30.66-6.14-9.85-17.52-13.64-28.48-15a163.21,163.21,0,0,0-22.1-1.36,112.09,112.09,0,0,0-11.88.57c-3.91.46-7.76,1-11.64,1.67-1.19.19-.82,2.08.34,2.06Z" style="fill: #333"/>
    <path d="M68.34,164.69c2.8.36,5.59.82,8.4,1.16a71.49,71.49,0,0,0,8.54.37,71.11,71.11,0,0,0,8.5-.38,61.71,61.71,0,0,0,8.42-1.54,43.06,43.06,0,0,0,24.35-16.12A30.83,30.83,0,0,0,132,135.54a48.31,48.31,0,0,0,.35-7.5,32.49,32.49,0,0,0-1.42-8.79c-1.25-4.82-3.18-9.57-6.51-13.34-3.61-4.1-8.82-5.84-14.08-6.59-14-2-28.19-2.08-42.29-1.83-4.12.07-3.91,6.72.16,6.36a199.5,199.5,0,0,1,35.33.41c4.75.44,10,.67,14.19,3.25,3.51,2.17,5.53,6.12,6.87,9.88q1.22,3.38,2.1,6.86a27.25,27.25,0,0,1,1.19,7.58,25.07,25.07,0,0,1-3.64,11.79c-4.47,7.61-12,13-20.3,15.79a59.52,59.52,0,0,1-8.63,2.16c-2.92.51-5.88.66-8.81,1.05a86.13,86.13,0,0,1-8.8.26c-3.07.09-6.14.23-9.21.12-1,0-1.16,1.57-.19,1.69Z" style="fill: #333"/>
    <path d="M67.28,99.89a4.62,4.62,0,0,1-2.06-.68c-.26-.26-.46-.59-.73-.85a3.87,3.87,0,0,0-2.55-1C60,97.17,58,97,56,96.94a3.82,3.82,0,0,0-3.7,3.89c.16,3.47.53,6.93.62,10.4s.1,6.92.07,10.38c0,6.92-.28,13.83-.47,20.75q-.59,20.59-1.1,41.19l-.61,23.33c0,1.86,1.38,3.06,2.93,3.66a15.79,15.79,0,0,0,8.56.6c1.69-.29,2.81-2.29,2.79-3.86-.31-27.9-.47-55.77.2-83.66.19-7.8.46-15.6.72-23.4a4.17,4.17,0,0,0-4.24-4,4.24,4.24,0,0,0-4,4.24c-.13,2.95-.23,5.89-.41,8.84a23.72,23.72,0,0,0,1.23,8.93c.6,1.79,3.37,2.33,4.27.45a21.84,21.84,0,0,0,1.62-4.2,30.83,30.83,0,0,0,.84-5.13c.2-3,.46-6.06.72-9.1l-8.27.21c-1.14,27.85-1.41,55.77-1,83.64.11,7.8.22,15.6.49,23.4L60,203.6c-.73.15,0,.09-.7.09l-1.24,0a12,12,0,0,1-2.47-.67l2.93,3.65c.65-27.59,1.63-55.19,1.82-82.79,0-3.79,0-7.57-.1-11.36-.1-4-.07-7.94-.37-11.9l-3.71,3.89a53.32,53.32,0,0,0,5.93,0,4,4,0,0,0,2.5-1.11,9.1,9.1,0,0,1,.69-.7c.42-.32-.07-.06.4-.1s1.09-.18,1.63-.27c1.29-.21,1.07-2.18-.06-2.45Z" style="fill: #333"/>
    <path d="M72.43,102.52c-.84-1.09-1.74-2.14-2.58-3.21l-1.38,2.56a12.93,12.93,0,0,0,3-1,23.91,23.91,0,0,1,2.73-.73l.67-.12c.22,0,.25-.05.08,0l.39,0c.45-.06.9-.11,1.35-.14s.9-.06,1.36-.06a2.69,2.69,0,0,0,1.33-.29l.57-.32a1.51,1.51,0,0,0-.06-2.58A3.18,3.18,0,0,0,77.94,96c-.51,0-1,0-1.55.1a28.27,28.27,0,0,0-3.17.51,24.23,24.23,0,0,0-2.8.8A8.24,8.24,0,0,0,67.21,99a1.69,1.69,0,0,0,.81,2.79,5.69,5.69,0,0,1,1.64.56,6.06,6.06,0,0,1,1.49,1.18c.65.65,1.87-.28,1.28-1Z" style="fill: #333"/>
    <path d="M68.27,106.94a6.26,6.26,0,0,0,3.64,1.14,7,7,0,0,0,1.93-.29,7.75,7.75,0,0,0,.91-.35,2.48,2.48,0,0,0,.76-.47,2.57,2.57,0,0,0,.41-.62,1.51,1.51,0,0,0-1.34-2.21h-.31a2.43,2.43,0,0,0-1,.34c-.06,0-.25.18-.32.17s.37-.16.14-.07l-.16.07a5.45,5.45,0,0,1-.69.2l-.17,0c-.22,0,.12,0,.16,0a1.44,1.44,0,0,1-.41.05c-.23,0-.47,0-.71,0h-.36l-.17,0c-.19,0,.31,0,.12,0s-.46-.09-.69-.15l-.34-.11c-.17,0,.24.11.08,0l-.21-.09a1.35,1.35,0,0,0-1.8.51,1.38,1.38,0,0,0,.52,1.8Z" style="fill: #333"/>
    <path d="M69.73,108.32c1.84.89,3.66.79,5.66.86,1,0,2.06.09,3.09.15a20.08,20.08,0,0,1,3,.54c2.07.45,4.27.5,6.36.86s4.06.76,6.07,1.2c6.29,1.38,14.26,3.07,16.47,10a38.44,38.44,0,0,1,1.62,11,18.69,18.69,0,0,1-.79,5.15c-.08.32-.19.48.07.18a3.23,3.23,0,0,1-.41.27,10.59,10.59,0,0,0-1.13,1c-.6.62-1.13,1.29-1.74,1.9a16.72,16.72,0,0,1-3.55,2.57c-.67.38-1.34.73-2,1.05s.38-.16-.19.08l-.53.22c-.44.18-.88.35-1.33.51a56.44,56.44,0,0,1-10.92,2.69,91.76,91.76,0,0,1-13,.7c-2.27,0-4.54-.1-6.81-.19-1,0-2.11-.1-3.16-.1a5,5,0,0,0-4.32,2.48,3,3,0,0,0,.07,3,4.79,4.79,0,0,0,4,2.48c1.13.09,2.27.11,3.39.15,2.12.07,4.24.09,6.36.08a98.35,98.35,0,0,0,12.83-.82c8.28-1.15,17.13-3.56,23.34-9.48a10.89,10.89,0,0,0,3.33-5c.06-.25.16-1.69,0-1a14.23,14.23,0,0,1,.58-1.57,16.32,16.32,0,0,0,.7-3.17c.51-4.26-.19-8.66-1-12.83-.81-4-2.53-7.62-5.78-10.12a28.28,28.28,0,0,0-10.27-4.6A88.54,88.54,0,0,0,84.56,106l-1.89-.15a12.32,12.32,0,0,0-1.92.15c-1.23.11-2.53,0-3.78-.06-2.48,0-5.08-.24-7.27,1.07a.79.79,0,0,0,0,1.35Z" style="fill: #333"/>
    <path d="M68.26,159.23a52.74,52.74,0,0,0,6.26.56c2,0,3.91-.17,5.86-.33q6.23-.51,12.41-1.28c3.81-.47,7.65-1,11.43-1.63,3.55-.64,7.24-1.8,10-4.16,2.6-2.22-.38-7-3.53-5.73a144.61,144.61,0,0,1-35.37,9.67c-2,.25-3.85,1.69-3.7,3.88a3.91,3.91,0,0,0,3.89,3.7c5,.4,10.16-.72,15-1.93a127.13,127.13,0,0,0,14.1-4.66c4.56-1.71,9.11-3.58,12.71-6.95s6.27-8,5.65-13.09a4.6,4.6,0,0,0-8.62-2.11c-.29.58-.62,1.14-.91,1.72-.22.42-.8,1.89-.42,1-.14.33-.28.66-.44,1s-.26.52-.38.78-.13.25,0,.07l-.26.34a20.23,20.23,0,0,1-1.43,1.64l6.48,4.75a60.56,60.56,0,0,0,7.13-17.27,24.33,24.33,0,0,0-3.64-18.81c-7.06-9.89-19.44-13-31-13.1-3.71,0-7.43.21-11.14.38-1.77.07-3.55.14-5.32.15a46.82,46.82,0,0,0-5.8,0l.27,11.09a40.22,40.22,0,0,1,8.12-.59l8.14.51c5.36.34,10.7.78,16.05,1.17l3.95.29,1.62.11.77.07c1.26.11-.81-.15.45,0a14.14,14.14,0,0,1,3,.71c-.68-.27.32.22.52.33.54.3-.42-.39.06,0a5.38,5.38,0,0,1,.68.67c-.42-.5,0,0,0,.11s.27.45.39.67c.39.7.13.27.06.1.1.24.19.49.28.74.41,1.16.73,2.35,1,3.53s.6,2.43.86,3.65c.11.54.21,1.07.31,1.61.06.31.11.62.16.92a4.08,4.08,0,0,1,.12.78,70.46,70.46,0,0,1,.37,17.29c-.17,1.55,1.26,3.11,2.56,3.62a4,4,0,0,0,4.38-.94c3.15-3.36,4-7.69,4.2-12.15.07-2,0-3.95,0-5.92a29.14,29.14,0,0,1,.15-3c-.11,1.06.08-.48.1-.67.07-.47.15-.94.25-1.41l-5,3c.45.12.39.1-.16-.08a1.74,1.74,0,0,1-.64-.65c0,.08.51,1.18.14.12.11.3.18.61.28.92q.14.69,0-.09,0,.33.06.66a35.81,35.81,0,0,1-.21,5.67c0,.61-.18,1.52-.32,2.44s-.35,2-.56,3a60.36,60.36,0,0,1-1.78,6.35c-1.1,3.23,3.19,6.28,5.93,4.34a8.4,8.4,0,0,0,3.31-9.59,3.87,3.87,0,0,0-7.4,2.24c.31,1,0-.71,0,.31,0-.75,0,0-.1.29.19-.65,0,0-.22.27.46-.64-.49.22.2-.27l5.93,4.33a63.07,63.07,0,0,0,3.13-15.8c.37-5.07-.18-10.52-5.63-12.52-2.18-.8-4.42,1.07-5,3-1.17,3.78-.81,7.81-.75,11.7,0,.85,0,1.7,0,2.54,0,.19-.14,1.71,0,.66a12.43,12.43,0,0,1-.22,1.36c-.06.33-.14.66-.23,1s-.13.43-.2.64c.19-.46.19-.48,0,0s-.42.78-.64,1.18-.25.37,0,0c-.15.18-.3.36-.46.53l6.94,2.68a77.13,77.13,0,0,0-.17-16.36,82.26,82.26,0,0,0-1.53-8.69,32.48,32.48,0,0,0-2.56-7.69c-2.76-5.32-8.57-6.24-14-6.67l-17-1.36c-3.21-.25-6.42-.55-9.63-.84l-2.47-.22a8.09,8.09,0,0,1-1-.09c.56.13-.76-.27-.75-.26-1.6-.37-3.15-.82-4.71-1.29a5.59,5.59,0,0,0-6.73,4,5.68,5.68,0,0,0,4,6.72,20.37,20.37,0,0,0,5.35.5c1.61,0,3.23,0,4.84,0,3.07-.07,6.14-.24,9.21-.32s6.12,0,9.18.2c1.56.11-.72-.11.07,0l.87.12,1.39.23c1.16.22,2.31.49,3.45.82.57.16,1.14.34,1.7.53l.68.24c.93.33-.33-.11-.41-.17a10.73,10.73,0,0,0,1.62.71c.53.25,1.06.52,1.57.8a28.64,28.64,0,0,0,2.66,1.66c-1.07-.42-.72-.54-.24-.15.23.17.45.36.66.54.43.37.85.75,1.26,1.15s.78.81,1.16,1.22.42.77-.28-.36c.11.19.27.36.4.54a16.39,16.39,0,0,1,.92,1.42c.28.48.83,2,.32.48.38,1.17.78,2.27,1.07,3.47.34,1.39,0-.8,0,.09,0,.37.09.75.12,1.12,0,.76.07,1.51.06,2.27,0,1.62,0,3.23,0,4.85,0,.2-.09,1,0,0q-.07.66-.18,1.32c0,.29-.09.58-.14.87s-.48,2.43-.23,1.31a31.46,31.46,0,0,1-1.33,4.64c.21-.54-.07.14-.1.2-.18.41-.35.82-.54,1.22a20,20,0,0,1-1.22,2.34,4.05,4.05,0,0,0,6.47,4.75c1.06-1.08,2-2.24,3.07-3.35a15.17,15.17,0,0,0,2.91-4.34l-8.42-.89c-.2-1.13,0,.5,0,.72,0,.53,0,.51,0-.05a5.67,5.67,0,0,1-.1.57,12.17,12.17,0,0,1-.34,1.32c0,.15-.55,1.65-.21.8-.15.37-.37.72-.51,1.08s-.26.46,0,.17c-.16.21-.33.42-.5.62s-.53.6-.81.88c-.1.1-1.12,1-.74.71-3.22,2.65-6.54,3.75-10.25,5.28a112.8,112.8,0,0,1-12.5,4.5,37.47,37.47,0,0,1-12.73,1l.19,7.58a130,130,0,0,0,38-11l-4.35-5.36a11.89,11.89,0,0,1-3.35,2.56,22.88,22.88,0,0,1-4.2,1.36,94.32,94.32,0,0,1-10.44,1.74q-5.7.8-11.43,1.38c-2,.2-4,.37-6,.69s-3.73.75-5.61,1.22c-1.28.32-1.32,2.51.06,2.69Z" style="fill: #333"/>
    <path d="M127,123.28a13.84,13.84,0,0,0,1.38-5.44c.09-2.24-1.27-4.32-2.71-5.91-3-3.35-7.13-5-11.13-6.91A99.14,99.14,0,0,0,101,99.26a67.9,67.9,0,0,0-13.72-2.49c-2.6-.24-5.22-.37-7.83-.45a33.07,33.07,0,0,0-8.2.32c-3.06.7-2.71,5.3.15,6a29.73,29.73,0,0,0,6.6.45q3.12,0,6.23.22A69.15,69.15,0,0,1,96,104.91a60.29,60.29,0,0,1,11.3,4.09c3.8,1.72,7.8,3.12,11.46,5.12a11.47,11.47,0,0,1,4.26,3.25c.27.36.53.72.78,1.1s.77.85,1,1.31a3.27,3.27,0,0,1-.14,2.58c-.49,1.36,1.7,2.18,2.35.92Z" style="fill: #333"/>
    <path d="M62.3,206.19a11.07,11.07,0,0,1,.6,1.76l.12.52c0,.08.07.4,0,.15.05.33.08.66.1,1s0,.62,0,.93c0,.16,0,.31,0,.47a2.46,2.46,0,0,1,0,.26c0-.14,0-.16,0-.06a13.4,13.4,0,0,1-.41,1.88,1.49,1.49,0,0,0,.9,1.74,1.47,1.47,0,0,0,1.85-.66,2,2,0,0,0,.17-1.39v.75a3.4,3.4,0,0,0,.09-.64.77.77,0,0,0,0-.3c0-.24,0-.22,0,.07a4.61,4.61,0,0,1,.11-.85.86.86,0,0,0-.4-.93.85.85,0,0,0-1,.15c-.19.22-.47.56-.62.7s-.34.28-.43.38c.19-.13.13-.07-.21.18a1.37,1.37,0,0,0-.28.44l2.75,1.08a12.55,12.55,0,0,0-.83-8.73,1.36,1.36,0,0,0-1.73-.52,1.35,1.35,0,0,0-.75,1.63Z" style="fill: #333"/>
    <path d="M93.43,165.26a1.45,1.45,0,0,1-.37-.91l-2-.22a29.59,29.59,0,0,0,1.26,3.1c.42,1,.77,2.05,1.22,3.06.91,2.06,2,4.07,3,6.09,2,4.12,4.15,8.19,6.32,12.24q6.44,12,13.24,23.86c1.24,2.16,2.52,4.3,3.8,6.44.66,1.11,1.32,2.21,2,3.31s1.48,2.21,3,2.44a1.47,1.47,0,0,0,1.72-1c.76-2.25-1.08-4.28-2.18-6.09s-2.32-3.86-3.47-5.8c-2.3-3.88-4.62-7.74-6.88-11.63-4.54-7.79-8.81-15.72-13.21-23.58-1.25-2.24-2.5-4.49-3.73-6.75-.58-1.06-1.24-2.06-1.89-3.08s-1.32-2.41-2.14-3.48a1.1,1.1,0,1,0-1.71,1.38,10.14,10.14,0,0,0,1.38,1.4c.44.32,1-.33.72-.75Z" style="fill: #333"/>
    <path d="M104.08,162.43c3.12,4.86,6.5,9.68,9.08,14.86,1,2,3.89.16,2.92-1.8-2.38-4.82-5-9.54-7.46-14.29a2,2,0,0,0-3.42,2.11c6.92,14.44,15.44,28,24.2,41.42Q143,225.57,157.6,245.8c1.32,1.84,2.65,3.67,4,5.51l2.15,2.94a8.81,8.81,0,0,0,2,2.35c1.65,1.06,4.33-.08,3.64-2.3a1.92,1.92,0,0,0-3.69-.19,1.53,1.53,0,0,0,2.27,1.66l.13-.1-1.2.19.12,0-1-.71.5-1.67.94-.27.4.14-.58-.78-.86-1.18-1.44-2-3.42-4.72q-3.14-4.33-6.21-8.7-6.31-8.94-12.46-18c-7.94-11.71-15.83-23.51-23-35.71-4.06-6.89-7.88-13.92-11.3-21.16l-3.42,2.11c2.63,4.68,5.21,9.38,8,14l2.64-2.14c-3.74-4.24-6.87-9.09-10.14-13.7-.68-1-2.23,0-1.58,1Z" style="fill: #333"/>
    <path d="M121.89,215.62c-4.58,6.78-8.59,13.93-13.36,20.6-.93,1.3,1.31,2.95,2.27,1.66A191.43,191.43,0,0,0,124.46,217c.79-1.41-1.34-3.1-2.35-1.73q-14.3,19.46-28.58,38.91c-.84,1.14.62,2.56,1.79,2.22a38,38,0,0,1,20.38-.22l.33-3c-6.06-.2-12.12-.37-18.19-.55-2-.06-1.85,2.92.08,3q5.42.28,10.83.24c1.64,0,3.28-.05,4.92-.11a13.81,13.81,0,0,0,4.82-.7c2.75-1.15,4-4.18,5.36-6.6q2.58-4.5,5.24-8.94,10.38-17.4,22-34c4.39-6.32,8.86-12.59,13.47-18.75a1.87,1.87,0,0,0-.07-2.56,1.82,1.82,0,0,0-2.56.06Q150,200.08,139.33,216.7,134,225,128.93,233.51q-2.59,4.35-5.11,8.75c-1.58,2.75-3,5.62-4.7,8.31a4.3,4.3,0,0,1-3.71,2.09c-1.91.16-3.84.17-5.75.21-3.94.06-7.88,0-11.82-.26l.08,3q9.09.31,18.19.61c1.77.05,2-2.6.34-3a41.06,41.06,0,0,0-22,.26l1.8,2.22q14.14-19.32,28.23-38.67l-2.57-1.42a186.49,186.49,0,0,1-13.14,20.33l2.27,1.67c4.73-6.68,9.32-13.75,12.14-21.47.28-.78-.86-1.1-1.27-.5Z" style="fill: #333"/>
    <path d="M119.38,223.87a62.75,62.75,0,0,0,6.84-8.23q3.15-4.29,6.22-8.64,6.21-8.79,12-17.88c1-1.52-1.37-3.24-2.56-1.87a220.93,220.93,0,0,0-16,20.73c-1.22,1.8,1.69,3.32,2.93,1.62l9.88-13.69,4.8-6.64c1.4-1.94,3.75-4.25,2.84-6.82a1.44,1.44,0,0,0-2.74.06c-.84,2.26-2.46,4.15-3.85,6.1l-4.62,6.45L125.9,208l2.93,1.62a217.22,217.22,0,0,1,15.36-20.15l-2.56-1.87q-5.69,9-11.65,17.79-3,4.35-6,8.64a81.92,81.92,0,0,0-5.83,9,.76.76,0,0,0,1.21.89Z" style="fill: #333"/>
    <path d="M144.59,184.21c7.22,1.18,14.64.64,21.91.49,1.69,0,2.09-2.74.34-3-2.52-.42-4.12,1.74-5.72,3.34-1.91,1.91-3.79,3.85-5.6,5.87s-3.42,4-5.08,6.06-3.49,4.08-4.56,6.54c-.28.65.38,1.45,1.06,1a29.46,29.46,0,0,0,5.19-4.79c1.67-1.76,3.4-3.46,5.05-5.23s3.22-3.45,4.78-5.21l2.51-2.79c.47-.52,1.24-1.74,2-1.76l-.08-3.08-10.87.37c-3.58.11-7.18.72-10.76.48a.89.89,0,0,0-.2,1.74Z" style="fill: #333"/>
    <path d="M160.22,185.51c-2.38-1-4.37-2-6.76-2.26s-5-.49-7.44-.56l.21,8.6c2.26-.34,4.55-.58,6.83-.71a28.14,28.14,0,0,1,3.31,0c1.46.08,2.21.21,3.52.31L158.62,183a37.69,37.69,0,0,0-18.16,14.67,3.49,3.49,0,0,0,1.35,4.7c1.81,1,3.6.16,4.7-1.36,1.91-2.61,3.8-5.24,5.74-7.83a3.41,3.41,0,0,0-4.26-5.25,36.82,36.82,0,0,0-11.4,9.81,3.55,3.55,0,0,0,.12,4.88c1.24,1.18,3.74,1.37,4.88-.12l5.11-6.66-5.52-4.05c-6.55,9.73-13.21,19.38-19.77,29.1a3.57,3.57,0,0,0,1,4.62c1.31.93,3.64,1.06,4.72-.4a183.49,183.49,0,0,1,21.62-24.48l-5.3-5.05a114.32,114.32,0,0,0-13.86,23.76,3.76,3.76,0,0,0,1.07,4.75,3.69,3.69,0,0,0,4.86-.41A109.92,109.92,0,0,0,149,205.16a3.75,3.75,0,0,0-6.56-3.62l-12.74,20.59a3.78,3.78,0,0,0,6.61,3.65c3.87-6,7.72-12,11.63-18a3.77,3.77,0,0,0-1.1-4.87,3.81,3.81,0,0,0-5,.42,272.28,272.28,0,0,0-27,34.24l6.91,3.82,11.38-20.62c2.21-4-3.15-7.78-6.34-4.65A123.5,123.5,0,0,0,109,237.88l6.93,3.82,10.23-16.26c2.27-3.61-3.12-7.46-6-4.38a152.88,152.88,0,0,0-21.54,29.1,3.7,3.7,0,0,0,4.26,5.27c3.69-1,7.35-2.1,11-3.08s2.86-7.06-1.09-6.85c-.61,0,.32.13.63.36q-.42-.42,0,.06a3.5,3.5,0,0,1-.31-.53c.17.38.18.37,0,0,.06.45.06.46,0,0a4.3,4.3,0,0,1,0-.62c0,.41,0,.47,0,.18s.06-.25,0,0a5.75,5.75,0,0,1,.34-.65c.24-.36.27-.42.1-.17a6.68,6.68,0,0,1,.49-.57,24.19,24.19,0,0,1,2.24-2.06l-6.09-3.35-2.93,11.46c-.73,2.85,2.7,5.62,5.26,3.84a29.27,29.27,0,0,0,10.11-12,3.56,3.56,0,0,0-1-4.51c-1.3-.92-3.53-1-4.61.39a16.18,16.18,0,0,0-3.53,11.09,3.61,3.61,0,0,0,2.26,3.19,3.53,3.53,0,0,0,3.86-.83A133.2,133.2,0,0,0,133.32,228l-6.52-2.56c-1.39,5.63-4.65,10.58-7.86,15.46l6.16,3.4,5.68-9c.92-1.47,1.88-2.92,2.77-4.41s1.58-3.29,2.55-4.81a3.09,3.09,0,0,0-5.41-3c-1,1.54-2.26,2.89-3.27,4.41s-1.85,2.93-2.78,4.4l-5.7,9a3.52,3.52,0,0,0,6.16,3.4c3.54-5.36,7-10.85,8.55-17.15a3.53,3.53,0,0,0-6.51-2.56,124.83,124.83,0,0,1-12.61,21.31l6.12,2.36a9,9,0,0,1,1.52-6.07L116.55,238a21.35,21.35,0,0,1-7.65,9.44l5.26,3.84,3.08-11.42a3.67,3.67,0,0,0-1.75-4,3.77,3.77,0,0,0-4.34.67c-2.73,2.23-5.38,5.1-5.27,8.87s3.23,7.28,7.13,7.08l-1.1-6.85c-3.7,1-7.43,1.82-11.14,2.78l4.26,5.26a128,128,0,0,1,20.55-27.48l-6-4.38-10.63,16a4,4,0,0,0,1.55,5.38,4.07,4.07,0,0,0,5.38-1.56,128.7,128.7,0,0,1,16.58-20.13l-6.34-4.65L114.8,237.55a4,4,0,0,0,1.55,5.37,4.06,4.06,0,0,0,5.36-1.55,358.65,358.65,0,0,1,25.64-32.82l-6.07-4.46c-3.83,6-7.73,12-11.59,18l6.61,3.65L149,205.16l-6.56-3.62a100.76,100.76,0,0,1-12.24,17l5.93,4.35a108.31,108.31,0,0,1,12.67-22.29c1.18-1.58,1.43-3.7-.12-5.17a3.74,3.74,0,0,0-5.18.12,189.2,189.2,0,0,0-22.08,25.31l6.3,3.48c6.53-9.73,13-19.52,19.51-29.24a3.42,3.42,0,0,0-1-4.43c-1.27-.91-3.46-1-4.52.38l-5.11,6.66,5,4.76a32.48,32.48,0,0,1,10-8.77l-4.77-4.55c-1.92,2.61-3.88,5.19-5.82,7.78l5.53,4.05a29.36,29.36,0,0,1,6.06-6.42,25.38,25.38,0,0,1,4.19-2.43c-.77.37,1.36-.53.53-.21l1.09-.41c.85-.3,1.71-.55,2.59-.78,3.83-1,3.69-7-.19-7.81a43.15,43.15,0,0,0-15.9-.06c-2.1.36-3.26,2.9-3,4.79a4.31,4.31,0,0,0,4.31,3.62q3.17,0,6.31.28l.41,0c-.45-.06-.11,0,1,.11,1.16-.23,1.48-.27,1-.13l.48,0c1.11,0,2.23-.11,3.34-.13a3.21,3.21,0,0,0,3-2.39,3.17,3.17,0,0,0-1.54-3.53Z" style="fill: #333"/>
    <path d="M129.5,214.77A16.19,16.19,0,0,1,131,211.6a1.15,1.15,0,0,0,.05-1.48,1.13,1.13,0,0,0-1.46-.26,20.35,20.35,0,0,0-2.93,3.08l-2.81,3.16,2.15,1.57c2-3.17,4-6.37,6-9.56l-.5.52.2-.12a1.54,1.54,0,0,0,.58-1.94,1.57,1.57,0,0,0-1.84-.84,3.75,3.75,0,0,0-1.73,1.16c-.42.39-.82.8-1.21,1.22a30.24,30.24,0,0,0-2.36,2.93,25.82,25.82,0,0,0-3.26,6.41,1.82,1.82,0,0,0,1.11,2.14,1.86,1.86,0,0,0,2.28-.81l3.94-6.44,2-3.34c.28-.46.56-.92.85-1.37a5,5,0,0,1,.65-.77c-.13.11.11-.07.11-.07.18-.12.34-.25.52-.39,0,0-.18.15,0,0a2.52,2.52,0,0,0,.54-.49,1.6,1.6,0,0,0,.2-1.7,2.25,2.25,0,0,0-3.38-.4,8.58,8.58,0,0,0-2.13,2.51c-.69,1.1-1.36,2.22-2,3.33L122.09,217l3.39,1.33a25.68,25.68,0,0,1,2.82-5.58,20.87,20.87,0,0,1,1.82-2.35c.79-.89,1.92-1.68,2.3-2.84l-3-.33,0,.21.18-.72c-2,3.21-4,6.41-5.89,9.64-.78,1.3,1.16,2.76,2.15,1.58l2.71-3.24a20.64,20.64,0,0,0,2.66-3.34l-2.08-.82a17.2,17.2,0,0,1-1.14,3.61c-.31.88,1.16,1.47,1.54.61Z" style="fill: #333"/>
    <path d="M128.35,237.79c10.14-14.93,20-30,30.52-44.72l-2-1.12q-10.36,14.61-19.37,30.13a1.24,1.24,0,0,0,2,1.44A140.85,140.85,0,0,0,160,193a1.3,1.3,0,0,0-2.28-1.26q-14.19,22.37-28.42,44.73l-3.89,6.12c-1.4,2.19-3.07,4.18-4.47,6.37L123,248a10.9,10.9,0,0,0-10.14,3.9l3,.32a2.45,2.45,0,0,1,.49-1.79,1.13,1.13,0,0,0-.62-2.08c-3.26-.3-4.51,3.37-3.09,5.86a1.91,1.91,0,0,0,3,.31,7.21,7.21,0,0,1,6.51-2.95,1.94,1.94,0,0,0,2-.89c1.15-1.84,2.08-3.8,3.16-5.67s2.38-3.82,3.58-5.72l7-11.22q7-11.22,14.09-22.44L160,193l-2.28-1.26a139,139,0,0,1-20.1,30.12l2,1.45q8.93-15.53,19.24-30.2c.86-1.22-1.18-2.33-2-1.12a505.72,505.72,0,0,0-29.22,45.44c-.26.47.43.83.73.4Z" style="fill: #333"/>
    <path d="M131.61,230.93a173.82,173.82,0,0,0,10.33,15.31,1,1,0,0,0,1.62-1,74.13,74.13,0,0,0-10.1-13.66c-.85-.91-2.27.31-1.65,1.34q3.58,6,7.34,11.83c1.2,1.88,2.42,3.76,3.64,5.64a52.69,52.69,0,0,0,4,5.81c1,1.1,2.5-.37,1.89-1.53a61.19,61.19,0,0,0-3.76-5.58q-2-2.86-3.88-5.78-3.75-5.72-7.38-11.52L132,233.13a71.72,71.72,0,0,1,10,13.11l1.62-1c-3.75-4.9-7.33-9.93-11-14.9a.56.56,0,0,0-1,.59Z" style="fill: #333"/>
    <path d="M146.77,255.18c-1.25,1.7,1.5,2.48,2.64,2.64a25.74,25.74,0,0,0,5.55,0c1.94-.15,3.87-.34,5.8-.51l3.08-.28a5.82,5.82,0,0,0,3-.58,1.24,1.24,0,0,0-.05-2.12,4.22,4.22,0,0,0-2.44-.17l-2.54.25-4.89.47c-1.57.16-3.14.37-4.72.49a15,15,0,0,1-2.32,0,5.27,5.27,0,0,1-1-.15q-.27.08-.33-.09c-.32-.24-.33-.24,0,0-.36-.76-1.34-.48-1.73.05Z" style="fill: #333"/>
    <path d="M136.93,232.85c2.32,4.12,4.73,8.2,7.11,12.28a1.67,1.67,0,0,0,3.08-.91,20.71,20.71,0,0,0-10.66-16.13c-2.49-1.32-4.46,1.81-2.77,3.77q5.07,5.88,10.41,11.51c2,2.12,5.84-.88,4-3.26a68.09,68.09,0,0,1-8.32-14.2l-4.94,2.23,10,13.72c.87,1.2,3.05,1.9,4.13.43,2.45-3.33.64-6.64-1-9.88s-3.58-6.66-5.55-9.88l-4.66,2.88a138.9,138.9,0,0,1,10.63,16.51,2.75,2.75,0,0,0,3.74.88,2.79,2.79,0,0,0,.89-3.74,112.13,112.13,0,0,0-7.67-13.6,2.71,2.71,0,0,0-4.88,2.2c1.56,6.38,4.39,12.32,7.13,18.25l4.63-2.86a32.68,32.68,0,0,0-9.26-9.59c-1.74-1.2-4.46.53-4.25,2.58.8,7.69,6.21,13.21,9.44,19.91.59,1.22,2.11,1.45,3.27,1.24a4.84,4.84,0,0,1,1.12.18,7,7,0,0,0,1.37.08,4.92,4.92,0,0,0,3.1-1.27,4.26,4.26,0,0,0-.16-6.17c-1.2-1.2-2.73-1.93-3.82-3.26a11.55,11.55,0,0,1-2.22-4.56l-5.09,2.3c1.81,2.28,3.65,4.54,5.47,6.8l2.67,3.31c1,1.18,1.94,2.4,3.61,2.41a3.38,3.38,0,0,0,3.37-2.52c.34-1.63-.71-2.9-1.54-4.19q-2.28-3.54-4.88-6.84l-4.06,3.29a53.67,53.67,0,0,0,9,8.63,2.63,2.63,0,0,0,3.08.32,2.57,2.57,0,0,0,1.1-2.89,38.12,38.12,0,0,0-7-12.65c-1.62-1.94-5.2.29-4.23,2.6s2.13,5.12,3.95,6.89c2,2,6.35.57,5.22-2.64s-6.09-1.66-5,1.5l.05.15.21-2-.06.1,1.52-1.23c1.68.9,2.18.95,1.51.17l-.5-.73c-.24-.37-.48-.75-.7-1.13a23.56,23.56,0,0,1-1.31-2.55l-4.23,2.6a29.84,29.84,0,0,1,5.68,10.4l4.18-2.58a50.62,50.62,0,0,1-8.44-8.24,2.73,2.73,0,0,0-3.63-.86,2.64,2.64,0,0,0-.85,3.62,90.53,90.53,0,0,1,6,8.91l-.32-2.09-.05.28.66-1.22-.19.21,1.18-.73h.14l1.38.34.09.2-.61-.78-.92-1.18-2.3-2.94c-1.49-1.9-3-3.8-4.47-5.68a2.82,2.82,0,0,0-5.09,2.29,16.72,16.72,0,0,0,4.57,7.89,16.18,16.18,0,0,0,1.5,1.24,11.29,11.29,0,0,0,1.2.85v0c.65.75.79.16.41-1.76l.51-.32h0a3.29,3.29,0,0,0-.58-.07,9.76,9.76,0,0,0-3.28,0l3.28,1.24a94.41,94.41,0,0,0-5.11-8.68c-1.56-2.56-3.1-5.34-3.48-8.35l-4.26,2.58a25.93,25.93,0,0,1,7.4,7.43,2.72,2.72,0,1,0,4.63-2.86,86.9,86.9,0,0,1-6.59-17l-4.88,2.2a114.24,114.24,0,0,1,7.63,13.62l4.63-2.86a120.25,120.25,0,0,0-10.6-16.53,2.82,2.82,0,0,0-3.77-.89,2.78,2.78,0,0,0-.89,3.77q2.4,3.79,4.56,7.72c.69,1.24,1.35,2.49,2,3.75a7.63,7.63,0,0,1,.62,1.47s.11.38.09.34c.18.34-.24.51.17,0l4.13.43-9.79-13.84a2.76,2.76,0,0,0-3.44-1,2.71,2.71,0,0,0-1.51,3.26,65.48,65.48,0,0,0,9.11,15.37l4-3.27q-5.46-5.49-10.76-11.14l-2.76,3.76a17.53,17.53,0,0,1,9.68,12.53l3-1.36a125.33,125.33,0,0,1-7.73-11.89c-.84-1.45-3-.09-2.21,1.36Z" style="fill: #333"/>
    <path d="M123.21,210c.05,2.77,1.58,4.84,3.42,6.75,1,1.05,2.65-.68,1.55-1.63-3.15-2.71-5.21-6.8-7.16-10.4-2.4-4.42-4.83-8.83-7.24-13.24-4.94-9-10.07-18-15.21-26.87l-.32,3.11a9,9,0,0,1,3.42-2.48l-3.2-1.72c2.3,9.44,7.23,17.92,12.16,26.19q8.07,13.55,16.15,27.08c1.28,2.16,5.08,1.2,4.84-1.44-.91-10-6-18.52-10.66-27.18L106.23,161a2.71,2.71,0,1,0-4.62,2.85l14.17,26.49,7,13.13c2.38,4.44,4.63,9,7.31,13.25a2.62,2.62,0,0,0,4.46-2.75c-2.05-4.52-4.55-8.85-6.91-13.21l-7.19-13.33L106.23,161l-4.62,2.85L116,190.14c4.37,8,9.57,16.08,10.44,25.38l4.84-1.44-16-26.67c-4.81-8-9.63-16.16-11.88-25.33a2.58,2.58,0,0,0-3.2-1.72,14.51,14.51,0,0,0-5.65,3.87,2.63,2.63,0,0,0-.33,3.11c5.27,9.13,10.56,18.23,16,27.24,2.62,4.32,5.17,8.68,7.89,12.94a33.39,33.39,0,0,0,8.74,9.45l.81-2.08c-2.17-.48-3.25-2.84-3.38-4.87a.54.54,0,0,0-1.08,0Z" style="fill: #333"/>
    <path d="M111.22,196.68Q113.47,201.9,116,207c.85,1.71,1.72,3.41,2.58,5.12a41,41,0,0,1,2.75,5.46l2.45-1.11c-1.06-1.67-2.38-3.15-3.41-4.85s-1.9-3.35-2.77-5.06c-1.8-3.5-3.52-7-5.54-10.44-4.05-6.82-8.82-13.18-13-19.92a79.43,79.43,0,0,1-6.17-11.77c-.85-2.08-4.24-1.09-3.38,1,3.07,7.49,7.49,14.24,12,20.91,2.28,3.34,4.6,6.65,6.76,10.07s4,6.92,5.91,10.48c1.06,2,2.14,4,3.37,6a22.49,22.49,0,0,0,4.13,5.31,1.36,1.36,0,0,0,1.87-2,27.66,27.66,0,0,1-3.22-4.88c-1-1.62-2-3.27-2.89-4.94q-2.78-5-5.28-10.12c-.25-.52-1.16-.12-.93.42Z" style="fill: #333"/>
    <path d="M91.26,164.4c.16,1.86,1.31,3.21,2.27,4.76,1.1,1.78,2.17,3.56,3.23,5.36q3,5.17,6,10.43c4,7.14,7.81,14.35,11.7,21.53l3.4,6.26,1.64,3a6.85,6.85,0,0,0,2,2.66,1.21,1.21,0,0,0,1.78-1.08c-.08-1.83-1.58-3.68-2.46-5.25l-3.1-5.58-6-10.7c-4-7.06-7.88-14.15-12.14-21-1.22-2-2.46-3.95-3.73-5.89-1.13-1.74-2.09-3.86-4-4.84a.39.39,0,0,0-.58.35Z" style="fill: #333"/>
  </g>
  <g id="Layer_145" data-name="Layer 145">
    <path d="M546.74,224.32c10.34-14,19.08-29.16,28.1-44,7-11.54,14-23.58,24.51-32.3a40.27,40.27,0,0,1,16.82-8.57c2.84-.61,6.17-.73,8.78.5,2.83,1.33,4.48,4,5.68,6.79a40,40,0,0,1,3.18,11.23,30.81,30.81,0,0,1,.12,5.84,13.19,13.19,0,0,1-.17,1.54c-.11.77-.25,1.53-.42,2.29-1.26,5.7-3.85,10.65-7.06,15.72s-7,10-10.34,15.13A57,57,0,0,0,608,215.08a30.78,30.78,0,0,0-.84,4.34,2.29,2.29,0,0,0,1.61,2.69,2.25,2.25,0,0,0,2.68-1.62c3.4-12.1,11.93-22,18.78-32.23,3.5-5.26,6.67-10.84,8.44-16.95a37.67,37.67,0,0,0-.86-22.55c-1.29-3.81-2.91-7.69-5.6-10.74a15.2,15.2,0,0,0-10.05-4.82c-7.17-.74-14.43,2.32-20.34,6.14C590,147,581.9,159.17,574.7,171c-4.5,7.38-8.9,14.85-13.33,22.27-4.67,7.81-9.34,15.64-13.53,23.71-1,2-2,4-2.91,6.05-.53,1.08,1,2.42,1.81,1.33Z"/>
    <path d="M548.8,219.4c-3.78,3.43-6,8.61-7.77,13.3a60,60,0,0,0-3.76,14.6c-.57,5-.17,10.2,2.35,14.69a20.12,20.12,0,0,0,9.6,8.41c8.86,3.78,18.6,1.85,26.48-3.35,8.58-5.67,14.34-14.32,19.71-22.89L605.52,228l5-8a96.12,96.12,0,0,0,4.6-8.84,2.39,2.39,0,0,0-.69-3.05,2.36,2.36,0,0,0-3.12.26c-1.67,2.15-3.39,4.26-4.94,6.49s-2.87,4.49-4.27,6.75l-8.41,13.56c-5,8.11-9.8,16.78-16.82,23.39-5.66,5.32-13.66,9.41-21.48,7.92a17.08,17.08,0,0,1-9.35-4.89c-2.77-2.92-3.79-7-3.85-10.91-.08-5.15,1.25-10.27,2.9-15.1.84-2.48,1.92-4.85,2.93-7.26s2.36-4.95,3.16-7.56c.44-1.45-1.43-2.2-2.4-1.32Z"/>
    <path d="M564.78,197.17c3.7.44,7.43.6,11.13,1.05a55.09,55.09,0,0,1,11,2.49,30.43,30.43,0,0,1,14.67,10.51,50.07,50.07,0,0,1,2.66,4.38c.49.82.9,1.7,1.45,2.48a6.56,6.56,0,0,0,1.78,2.11,2,2,0,0,0,2.63-.76c.93-1.56.41-4-.07-5.65a18.73,18.73,0,0,0-2.35-4.82,31.11,31.11,0,0,0-7.2-7.72,42.15,42.15,0,0,0-22-8.18,42.79,42.79,0,0,0-13.78.74c-1.6.38-1.64,3.17.08,3.37Z"/>
    <rect x="235.5" y="183.5" width="96" height="11.5" style="fill: none;stroke: #000;stroke-miterlimit: 10;stroke-width: 14.4074633436979px;opacity: 0.300000011920929"/>
    <rect x="235.5" y="234.5" width="96" height="11.5" style="fill: none;stroke: #000;stroke-miterlimit: 10;stroke-width: 14.4074633436979px;opacity: 0.300000011920929"/>
    <rect x="367.5" y="183.5" width="39.5" height="11.5" style="stroke: #000;stroke-miterlimit: 10;stroke-width: 9.2416697635719px;opacity: 0.300000011920929"/>
    <rect x="367.5" y="234.5" width="39.5" height="11.5" style="stroke: #000;stroke-miterlimit: 10;stroke-width: 9.2416697635719px;opacity: 0.300000011920929"/>
    <rect x="435.5" y="183.5" width="39.5" height="11.5" style="stroke: #000;stroke-miterlimit: 10;stroke-width: 9.2416697635719px;opacity: 0.300000011920929"/>
    <rect x="435.5" y="234.5" width="39.5" height="11.5" style="stroke: #000;stroke-miterlimit: 10;stroke-width: 9.2416697635719px;opacity: 0.300000011920929"/>
  </g>
  <g id="Layer_138" data-name="Layer 138">
    <path d="M664.67,150.14q-.06,39.83-.11,79.64l0,40.15,0,19.75c0,4.71.36,9.61-.48,14.27-.68,3.7-2.13,7.27-5,9.8-4.13,3.62-9.91,4.35-15.2,4.59-13.21.59-26.5.42-39.73.59q-39.82.49-79.64.89-79.32.75-158.64,1-79.69.26-159.38,0c-25.25-.08-50.49-.23-75.73-.27-25.49,0-51,.66-76.47,0-11.37-.28-25.32,1.18-34.58-6.75a21.3,21.3,0,0,1-5.14-6C13,305,13.17,301.44,13,298.27c-.32-6.36-.47-12.73-.74-19.09s-1.22-12.52-1.28-18.8.12-12.33.16-18.49q.13-19.71.08-39.42c0-26.48-.28-53-.57-79.45q-.21-20-.45-40.08c-.07-6-.28-12-.17-18,.06-3.8.42-7.74,2-11.24,4.49-9.82,16.85-11.18,26.36-11.53,12.91-.48,25.91,0,38.83,0l79.82.4,159,.79,159.65.8,38.92.19c3.89,0,3.9-6,0-6l-164.27-.82L186.1,36.67l-81.8-.41-40.9-.2C51.22,36,38.51,35,26.48,37.32,17.14,39.13,8.86,44.17,5.66,53.49A37.9,37.9,0,0,0,4,65.66c0,6.41.13,12.84.2,19.25.31,27.15.64,54.3.83,81.45.2,27.37.26,54.73,0,82.1,0,6.12-.31,12.26.23,18.37.59,6.59,1,13.13,1.21,19.75.22,6.24-.09,12.92,1,19.09.87,5.13,4.37,9.51,8.26,12.79a34.85,34.85,0,0,0,13.71,6.73c5.8,1.52,12.54,1.08,18.52,1.29,13.08.45,26.17.49,39.25.43s26.43-.25,39.65-.27c12.6,0,25.19.39,37.79.28,54.31-.48,108.64.16,163,.07q82-.15,163.93-.83,40.8-.33,81.62-.81,20.4-.23,40.8-.5l21.06-.28c5.93-.09,12,.1,17.85-1.28a21.82,21.82,0,0,0,16.93-17.37c.9-4.49.76-9.05.77-13.61l0-20.4q0-40.82.11-81.62l.05-40.15c0-3.89-6-3.9-6.05,0Z"/>
    <path d="M671.32,155.37l1.54-53.94.78-27c.12-4.39.28-8.78.37-13.16a25.68,25.68,0,0,0-1.78-11.22c-2.88-6.4-9.9-9.41-16.38-10.71-7.58-1.53-15.44-1.49-23.14-1.73q-26.88-.85-53.78-.7t-53.76,1.3l-6.71.3a3.08,3.08,0,0,0-3,3,3.05,3.05,0,0,0,3,3q26.35-1.24,52.75-1.54t52.54.38c8.16.21,16.39.24,24.52,1a46.13,46.13,0,0,1,9.35,1.66,17.47,17.47,0,0,1,7,3.71,11.7,11.7,0,0,1,3.25,8c.23,3.89-.08,7.84-.19,11.74L667,95.94l-1.52,52.93-.19,6.5c-.11,3.89,5.94,3.89,6.06,0Z"/>
  </g>
  <g id="Isolation_Mode" data-name="Isolation Mode">
    <path d="M120.91,204.87a33.06,33.06,0,0,1,3.31,4.89c.47.84.9,1.69,1.29,2.56.2.47.39.94.58,1.41a6.18,6.18,0,0,1,.49,1.34l.15-.59a2.81,2.81,0,0,0-.33,1l3.22-.08a45.85,45.85,0,0,0-2.66-4.53c-.42-.71-.83-1.43-1.22-2.16l-.57-1c-.11-.21-.22-.42-.34-.63,0,0-.29-.56-.2-.35a2.1,2.1,0,0,0-4.1.66,8.85,8.85,0,0,0,.61,2.91c.26.84.54,1.67.85,2.5a46.59,46.59,0,0,0,2.34,5.14,2.36,2.36,0,0,0,4.36-1.3,16.57,16.57,0,0,0-4.77-9.61,2.46,2.46,0,0,0-4.12,1.83,19,19,0,0,0,2.75,9.18,2.46,2.46,0,0,0,3.09.94A2.51,2.51,0,0,0,127,216a1.79,1.79,0,0,0-.3-.76c-.42-.55-.5-.63-.23-.26l.3,1,0-.45a1.85,1.85,0,0,0-3.44-.84l-.23.39.69-.73c.44-.21.34-.17-.3.13a1.62,1.62,0,0,0-.59.54l3.87.41a17.35,17.35,0,0,1-.94-1.75c.1.22.07.16,0,0s-.14-.34-.2-.52-.22-.62-.32-.94c-.18-.6-.31-1.21-.44-1.82-.07-.29,0,.35,0-.12,0-.15,0-.29,0-.44,0-.37-.07-.73-.08-1.1l-4.13,1.83a10.05,10.05,0,0,1,.73.73l.41.46c-.22-.26-.07-.08,0,.08a13.44,13.44,0,0,1,1.16,1.83c.08.15.15.31.24.46s-.13-.33,0,.09.25.64.36,1a13.85,13.85,0,0,1,.54,2.2l4.26-1.92c-.41-.74-.8-1.48-1.16-2.24-.1-.21-.2-.41-.29-.62l-.1-.21c.07.17.08.17,0,0-.17-.39-.33-.78-.49-1.17-.32-.78-.61-1.56-.88-2.36a12.31,12.31,0,0,0-1-2.65l-3.57,2.2c1,1.39,1.8,3,2.73,4.42.47.72.94,1.45,1.45,2.15a11.68,11.68,0,0,0,1.85,2.12,1.72,1.72,0,0,0,2.36-.06,1.7,1.7,0,0,0-.06-2.36c-.22-.27-.17-.25-.4-.41a.78.78,0,0,0-.33-.19c-.21-.07-.25-.09-.11-.06l.43.42a10.4,10.4,0,0,1-.58-1.56c-.19-.47-.39-.94-.59-1.4-.44-1-.92-1.95-1.44-2.9a36.71,36.71,0,0,0-3.68-5.34,1.14,1.14,0,0,0-1.6,0,1.15,1.15,0,0,0,0,1.6Z" style="fill: #333"/>
    <path d="M107.76,166.26q2.92,6.53,5.84,13.05l2.81,6.3c.44,1,.88,2,1.33,3a11.55,11.55,0,0,0,1.73,3.23.91.91,0,0,0,1.52-.68,9.89,9.89,0,0,0-1.12-3c-.51-1.12-1-2.23-1.57-3.35l-3-6.23q-3.06-6.47-6.1-12.94c-.39-.83-1.86-.18-1.48.67Z" style="fill: #333"/>
    <path d="M152.06,193.73a32.68,32.68,0,0,1-5,10.05l1.77,1.3c2.26-3.72,4.37-7.51,6.52-11.29a1.25,1.25,0,1,0-2.18-1.21,45.64,45.64,0,0,0-2.42,4.17c-.36.69-.68,1.38-1,2.09a4.94,4.94,0,0,0-.63,2.56c.09.59.76,1.2,1.37.74a5,5,0,0,0,1.39-2c.34-.73.7-1.45,1.06-2.16.73-1.44,1.53-2.83,2.39-4.19l-2.18-1.21c-2.12,3.8-4.27,7.58-6.28,11.43a1.11,1.11,0,0,0,1.94,1.07,39.72,39.72,0,0,0,5.11-10.89c.34-1.19-1.5-1.63-1.86-.46Z" style="fill: #333"/>
    <path d="M145.33,183.81q10.65-.44,21.29-1L165.49,181c-13.3,18.13-26.4,36.45-39,55.1Q121.2,244,116,251.93c-.88,1.33.9,2.82,2.15,2a12.15,12.15,0,0,0,4.62-5.09L120,247.4l-2.2,5.09a1.54,1.54,0,0,0,2.7,1.49l3.11-5.18-2.85-1.12a16.09,16.09,0,0,1-3.91,5.71c-1.26,1.35.57,3.86,2.12,2.61a15.41,15.41,0,0,0,4.79-7.57c.56-1.72-2-2.57-2.85-1.12l-3.11,5.18,2.7,1.49,2.19-5.09c.78-1.79-1.81-3.29-2.69-1.49a9.22,9.22,0,0,1-3.55,4l2.16,2C131,234.63,143.56,216,156.57,197.65q5.52-7.77,11.12-15.48c.57-.78-.26-1.91-1.13-1.86q-10.65.63-21.28,1.44a1,1,0,0,0,.05,2.06Z" style="fill: #333"/>
  </g>
</svg>
