<svg version="1.1" width="105.4" height="105.4" viewBox="0 0 105.4 105.4" xmlns="http://www.w3.org/2000/svg" xmlns:xlink="http://www.w3.org/1999/xlink" overflow="hidden"><style>
.MsftOfcThm_Background1_Fill {
 fill:#FFFFFF; 
}
</style>
<defs></defs><g><path d=" M 72.5 44.5 L 72.5 44.5 C 72.3 45.2 72.2 45.8 72 46.2 L 68.2 57.1 L 76.6 57.1 L 72.8 46.2 C 72.8 45.9 72.6 45.3 72.5 44.5 Z" stroke="none" stroke-width="1" stroke-dasharray="" stroke-dashoffset="1" fill="#FFFFFF" fill-opacity="1"/><path d=" M 105 58.5 L 95.5 19.9 C 94.3 14.9 90.4 11.1 85.5 9.9 L 46.9 0.4 C 42.2 -0.7 37.3 0.6 33.9 4 L 4 33.9 C 0.6 37.3 -0.8 42.2 0.4 46.9 L 9.9 85.5 C 11.1 90.5 15 94.3 19.9 95.5 L 58.5 105 C 63.2 106.1 68.1 104.8 71.5 101.4 L 101.4 71.5 C 104.7 68.1 106.1 63.1 105 58.5 Z M 16.4 50.6 C 16.1 51.1 15.7 51.5 15.2 51.9 C 14.7 52.2 14.1 52.5 13.4 52.6 C 12.7 52.7 12 52.8 11.3 52.8 C 11.1 52.8 10.8 52.8 10.4 52.7 C 10 52.7 9.7 52.6 9.3 52.5 C 8.9 52.4 8.6 52.3 8.2 52.2 C 7.9 52.1 7.6 52 7.4 51.9 L 7.4 49.4 C 7.6 49.6 7.9 49.8 8.2 50 C 8.5 50.2 8.8 50.3 9.2 50.4 C 9.5 50.5 9.9 50.6 10.2 50.7 C 10.5 50.8 10.9 50.8 11.2 50.8 C 12.2 50.8 13 50.6 13.5 50.3 C 14 50 14.3 49.5 14.3 48.8 C 14.3 48.5 14.2 48.1 14 47.9 C 13.8 47.6 13.6 47.4 13.3 47.2 C 13 47 12.6 46.8 12.2 46.6 C 11.8 46.4 11.4 46.2 10.9 46 C 10.4 45.7 9.9 45.5 9.5 45.2 C 9.1 44.9 8.7 44.6 8.4 44.3 C 8.1 44 7.8 43.6 7.7 43.2 C 7.5 42.8 7.4 42.3 7.4 41.7 C 7.4 41 7.6 40.4 7.9 39.9 C 8.2 39.4 8.6 39 9.1 38.6 C 9.6 38.3 10.2 38 10.8 37.9 C 11.4 37.7 12.1 37.7 12.8 37.7 C 14.3 37.7 15.5 37.9 16.2 38.2 L 16.2 40.6 C 15.4 40 14.3 39.7 13 39.7 C 12.6 39.7 12.3 39.7 11.9 39.8 C 11.5 39.9 11.2 40 10.9 40.1 C 10.6 40.3 10.4 40.5 10.2 40.7 C 10 40.9 10 41.2 10 41.5 C 10 41.8 10.1 42.1 10.2 42.4 C 10.3 42.7 10.5 42.9 10.8 43.1 C 11.1 43.3 11.4 43.5 11.8 43.7 C 12.2 43.9 12.6 44.1 13.1 44.3 C 13.6 44.6 14.1 44.8 14.6 45.1 C 15.1 45.4 15.5 45.7 15.8 46.1 C 16.1 46.5 16.4 46.9 16.6 47.3 C 16.8 47.7 16.9 48.2 16.9 48.8 C 16.9 49.5 16.7 50.1 16.4 50.6 Z M 27.4 52.5 L 25 52.5 L 25 50.9 L 25 50.9 C 24.3 52.2 23.2 52.8 21.8 52.8 C 20.8 52.8 20 52.5 19.4 52 C 18.8 51.4 18.5 50.7 18.5 49.8 C 18.5 47.8 19.6 46.7 21.9 46.3 L 25 45.9 C 25 44.4 24.3 43.7 22.9 43.7 C 21.6 43.7 20.5 44.1 19.5 45 L 19.5 42.9 C 20.6 42.2 21.9 41.9 23.3 41.9 C 26 41.9 27.3 43.2 27.3 45.8 L 27.3 52.5 Z M 46 52.5 L 43.6 52.5 L 43.6 46.8 C 43.6 45.7 43.4 44.9 43.1 44.4 C 42.8 43.9 42.3 43.7 41.5 43.7 C 40.9 43.7 40.3 44 39.9 44.6 C 39.5 45.2 39.2 46 39.2 46.8 L 39.2 52.5 L 36.8 52.5 L 36.8 46.6 C 36.8 44.6 36.1 43.7 34.7 43.7 C 34.1 43.7 33.5 44 33.1 44.6 C 32.7 45.2 32.5 45.9 32.5 46.9 L 32.5 52.6 L 30.1 52.6 L 30.1 42 L 32.5 42 L 32.5 43.7 L 32.5 43.7 C 33.3 42.4 34.4 41.8 35.8 41.8 C 36.5 41.8 37.2 42 37.7 42.4 C 38.2 42.8 38.6 43.3 38.8 44 C 39.6 42.6 40.7 41.8 42.3 41.8 C 44.6 41.8 45.8 43.2 45.8 46.1 L 45.8 52.5 Z M 58 52.5 L 55.6 52.5 L 55.6 50.8 L 55.6 50.8 C 54.9 52.1 53.8 52.7 52.4 52.7 C 49.9 52.7 48.7 51.2 48.7 48.2 L 48.7 42 L 51 42 L 51 48 C 51 49.9 51.7 50.8 53.2 50.8 C 53.9 50.8 54.5 50.5 54.9 50 C 55.4 49.5 55.6 48.8 55.6 48 L 55.6 42 L 58 42 L 58 52.5 Z M 61.1 42 L 63.5 42 L 63.5 44.2 L 63.5 44.2 C 63.7 43.5 64.1 42.9 64.6 42.5 C 65.1 42.1 65.6 41.9 66.2 41.9 C 66.6 41.9 67 42 67.2 42.1 L 67.2 44.4 C 66.9 44.1 66.5 44 66 44 C 65.3 44 64.7 44.3 64.2 45 C 63.7 45.6 63.5 46.5 63.5 47.6 L 63.5 52.6 L 61.1 52.6 L 61.1 42 Z M 80.3 67.8 L 77.8 60.8 L 67.1 60.8 L 64.7 67.8 L 59.7 67.8 L 70 40.5 L 75.1 40.5 L 85.2 67.8 L 80.3 67.8 Z M 93.7 67.8 L 89 67.8 L 89 40.5 L 93.7 40.5 L 93.7 67.8 Z" stroke="none" stroke-width="1" stroke-dasharray="" stroke-dashoffset="1" fill="#FFFFFF" fill-opacity="1"/><path d=" M 21.3 48.2 C 21 48.4 20.8 48.9 20.8 49.5 C 20.8 49.9 21 50.3 21.3 50.6 C 21.6 50.9 22 51 22.6 51 C 23.3 51 23.9 50.7 24.4 50.2 C 24.9 49.7 25.1 49 25.1 48.3 L 25.1 47.4 L 22.9 47.7 C 22.2 47.8 21.7 47.9 21.3 48.2 Z" stroke="none" stroke-width="1" stroke-dasharray="" stroke-dashoffset="1" fill="#FFFFFF" fill-opacity="1"/></g></svg>